<svg xmlns="http://www.w3.org/2000/svg" width="29.237" height="28.592" viewBox="0 0 29.237 28.592">
  <path id="Path_34" data-name="Path 34" d="M10.168,4.817l-2.1-2.1A15.286,15.286,0,0,0,2.03,14.23H4.962A12.383,12.383,0,0,1,10.168,4.817ZM28.334,14.23h2.932A15.379,15.379,0,0,0,25.226,2.72l-2.082,2.1A12.456,12.456,0,0,1,28.334,14.23Zm-2.889.733c0-4.5-2.4-8.27-6.6-9.267v-1a2.2,2.2,0,0,0-4.4,0v1c-4.208,1-6.6,4.751-6.6,9.267v7.331L4.919,25.227v1.466h23.46V25.227l-2.932-2.932Zm-8.8,16.129a2.569,2.569,0,0,0,.586-.059,2.975,2.975,0,0,0,2.111-1.73,2.944,2.944,0,0,0,.22-1.144H13.7a2.954,2.954,0,0,0,2.947,2.932Z" transform="translate(-2.03 -2.5)" fill="#541913"/>
</svg>
