<svg xmlns="http://www.w3.org/2000/svg" xmlns:xlink="http://www.w3.org/1999/xlink" width="111.036" height="100.926" viewBox="0 0 111.036 100.926">
  <defs>
    <clipPath id="clip-path">
      <rect id="Rectangle_12" data-name="Rectangle 12" width="111.036" height="100.926" fill="none"/>
    </clipPath>
  </defs>
  <g id="Group_9" data-name="Group 9" transform="translate(0 0)">
    <g id="Group_8" data-name="Group 8" transform="translate(0 0)" clip-path="url(#clip-path)">
      <path id="Path_36" data-name="Path 36" d="M110.43,59.2a.481.481,0,0,0,.6-.571,9.675,9.675,0,0,0-5.641-7.162,11.151,11.151,0,0,0,1.089-1.172,7.926,7.926,0,0,0,1.982-5.305.482.482,0,0,0-.612-.444,6.287,6.287,0,0,0-1.647.932c1.622-2.966,2.478-6.608,1.337-9.68a.448.448,0,0,0-.423-.309c-1.683.054-2.9,3.36-3.39,4.59a9.682,9.682,0,0,0-.331,1,5.811,5.811,0,0,0-.562-.41,3.084,3.084,0,0,0-.9-3.414.237.237,0,0,0,.266-.177,4.671,4.671,0,0,0-2.807-5.554C97,30.59,89.24,29.773,91.669,25.929a.373.373,0,0,0,.061-.193,32.78,32.78,0,0,1,3.569.858c2.3.748,2.991,2.014,3.437,4.173.067.323.564.293.65,0a3.475,3.475,0,0,0-.089-2.545,11.97,11.97,0,0,0,5.511,1.255c.275-.013.571-.284.452-.567-1.012-2.422-3.094-5.816-5.759-6.994a12.371,12.371,0,0,0,4.83-3.681.4.4,0,0,0-.07-.515c-1.5-1.134-3.287-.769-4.892.229a8.139,8.139,0,0,0-.338-3.325,3.745,3.745,0,0,0-3.1-2.664c1.129-3-.748-6.664-1.651-9.731a.417.417,0,0,0-.788,0c-1.293,3.219-2.211,6.888.063,9.919a.416.416,0,0,0,.125.11,6.009,6.009,0,0,0-.56.222c-.439.215-.054.816.381.621a5.105,5.105,0,0,1,.858-.289,13.738,13.738,0,0,1-.739,1.2l0,.009c-.043.014-.087.02-.13.036a.389.389,0,0,0-.275.443,3.438,3.438,0,0,0-.414-.318,3.051,3.051,0,0,0-.067-2.019,2.527,2.527,0,0,0-.647-1c-1.142-2.187-5.047-3.315-7.209-2.272A17.291,17.291,0,0,0,84.807.3a.426.426,0,0,0-.7-.175c-2.14,2.63-1.92,6.16-.345,9.01a.358.358,0,0,0,.15.148c-.009.137-.011.273-.016.41a2.3,2.3,0,0,0-.34.627c-.022-.007-.043-.016-.065-.022-.063-3.732-3.914-5.721-7.3-7.036a.484.484,0,0,0-.612.446c-.114,3.53,3.479,6.237,6.9,7.205.034.289.069.58.112.874.054.367.665.34.742,0,.038-.17.056-.327.079-.493a3.6,3.6,0,0,0,0,.4c.049.5.865.513.827,0a2.655,2.655,0,0,1,.023-.5.374.374,0,0,0,.145-.6c.495-1.2,2.05-1.443,3.515-1.133a4.581,4.581,0,0,1,2.081,1,4.561,4.561,0,0,0-1.38.392,3.118,3.118,0,0,0-1.9,2.229c-.139,1.207.983,1.9,2.036,2.231a5.232,5.232,0,0,0,.087,1.169c.1.556.97.318.878-.229-.188-1.142.148-2.2,1.537-1.817a3.625,3.625,0,0,1,.571.229l-.009,0c-.564.462-2.292,2.13-.686,2.541a1.916,1.916,0,0,0,.78.013,5.088,5.088,0,0,0,.07,1.192c.128.576,1.042.331.918-.24a11.58,11.58,0,0,1-.027-1.3,2.2,2.2,0,0,0,.779-.735,1.093,1.093,0,0,0-.128-1.3.52.52,0,0,0,.179-.014c1.53-.424,2.545.256,2.446,1.8a3.464,3.464,0,0,1-.714,1.738c-.457.641-1.239.86-1.749,1.405a.259.259,0,0,0,.121.434c2,.349,3.324-2.41,3.322-3.931a2.3,2.3,0,0,0-2.462-2.4,5.494,5.494,0,0,0,.872-1.109,3.342,3.342,0,0,1,2.758,2.7,6.163,6.163,0,0,1-.013,2.986,2.893,2.893,0,0,1-.143.4,11.633,11.633,0,0,0-2.545,3.112,5.736,5.736,0,0,0-.762.419.322.322,0,0,0-.081.083,6.3,6.3,0,0,0-2.728-1,.2.2,0,0,0,.061-.139c.146-2.6-1.658-3.88-4.192-4.151-3.553-.379-7.865,1.348-10.475-1.557a.933.933,0,0,1,.1-.013c3.987-.549,6.945-1.394,10.468,1,.244.166.522-.148.39-.374-1.127-1.922-3.241-2.328-5.381-2.285a.246.246,0,0,0,.007-.145c-1.225-3.21-3.374-3.488-5.816-2.879-.007-.009,0-.018-.011-.025a4.883,4.883,0,0,0-3.88-1.362,10.437,10.437,0,0,0-7.69-.968.372.372,0,0,0-.237.535,6.968,6.968,0,0,0-1.142.444.188.188,0,0,0-.06-.229c-1.328-1.066-3.681-.963-5.33-.506-4.756.121-6.754,6.815-11.7,7.144.132-.152.267-.3.4-.452.919-1.125,1.8-2.274,2.8-3.334,1.548-1.633,3.329-2.193,5.392-2.991a.247.247,0,0,0-.069-.486,6.6,6.6,0,0,0-4.3,1.207.332.332,0,0,0-.294-.461c-2.272-.289-4.673,1.4-6.291,2.742a12.708,12.708,0,0,0-2.312,2.534,31.582,31.582,0,0,0,.1-4.127.413.413,0,0,0-.694-.273A14.733,14.733,0,0,0,37.561,17.2c-.632-2.31-1.582-4.617-3.439-6.071a.44.44,0,0,0-.715.179A9.125,9.125,0,0,0,35.7,19.894c-.034-.013-.07-.033-.1-.045a5.715,5.715,0,0,0-4.8.618,9.23,9.23,0,0,0,2.043-6.026A.45.45,0,0,0,32.382,14c-3.168.179-4.158,4.146-3.582,6.6a.369.369,0,0,0,.4.293c-.17.285.206.589.49.437.031-.014.052-.038.083-.056a4.985,4.985,0,0,0-.943,1.23c-.034-2.67-.789-5.466-.881-8.071a.457.457,0,0,0-.766-.305,5.98,5.98,0,0,0,.6,8.842v0c.031.256.067.513.107.768-1.734-2.207-3.9-4.113-7-3.99a.473.473,0,0,0-.466.589c.04.134.107.251.154.379a.415.415,0,0,0-.023.641c.161.13.329.271.495.41a7.849,7.849,0,0,0,1.573,1.96,3.429,3.429,0,0,0-.845-.21,3.327,3.327,0,0,0-2.6.867A19.471,19.471,0,0,0,17.536,12.3a.43.43,0,0,0-.387-.211c-.1,0-.191,0-.287,0a.44.44,0,0,0-.424.311c-.9,3.365-1.142,6.7.157,9.74-.677-.643-1.4-1.248-2.1-1.842a12.11,12.11,0,0,0-4.12-2.415.441.441,0,0,0-.547.524c.43,2.818,3.533,4.369,6.064,5.235a.244.244,0,0,1,.052.007,5.146,5.146,0,0,0-1.423.282,5.9,5.9,0,0,0-3.25,2.735,3.169,3.169,0,0,0-.305,1.116c-1.474-2.177-4.03-3.152-6.129-4.85a.472.472,0,0,0-.793.312c-.154,3.345,3.176,5.215,6.011,6.441a3.358,3.358,0,0,0-3.448,2.1,3.031,3.031,0,0,0,.625,3.851,3.055,3.055,0,0,0-.863,2.417A4.133,4.133,0,0,0,8.7,41.635a13.3,13.3,0,0,0-8.351-.117.462.462,0,0,0-.116.849,11.005,11.005,0,0,0,9.55.444c.052,0,.1.013.155.011a13.471,13.471,0,0,0-4.483,10.15.492.492,0,0,0,.827.329c3.2-2.881,5.424-6.04,5.768-10.094.108-.157.219-.312.331-.47a4.6,4.6,0,0,0,2.375,2.558,3.748,3.748,0,0,0,1.38.329,12.123,12.123,0,0,0-4.917,7.223.472.472,0,0,0,.34.576c3.459.768,5.84-2.292,7.126-5.336v.005a6.2,6.2,0,0,0,.155,1.207.321.321,0,0,0-.309.179,15.821,15.821,0,0,0-1.579,8.174c.04.5.815.657.948.125.28-1.122.717-2.3,1.078-3.493a6.309,6.309,0,0,0,1.682,2.258.35.35,0,0,0-.15.383,17.246,17.246,0,0,0,1.243,3.569.262.262,0,0,0-.054.1,13.9,13.9,0,0,0,.4,8.925.3.3,0,0,0-.336.172,8.281,8.281,0,0,0,.125,6.886.288.288,0,0,0-.179.157,7.477,7.477,0,0,0,.1,6.855,8.359,8.359,0,0,0,.37,7.146l.009.014c-.2,2.648-1.089,5.918.007,8.425a40.619,40.619,0,0,1-9.554-.013c-.439-.07-.632.529-.186.652,7.518,2.074,15.316-.941,22.991,1.1.379.1.648-.459.275-.621A20.759,20.759,0,0,0,26.716,98.9a6.065,6.065,0,0,0-.013-1.057,9.2,9.2,0,0,0,.193-5.459,4.384,4.384,0,0,0,0-1.638,10.054,10.054,0,0,0,.2-3.717.284.284,0,0,0,.121-.2,8.122,8.122,0,0,0-.289-2.643,10.243,10.243,0,0,0-.083-6.044.233.233,0,0,0,.038-.188,21.964,21.964,0,0,0-1.658-4.624.226.226,0,0,0,.22-.123,9.21,9.21,0,0,0,.04-7.133c1.019-2.252.667-5.1.06-7.41a.364.364,0,0,0-.078-.146,6.228,6.228,0,0,0,4.294-1.3c.011.152.014.309.022.461a10.06,10.06,0,0,0-2.475,7.411.481.481,0,0,0,.807.32,7.3,7.3,0,0,0,2.186-4,7.074,7.074,0,0,0,3.277,4.622.5.5,0,0,0,.647-.163A5.181,5.181,0,0,0,34.5,60.1a5.3,5.3,0,0,0,3.188.473.457.457,0,0,0,.334-.565,5.15,5.15,0,0,0-3.748-3.4A4.268,4.268,0,0,0,37.3,51.238a.337.337,0,0,0-.654.085c-.148,2.177-.573,4.257-3.232,4.584a4.09,4.09,0,0,1-1.04-.005.29.29,0,0,0-.486-.089,4.812,4.812,0,0,1-.672-.206l0,0c.2-.305-.242-.607-.5-.37-.031.027-.063.052-.1.083a5.69,5.69,0,0,1-1.541-1.273,3.493,3.493,0,0,0,2.41-2.986c1.68-.45,2.868-1.674,2.37-3.6a2.505,2.505,0,0,0-.356-.78,3.475,3.475,0,0,0-.3-1.18,2.629,2.629,0,0,0,.674-1.059,7.505,7.505,0,0,1,2.375,2.379,3.267,3.267,0,0,1,.611,1.79,1,1,0,0,1-.513.831,8.958,8.958,0,0,0-.486-1.322c-.168-.372-.816-.1-.681.275a6.642,6.642,0,0,1,.35,1.541,1.672,1.672,0,0,0-.17.119.238.238,0,0,0,.112.4c.033.007.058.005.089.011a5.905,5.905,0,0,1-.222,1.631c-.042.154.152.332.305.226a2.1,2.1,0,0,0,.865-1.918,2.649,2.649,0,0,0,2.066-3.224,5.952,5.952,0,0,0-3.439-4.12c-.4-.175-.744.37-.347.567a5.76,5.76,0,0,1,2.713,3.013,2.328,2.328,0,0,1,.182,1.481,2.845,2.845,0,0,0-.135-.721,6.772,6.772,0,0,0-3.513-3.614,3.889,3.889,0,0,0,.016-1.151,6.52,6.52,0,0,0-2.018-3.571,5.167,5.167,0,0,0,.508.266,3.494,3.494,0,0,0,4.268-1.38c.087,3.5,1.039,7.581,4.236,9.091a.484.484,0,0,0,.715-.394c.284-3.636.515-7.9-2.169-10.749a4.075,4.075,0,0,0,1.823-.1A3.813,3.813,0,0,0,43.9,33.776a2.951,2.951,0,0,0-.529-3.21,3.973,3.973,0,0,0,1.355-2.785,1.956,1.956,0,0,1,.851,1.465c.027.829-1.037,1.338-1.6,1.8-.231.188.023.486.269.441a2.525,2.525,0,0,0,2.189-2.24c.049-.972-.853-1.691-1.694-2.15a5.035,5.035,0,0,0-.146-1.031,6.17,6.17,0,0,0-3.667-4.071A22.547,22.547,0,0,0,46.5,18.6a.434.434,0,0,0-.32-.741c-.34.014-.676.067-1.013.114A15.759,15.759,0,0,0,46.45,16.75l.016.007c.28.031.549.043.813.047a.313.313,0,0,0-.013.206c3.54,12.556,9.183,24.859,17.666,35.084C71.074,59.5,81.3,67.412,91.792,67.74a4.673,4.673,0,0,0,3.289,3.484C89.117,78.7,82.977,86.8,80.927,96.1a.328.328,0,0,0,.632.166c3.255-8.647,7.9-15.729,13.2-23.065a87.243,87.243,0,0,0-4.675,14.633.368.368,0,0,0,.71.186c1.613-5.807,5.166-11.71,6.055-17.7.089-.121.177-.24.267-.365a.329.329,0,0,0,.067-.215,2.155,2.155,0,0,0,.742-.385A3.963,3.963,0,0,0,97.97,73a8.088,8.088,0,0,0,.723,1.019c.872,2.377-.658,4.725.4,7.01-1.611,2.509-3.728,5.354-1.328,7.95-.529.88-.76,1.8.5,2.3.116.045.22.078.327.114-.686,2.027-1.521,6.042.282,7.756-6.248-.667-12.411-2.1-18.775-1.758-8.818.477-17.5,4.763-26.235,1.214-.475-.193-.9.461-.412.676,7.055,3.109,15.195.981,22.462-.345,10.558-1.927,20.612,2.9,31.018,1.194.435-.072.334-.766-.1-.735a42.857,42.857,0,0,1-6.712-.121,7.16,7.16,0,0,1-1.335-3.6,12.447,12.447,0,0,1,.6-4.05,3.1,3.1,0,0,1,2.034,1.306c1.456,1.958.141,3.764-.627,5.659-.114.275.316.5.513.285,1.727-1.864,2.307-4.214.928-6.4a3.55,3.55,0,0,0-1.873-1.609c-1.248-.376-2.233-.37-1.926-1.422a6.263,6.263,0,0,0,2.294.177,11.427,11.427,0,0,1,2.019.029c1.223.177,1.1,1.326.975,2.285-.085-.276-.175-.544-.275-.789-.164-.408-.84-.251-.7.184a9.2,9.2,0,0,1,.466,3.347,17.455,17.455,0,0,1-.968,3.367.286.286,0,0,0,.477.266c1.47-1.3,1.622-3.5,1.239-5.415a.273.273,0,0,0,.264-.132c.912-1.7.665-3.905-1.678-4.077-1.174-.085-2.6.255-3.728-.145a.328.328,0,0,0-.556-.267c-1.973-1.306.19-4.6,1.44-6.561.179.121.37.228.538.323,2.345,1.32,1.691,3.392,1.1,5.538a.331.331,0,0,0,.6.244c.948-1.427,1.637-3.912.437-5.423.022-.014.045-.014.067-.038a3.324,3.324,0,0,0,.69-2.531,2.983,2.983,0,0,0,.022-1.962c1.772-1.927,2.549-4.669.75-6.828a5.249,5.249,0,0,0-1.208-.807c-2.352-1.328-2.142-3.2-1.761-5.327a5.836,5.836,0,0,0-.154-3.042c2.052,1.982,1.895,4.247,2.592,6.884a.306.306,0,0,0,.594-.078,11.86,11.86,0,0,0-.439-4.523c.083.1.17.2.255.3.692,3.614,2.175,7.435,5.383,9.584a.505.505,0,0,0,.672-.168c2.177-3.714-1.138-8.26-4.713-10.419a12.934,12.934,0,0,0,1.089-.889c.721-.58,1.432-1.181,2.1-1.819a.457.457,0,0,0-.336-.779,11.482,11.482,0,0,0-3.2.576,9.156,9.156,0,0,0,.217-5.123,8.454,8.454,0,0,0,5.437,3.8M81.3,8.056c-.1-.135-.2-.271-.294-.406-.282-.388-.943-.036-.67.378.325.488.658.97.984,1.46C79.023,8.43,76.9,6.734,76.588,4.407a14.065,14.065,0,0,1,4.194,2.267,4.155,4.155,0,0,1,1.1,1.472.411.411,0,0,0-.582-.09m2.744-.266a7.426,7.426,0,0,1,.141-6.322,24.53,24.53,0,0,1-.141,6.322m7.2,5.71a2.116,2.116,0,0,0-1.924.459,1.569,1.569,0,0,0-.4.587c-.6-.273-1.373-.726-1.263-1.409a2.329,2.329,0,0,1,1.364-1.474,2.484,2.484,0,0,1,1.92-.206c.327.421.632.874.956,1.351.038.312.043.638.09.939a4.651,4.651,0,0,0-.746-.247m3.53-1.528a4.352,4.352,0,0,0-.511.1.308.308,0,0,0-.043-.3A9.035,9.035,0,0,1,93.75,3.54c.327,1.225.784,2.415,1.172,3.622a6.457,6.457,0,0,1-.15,4.81M27.086,15.758c.065,1.226.206,2.448.358,3.672.09.741.146,1.492.208,2.245a5.253,5.253,0,0,1-.565-5.918m-16.12,3.3a20.851,20.851,0,0,1,4.568,3.553c-1.81-.764-3.772-1.815-4.568-3.553M5.053,24.21c1.024.7,2.135,1.326,3.129,2.054a.38.38,0,0,0-.1.4,6.5,6.5,0,0,0,.724,1.5C7.065,27.243,5.426,26,5.053,24.21M1.781,42.072a11.4,11.4,0,0,1,4.509.061c.522.1,1.042.247,1.566.387a10.474,10.474,0,0,1-6.075-.448m26.482,21.8a9.892,9.892,0,0,1,.182-1.385.476.476,0,0,0,.327-.2,8.252,8.252,0,0,0,.786-1.375,7.26,7.26,0,0,1-1.3,2.955m8.618-4.135a4.726,4.726,0,0,1-2.912-1.04,3.681,3.681,0,0,1-1.039-1.2,4.027,4.027,0,0,1,3.95,2.238M31.064,57.6a.411.411,0,0,0,.056-.15c2.231,1.956,4.239,4.778,2.576,7.52-2.171-1.51-2.849-4.2-2.991-6.748.119-.208.235-.415.359-.621m3-45.364a9.381,9.381,0,0,1,1.963,3.224c-.273-.123-.659,0-.634.356,0,.038.016.074.02.112h0l.007.023a5.443,5.443,0,0,0,.894,2.424c.217.542.464,1.075.732,1.6-2.063-2.043-3.5-4.9-2.979-7.74M29.631,20.33c-.352-1.743.19-4.841,2.263-5.374a9.371,9.371,0,0,1-.768,3.244,9.942,9.942,0,0,1-1.5,2.13m5.959.443a6.918,6.918,0,0,1,3.134,2.82,2.5,2.5,0,0,1,.119,2.865,5.712,5.712,0,0,0-2.319-.191c-.094.013-.186.04-.28.06a3.866,3.866,0,0,0-1.284-3,1.916,1.916,0,0,0-2.1-.067,1.819,1.819,0,0,0-.88,1.87c.2,1.091,1.326,1.7,2.312,2.059a.288.288,0,0,0,.107.018,2.912,2.912,0,0,0-.228.305.372.372,0,0,0-.154-.177,6.782,6.782,0,0,0-4.187-1.078c-2.128-3.389,2.122-7,5.76-5.48M37.3,28.827a2.378,2.378,0,0,0-1.275.981,1.528,1.528,0,0,1-.139.079,2.77,2.77,0,0,1-.471-.7.5.5,0,0,0-.638-.273,1.4,1.4,0,0,1,1.077-1.573,4.3,4.3,0,0,1,2.449-.119c-.128.157-.264.311-.41.473a.334.334,0,0,0,.334.551,2.519,2.519,0,0,0,1.115-.627,3.281,3.281,0,0,1,.546.368,2.1,2.1,0,0,1,.623,2.019A1.612,1.612,0,0,1,39.158,31.3c0-.023.02-.038.018-.063-.09-1.019-.385-2.782-1.88-2.406m-2.551-1.891a.4.4,0,0,0-.247-.468,2.625,2.625,0,0,1-1.68-1.432,1.079,1.079,0,0,1,1.712-1.068,3.63,3.63,0,0,1,.88,2.585l.005.016a3.426,3.426,0,0,0-.67.367m-6.335-.294a4.792,4.792,0,0,0-2.328,2.18,5.319,5.319,0,0,0-1.006-3.1,5.724,5.724,0,0,0-.443-.56,16.051,16.051,0,0,0,3.777,1.476m-13.553,6.57c.289,2.352,3.331,4.606,5.493,2.453,2.065-2.057-1.4-4.429-3.488-4.323a.451.451,0,0,0-.459.441,1.582,1.582,0,0,0,.564,1.4.356.356,0,0,0,.441-.549.716.716,0,0,1-.09-.4A3.486,3.486,0,0,1,19.9,33.807c.713,1.1-.936,1.705-1.779,1.763a2.261,2.261,0,0,1-1.971-1.3,3.312,3.312,0,0,1,.452-3.878,2.422,2.422,0,0,1,1.2-.766c.1.016.191.042.287.063a.251.251,0,0,0,.365.078,9.771,9.771,0,0,1,2.364.966,5.72,5.72,0,0,1,1.729,1.519c.016.052.025.108.038.161a.382.382,0,0,0,.092.477,3.214,3.214,0,0,1-.983,2.825c-1.174,1.08-3.172.966-4.626.654a6.82,6.82,0,0,1-3.856-2.155c-1.216-1.523-.065-3.029,1.293-3.987a3.717,3.717,0,0,1,1.725-.638,4.081,4.081,0,0,0-1.371,3.622m7.932,2.834a2.808,2.808,0,0,0,.932-3.47,4.691,4.691,0,0,0,1.9-1.918,3.084,3.084,0,0,0,.126.824.743.743,0,0,0-.217.027c-.544.2-.347.764-.275,1.16a.241.241,0,0,0,.3.161.666.666,0,0,0,.45-.39A.41.41,0,0,0,26,32.358l.011.031a4.634,4.634,0,0,1,.222.723,8.524,8.524,0,0,1-.571,4.828,6.224,6.224,0,0,0-2.348,2.074,3.612,3.612,0,0,1-1.87-1.34.343.343,0,0,0-.173-.1c-.005-.061,0-.112-.007-.175a4.878,4.878,0,0,0,1.521-2.352M21.748,21.05c-.052-.1-.089-.217-.135-.327a7.243,7.243,0,0,1,4.87,2.8C24.9,22.7,23.26,21.988,21.748,21.05m-2.861,4.655a.247.247,0,0,0,.125-.029c.9-.555,1.355-1.358,2.556-1.326a3.944,3.944,0,0,1,2.749,1.8,3.8,3.8,0,0,1-.934,5.762,4.932,4.932,0,0,0-4.006-3.26,3.822,3.822,0,0,0-.556,0,5.938,5.938,0,0,0,.067-2.942M17.1,13.359c.155-.677-.025.135.247.842a23.25,23.25,0,0,1,.928,3.271,15.637,15.637,0,0,1,.085,6.069c-2.039-3.12-2.1-6.55-1.261-10.182M11.246,29.454a.511.511,0,0,0,.056-.02,1.772,1.772,0,0,0,.806.677c.289.119.56-.123.424-.408-.479-.983-.97-1.615-.415-2.709A5.105,5.105,0,0,1,14.6,24.831a2.771,2.771,0,0,1,2.9.089c.97.833.871,2.5.685,3.79-.141.023-.284.04-.419.076a7.318,7.318,0,0,0-1.7-.022,5.52,5.52,0,0,0-3.58,2.1,4.77,4.77,0,0,0-1.5-.947.423.423,0,0,0,.267-.466M6.463,51.819A12.71,12.71,0,0,1,9.9,44.13c-.932,1.655-1.835,3.324-2.648,5.036-.246.522.524.983.818.457.894-1.588,1.786-3.089,2.738-4.57a15.519,15.519,0,0,1-4.35,6.766m5.854.769a11.8,11.8,0,0,1,2.919-5.027c-.191.368.394.833.822.513.78-.585,1.526-1.21,2.278-1.826-.883,2.838-2.9,6.617-6.019,6.34m6.654-8.282a1.932,1.932,0,0,0,.175-.345.281.281,0,0,0-.415-.3,8.769,8.769,0,0,1-1.711,1.006A2.873,2.873,0,0,1,14.98,44.4a3.554,3.554,0,0,1-2.027-3.26c.014-.5-.769-.49-.8,0a4.123,4.123,0,0,0,.022.733l-.023.014a.531.531,0,0,0-.072-.164c0-.1.009-.2,0-.307a.4.4,0,0,0-.547-.338c-2,.072-3.542-.266-4.133-2.37-.312-1.1-.045-2.2.668-2.522a4.709,4.709,0,0,0,1.519.392,1.76,1.76,0,0,0,1.16,1.543.3.3,0,0,0,.378-.363c-.145-.406-.457-.7-.621-1.1a1.68,1.68,0,0,1,.1-1.384c.2-.441-.455-.833-.692-.383a3.056,3.056,0,0,0-.226.6A2.465,2.465,0,0,0,8.14,35.2c-2.377-1.73.527-6.8,3.911-3.613a3.029,3.029,0,0,0-.256.853c-.208,1.705,1.124,3,2.529,3.824a8.314,8.314,0,0,0,6.868.7,4.686,4.686,0,0,1-2.646,1.893c-2.066.527-3.842-1.022-4.8-2.578-.251-.4-.9-.042-.658.367A5.535,5.535,0,0,0,18.3,39.766a4.884,4.884,0,0,0,2.31-.858c.011,1.884-1.49,2.825-3.571,2.722a5.5,5.5,0,0,1-2.52-.766c-.753-.455-.692-.916-.762-1.653a.354.354,0,0,0-.591-.235c-.753.638-.2,1.723.378,2.267a5.688,5.688,0,0,0,3.277,1.232c2.39.262,4.149-.909,4.436-2.84a3.787,3.787,0,0,0,1.608,1.147,6.355,6.355,0,0,0-.7,3.065,4.455,4.455,0,0,0-2.619,1.613c.027-.116.058-.235.081-.347a.43.43,0,0,0-.368-.535.363.363,0,0,0-.284-.273m6.942.48a6.811,6.811,0,0,1,2.955-.883,3.856,3.856,0,0,1,3.23,1.143,4.544,4.544,0,0,1-.629.329,8.106,8.106,0,0,0-3.233-.2,4.3,4.3,0,0,0-1.55.527,4.424,4.424,0,0,0-.773-.916m.674,3.224a1.781,1.781,0,0,0-.65.99,1.9,1.9,0,0,0-.051.56,3.491,3.491,0,0,1-.63-.5c.023-.11.047-.224.076-.325a3.852,3.852,0,0,1,.95-1.613,3.471,3.471,0,0,0,.2.733.53.53,0,0,0,.1.152m-.564-1.851a5.011,5.011,0,0,0-1.389,1.983,2.7,2.7,0,0,1-.213-.82,2.376,2.376,0,0,1,.784-2,3.7,3.7,0,0,1,.818.833m-2.177.21a4.316,4.316,0,0,1-.764-1.732A3.514,3.514,0,0,1,24.657,45a3.524,3.524,0,0,0-.809,1.375m-.37.82a.338.338,0,0,0,.226.119,3.776,3.776,0,0,0,.251,1.373,2.727,2.727,0,0,0,.358.63,5.062,5.062,0,0,0,.529,3.374,2.438,2.438,0,0,1-3.213-.26,5.862,5.862,0,0,1-1.506-2.3,5.85,5.85,0,0,1,.748-1.028c.322-.352-.206-.865-.54-.515a7.67,7.67,0,0,0-.515.6c-.033-.125-.078-.251-.1-.378a3.313,3.313,0,0,1,2.556-4.057,5.2,5.2,0,0,0,1.21,2.44m-2.084,9.922a8.19,8.19,0,0,0,3.651,1.349.357.357,0,0,0-.2.383,23.681,23.681,0,0,1,.323,3.909c0,.712-.094,1.411-.155,2.113-1.116-2.587-2.746-5.114-3.623-7.755m.842,4.342c.4.8.827,1.591,1.27,2.4a13.3,13.3,0,0,1,1.44,8.873c-1.7-3.549-3.575-6.826-2.709-11.268m.639,37.665c.025-1.324-.2-2.644-.132-3.983.049-1.022.148-2.038.21-3.054.45.717.932,1.42,1.371,2.137a13.483,13.483,0,0,1,1.6,4.707c-1.013.045-2.032.116-3.051.193m3.215-3.479a17.927,17.927,0,0,0-1.315-2.464c-1.855-2.984-3.1-5.32-2.42-8.609.643,1.059,1.422,2.054,2.106,3.076a9.745,9.745,0,0,1,.968,1.875.358.358,0,0,0-.253.506,11.847,11.847,0,0,1,.914,5.616m.139-6.8a19.983,19.983,0,0,0-1.337-2.2c-2.045-3.044-3.869-5.553-2.63-9.212,1.145,2.435,2.5,4.541,3.5,6.936,0,.023-.014.04-.007.065a12.863,12.863,0,0,1,.471,4.413m-.222-11.394c.139,1.03.266,2.061.365,3.092a16.143,16.143,0,0,1,.022,2.09C24.608,78.511,20.719,75.072,22.27,70a48.7,48.7,0,0,0,3.735,7.446m3.952-21.569c-2.271,1.774-4.823,2.453-7.655.941a4.807,4.807,0,0,1-2.668-5.477,7.018,7.018,0,0,0,1.739,2.065,3.061,3.061,0,0,0,3.994-.043,3.329,3.329,0,0,0,2.863.858,6.5,6.5,0,0,0,1.727,1.656M28.5,53.237c-.034-.058-.076-.112-.108-.17-.2-.368-.73-.107-.67.249a3.93,3.93,0,0,1-.968-.132,2.025,2.025,0,0,1-.966-.583.319.319,0,0,0-.141-.163,3.589,3.589,0,0,1-.544-2.35,5.03,5.03,0,0,0,1.136.583,3.087,3.087,0,0,0,.941.99,2.206,2.206,0,0,0,2.868-.4l.087,0c.09,0,.177-.022.266-.027a2.567,2.567,0,0,1-1.9,2m-.708-4.8a1.975,1.975,0,0,1,2.449,1.021,3.492,3.492,0,0,1-.786,1.017,7.708,7.708,0,0,1-2.48-.4,1.136,1.136,0,0,1,.816-1.642m1.142-.874a4.153,4.153,0,0,0-1.573.076l0-.013c-.531-1.337.293-1.743,1.541-1.234a2.393,2.393,0,0,1,1.564,1.8,2.993,2.993,0,0,0-1.528-.629m2.57,2.608a3.307,3.307,0,0,0-.262-.963,2.717,2.717,0,0,0-.374-2.417,3.693,3.693,0,0,0-1.161-.907,5.205,5.205,0,0,1,2.478.706,2,2,0,0,1,.813.883c0,.089.018.173.016.266a.178.178,0,0,0,.1.164A2.244,2.244,0,0,1,31.5,50.174m1.389-8.228a2.288,2.288,0,0,1-.276,2.691c-1.564-1.651-4.826-1.723-7.066-.381-.063.038-.114.087-.175.126a4.245,4.245,0,0,0-2.393-.623,5.559,5.559,0,0,1,.791-2.883,2.265,2.265,0,0,0,.612-.146,3.948,3.948,0,0,0,1.991-2.139,4.648,4.648,0,0,1,2.917-.175,5.978,5.978,0,0,1,3.6,3.53m-5.444-5.094.443-.322a3.046,3.046,0,0,0,1-.755c.276-.224.542-.452.8-.7a4.118,4.118,0,0,0,1.039,3.013,5.026,5.026,0,0,0-.871-.4,5.474,5.474,0,0,0-3.058-.172c.025-.072.052-.15.076-.222.045-.143.074-.293.112-.441a.384.384,0,0,0,.461,0m-.3-3.636a3.786,3.786,0,0,0,1.317.4,3.577,3.577,0,0,0-1.2,1.29,7.887,7.887,0,0,0-.116-1.691m9.89.639a9.468,9.468,0,0,0-.488,2.272,4.025,4.025,0,0,1-.9,1.781,2.546,2.546,0,0,1-2.713.609,3.555,3.555,0,0,1-2.092-4.966,5.311,5.311,0,0,0,1.053-.3,3.911,3.911,0,0,0,2.2,1.257.253.253,0,0,0,.229-.379,8.7,8.7,0,0,0-1.651-1.418.329.329,0,0,0-.3-.426c-.047,0-.1.009-.143.007a3.063,3.063,0,0,1-.76-2.928c.087-.307-.374-.414-.491-.126a3.208,3.208,0,0,0,.24,3.159.391.391,0,0,0-.6.029c-.038.054-.06.11-.1.166a5.717,5.717,0,0,1-.934.172,3.817,3.817,0,0,1-2.032-.331,2.137,2.137,0,0,1-.939-2.547,3.88,3.88,0,0,1,2.251-2.518,3.465,3.465,0,0,1,.782-.231.367.367,0,0,0,.34-.056,6.67,6.67,0,0,1,3.622.891.355.355,0,0,0,.258.04c-.4,1.109.28,2.3.968,3.17a.59.59,0,0,0,.67.15c.076.54.69.8,1.382.916a4.328,4.328,0,0,0,.235,1.517.223.223,0,0,0-.094.089M36.788,30.4a1.8,1.8,0,0,1,.76-.692.3.3,0,0,1,.184-.011c.145.75-.051,1.18.5,1.716a5.8,5.8,0,0,1-.768-.04c-.972-.126-1.221-.126-.674-.974m4.088,15.477c-2.827-1.933-3.329-6.653-3.26-9.853a4.447,4.447,0,0,0,.1-1.237,3.41,3.41,0,0,0,.4.372.275.275,0,0,0-.049.3,17.483,17.483,0,0,1,.616,2.254,7.553,7.553,0,0,0,.668,2.455.255.255,0,0,0,.455-.058,5.993,5.993,0,0,0-.309-2.923c1.711,2.46,1.6,5.755,1.376,8.694m2.509-20.444a4.29,4.29,0,0,1,.41,2.883c-.271,1.288-1.378,1.716-2.379,2.377-.238.155-.184.605.164.576a3.319,3.319,0,0,0,1.163-.325c.229.871.7,1.584.282,2.522a2.981,2.981,0,0,1-1.851,1.483c-2.075.674-3.387-.791-3.506-2.621a9.544,9.544,0,0,0,1.091-.016A2.8,2.8,0,0,0,41.5,29.49a2.853,2.853,0,0,0-1.653-2.623A3.878,3.878,0,0,0,40,24.193,5.481,5.481,0,0,0,39.19,22.6a.565.565,0,0,0,.217-.013c.145-.042.276-.1.415-.145a5.9,5.9,0,0,1,3.562,2.986m-4.144-4.971a.484.484,0,0,0,.35.78c-.033.052-.072.1-.1.152a.4.4,0,0,0-.054.186,5.921,5.921,0,0,0-1.015-.051.339.339,0,0,0-.117.025c-.112-.108-.235-.2-.352-.309A.342.342,0,0,0,38,20.911a.518.518,0,0,0,.181-.134,3.211,3.211,0,0,0,.215.287c.376.408.961-.179.612-.585-1.963-2.3.685-6.7,2.717-8.905-.07,3.251-.228,6.127-2.487,8.883m3.466-.338a.465.465,0,0,0-.266-.085c-.173,0-.359-.007-.544-.016a7.207,7.207,0,0,1,2.735-1.133c-.625.441-1.263.858-1.926,1.234m-1.5-1.04c.067-.128.148-.256.208-.387a.382.382,0,0,0,.3-.284A11.635,11.635,0,0,1,45,13.2c1.8-1.752,3.784-2.31,6.087-3.1-3.452,2.514-5.733,7.59-9.877,8.983m66.259,26.669a7.4,7.4,0,0,1-1.562,3.726,5.368,5.368,0,0,1-1.17,1.14,3.156,3.156,0,0,0,1.055-2.045.416.416,0,0,0-.7-.276c-.117.094-.219.2-.327.291a7.145,7.145,0,0,1,2.7-2.836m-.683-9.218c.325-.39.262.974.309,1.364a10.047,10.047,0,0,1-.349,3.419,15.392,15.392,0,0,1-1.031,2.872,9.353,9.353,0,0,0-.215-3.156c-.108-.513-.9-.287-.809.215a10.172,10.172,0,0,1,.125,2.245,19.666,19.666,0,0,0-.3,2.034,4.476,4.476,0,0,1-.21-.443,2.687,2.687,0,0,0-.2-3.246,12.774,12.774,0,0,1,2.677-5.305M103.8,48.237a9.169,9.169,0,0,0-1.082,2.859,33.116,33.116,0,0,1-2.576-2.995c-.056-.09-.11-.182-.166-.273a.251.251,0,0,0-.038-.038,4.016,4.016,0,0,1-.28-4.043c.15.126.3.255.47.374a27.938,27.938,0,0,1,3,2.215,1.983,1.983,0,0,1,.672,1.9m-.621-6.116a6.081,6.081,0,0,0,.387,3.318c-1.927-1.823-5.206-2.765-4.826-5.674.191.1.383.208.585.3,1.039.486,2.121.871,3.11,1.449a2.838,2.838,0,0,1,.744.605m-1.048-1.848c-1.064-.533-2.281-.948-3.273-1.539a.433.433,0,0,0-.271-.172,3.24,3.24,0,0,1-1.656-2.843,33.082,33.082,0,0,1,3.241,1.333c1.479.769,1.734,1.832,1.96,3.221m-8.289-9.452c1.59.591,3.284.891,4.888,1.449,2.384.824,2.429,2.7,2.937,4.747a7.6,7.6,0,0,0-1.9-1.192c-2.675-1.19-6.048-1.721-6.057-5.056.043.014.087.036.13.052M99.1,19.275a7.506,7.506,0,0,1,2.7-1.338c.793-.2,1.754-.011.947.82a10.264,10.264,0,0,1-2.224,1.627c-.215.128-.443.238-.665.356.529-.414,1.048-.844,1.546-1.306a.451.451,0,0,0-.56-.694c-.677.457-1.3.977-1.974,1.44a.369.369,0,0,0-.172.3c-.166.119-.327.251-.495.367a4.064,4.064,0,0,0,.9-1.572m-3.36,4.131c.863-.3,1.732-.616,2.583-.966,2.617.564,4.675,3.717,5.78,6.122A11.308,11.308,0,0,1,96.234,24.6c0-.02.013-.042,0-.065-.023-.078-.065-.137-.094-.213a5.806,5.806,0,0,0,1.331,1.192,2.432,2.432,0,0,0,2.009.43.25.25,0,0,0,.054-.4c-.379-.419-1.127-.484-1.628-.748a4.907,4.907,0,0,1-1.443-1.266.4.4,0,0,0-.63.112c-.051-.085-.114-.15-.168-.226a.306.306,0,0,0,.069-.013m-.753.757a.426.426,0,0,0,.022.092,6.369,6.369,0,0,0,1.19,1.756c-3.732-1.266-9.207-1.288-9.167-3.985,2.923.228,5.778.143,7.955,2.137M82.19,18.281c3.949.058,7.753-1.317,9.474,3.1.007.02.022.022.033.036-1.465-.19-3.089-.161-4.613-.251a.434.434,0,0,0-.724-.052c-.155-.014-.307-.036-.461-.054v-.007a.335.335,0,0,0-.648-.09c-1.714-.307-3.12-1-3.726-2.706.22.013.443.027.667.029m-5.213-6.51c2.538-.735,3.88.457,5.327,2.2-3.858.231-7.431,1.691-11.141,0,.4-.126.809-.264,1.21-.419,1.539-.6,3.011-1.319,4.6-1.785M73.525,10.4a7.336,7.336,0,0,1,.95.1,6.73,6.73,0,0,1,1.758.7c-3.293,1.055-6.954,3.185-9.561,1.774,2.106-1.109,3.726-2.312,6.524-2.31a.307.307,0,0,0,.329-.267m-6.272-.863a.306.306,0,0,0,.2-.452,10.5,10.5,0,0,1,2.933.278,8.729,8.729,0,0,1,1.23.419,8.579,8.579,0,0,0-3.493,1.163c-2.551,1.376-4.46,2.959-7.408,2.206,2.083-1.348,3.949-2.854,6.542-3.614M55.4,11.452a8.581,8.581,0,0,1,4.659-1.931.281.281,0,0,0,.206-.2c.392,0,.788.013,1.187.047a22.913,22.913,0,0,0,2.426.359c-3.537,1.931-6.608,6.259-10.56,3.842.685-.715,1.351-1.445,2.083-2.121M96.06,70c-.137.172-.275.343-.41.515-1.3-.681-2.549-1.277-3-2.747.067,0,.135.007.2,0a4.23,4.23,0,0,0,1.528,1.553A2.816,2.816,0,0,0,95,69.65a3.709,3.709,0,0,0,1.122.2c-.02.051-.042.1-.061.148m.4-2.545-.011,0-.02-.014c-.182-.089-.363-.168-.544-.242-.013-.009-.018-.022-.034-.031-.556-.309-.865-.571-1.514-.323-.033.013-.042.04-.07.056-.114,0-.226-.005-.338-.009-.069-.018-.135-.029-.2-.047a.43.43,0,0,0-.318.031c-26.26-.99-38.028-30.088-45.447-50.048a.3.3,0,0,0-.036-.063,6.736,6.736,0,0,0,3.28-1.286,3.429,3.429,0,0,0,.928,1.792c.089.094.226-.027.175-.132a5.921,5.921,0,0,1-.73-1.953c.181-.139.363-.273.54-.426a23.657,23.657,0,0,0,2.171,5.86.257.257,0,0,0,.468-.188c-.52-2.1-1.4-4.124-2.106-6.174.036-.038.072-.076.11-.114.009.007.011.016.022.025,1.792,1.36,3.582,1.259,5.58.314.508-.242.981-.509,1.447-.784a7.3,7.3,0,0,0,1.366.448.365.365,0,0,0-.163.293c-.533,9.21,6.017,19.617,11.347,26.84.219.3.728.025.515-.287-5.406-7.923-10.4-16.967-11.071-26.553a.41.41,0,0,0-.078-.2,6.736,6.736,0,0,0,3.521-.576c.146-.061.28-.126.415-.191.016,1.859.358,4.1,1.627,5.522.154.175.4-.014.363-.2-.334-1.694-.986-3.239-1.223-4.942a4.45,4.45,0,0,0,1.022.4.323.323,0,0,0-.069.289,17.192,17.192,0,0,0,.932,3.557c.114.26.6.267.565-.07a17.6,17.6,0,0,0-.8-3.663A6.419,6.419,0,0,0,70.2,14.23a.368.368,0,0,0,.2.282,10.176,10.176,0,0,0,6.055,1.2,5.342,5.342,0,0,0,4.169,2.449c.368,2.323,2.318,3.273,4.622,3.649a18.467,18.467,0,0,0,1.212,5.9.257.257,0,0,0,.495-.132c-.276-1.9-.771-3.754-.968-5.663.052,0,.107.013.159.018a2.254,2.254,0,0,0,.667,1.933.209.209,0,0,0-.1.2,17.893,17.893,0,0,0,1.548,6.156c.089.164.394.09.376-.1a50.165,50.165,0,0,0-1.293-5.824,9.233,9.233,0,0,0,2.962,1.12c.2.049.408.087.612.134-1.667,2.274-.09,3.88,2.005,4.87-.287,2.415,1,3.893,3.11,4.9,0,.013-.009.022-.011.034a3.911,3.911,0,0,0,1.942,3.934,3.9,3.9,0,0,0,1.017,3.819l-.011.013c-.963,1.756-1.357,3.526.049,5.218.2.238.406.464.616.692,1.012,3.387-2.514,6.114-1.678,9.758a3.409,3.409,0,0,0,1.059,1.586,5.473,5.473,0,0,1,.865,4.261.409.409,0,0,0-.063.166,7.321,7.321,0,0,1-.7,2.047C95.744,57.513,96.236,48.4,95.3,38.66c-.031-.316-.526-.329-.526,0-.018,9.209-.493,19.091,3.219,27.76-.415-.211-.811-.452-1.216-.677C91.12,60.3,88.636,52.966,85.887,45.828c-3.428-8.9-5.668-18.154-8.1-27.33a.285.285,0,0,0-.551.145,245.556,245.556,0,0,0,8.795,30.021c1.889,5,3.876,10.612,7.377,14.94-10.973-7.959-16.526-21.658-22.651-33-.085-.159-.374-.049-.3.119a107.939,107.939,0,0,0,12.5,23.022c3.316,4.547,7.653,10.721,13.388,12.83.285.237.592.452.894.674-.26.047-.52.139-.768.208m1.512,1.189a.464.464,0,0,0-.219-.152c-.253-.078-.511-.15-.769-.222a2.574,2.574,0,0,0,.891-.47.289.289,0,0,0,.078-.132c.287-.042.509-.432.242-.652l-.079-.072a.405.405,0,0,0,.074-.1c.146.331.293.656.452.979-.159.316-.316.63-.461.95a.323.323,0,0,0-.208-.128m4.135,12.386c-.051.309-.1.62-.159.943-.043-.036-.069-.081-.116-.116a7.989,7.989,0,0,0-1.1-.648,2.033,2.033,0,0,1-.515-.359c.027-.049.06-.1.083-.145a.433.433,0,0,0-.524-.6,6.315,6.315,0,0,1,.172-2.955,4.956,4.956,0,0,0,.047-1.732A7.174,7.174,0,0,1,101.935,78c-.089.139-.179.278-.267.414-.2.294.193.531.453.374a4.92,4.92,0,0,1-.191,1.9.3.3,0,0,0,.177.338m-.5-10.26c2.7,1.5,2.2,3.858,1.048,6.015a7.8,7.8,0,0,0-1.015-1.25c-1.678-1.707-3.546-2.762-2.908-5.522a10.432,10.432,0,0,1,.9-2.267,3.008,3.008,0,0,0,.434,1.709,4.346,4.346,0,0,0,1.541,1.315m2.271-11.743a16.171,16.171,0,0,1-.356,2.551c-.074.347-.175.69-.266,1.031a.294.294,0,0,0-.1.464c-.009.056-.029.11-.036.168a13.084,13.084,0,0,0-3.268-3.423c-3.06-2.511.141-5.778,1.022-8.2a2.8,2.8,0,0,0,.164-1.071,18.383,18.383,0,0,1,1.338,1.562c.043.06.074.117.116.173a.343.343,0,0,0,.309.484l.014,0a9,9,0,0,1,1.311,5.972.314.314,0,0,0-.247.291m5.352,13.838a13.154,13.154,0,0,1-4.2-6.965c.141.164.28.329.421.495a24.378,24.378,0,0,0,2.061,2.706.248.248,0,0,0,.419-.164,4.822,4.822,0,0,0-1.378-2.623c-.49-.6-1.012-1.165-1.541-1.725,2.673,2.184,5.665,5.025,4.218,8.277m-4.3-11.506c.526-.07,1.046-.2,1.568-.3-.275.231-.538.471-.816.7a10.671,10.671,0,0,0-1.454,1.127c-.018-.022-.029-.054-.052-.067a6.8,6.8,0,0,0,.352-1.575.476.476,0,0,0,.4.119m-.4-9.218c.014-.009.031-.014.045-.025a14.029,14.029,0,0,1,3.1,2.03,8.14,8.14,0,0,1,2.216,3.925,8.369,8.369,0,0,1-5.359-5.93" transform="translate(0 0)" fill="#42110f" fill-rule="evenodd"/>
      <path id="Path_37" data-name="Path 37" d="M51.629,33.921c-1.387-6.3-3.755-12.366-4.863-18.723-.047-.269-.535-.206-.5.065.874,6.45,3.174,12.516,4.919,18.773a.228.228,0,0,0,.441-.116" transform="translate(37.307 12.115)" fill="#42110f" fill-rule="evenodd"/>
      <path id="Path_38" data-name="Path 38" d="M50.8,38.059c-5.567-7.419-11.548-14.19-16.076-22.3-.119-.211-.432-.025-.331.186A72.786,72.786,0,0,0,50.532,38.258c.135.123.385-.043.267-.2" transform="translate(27.716 12.63)" fill="#42110f" fill-rule="evenodd"/>
      <path id="Path_39" data-name="Path 39" d="M37.571,23.213c-.2-.309-.712-.029-.513.287A40.214,40.214,0,0,0,51.576,37.295c.21.11.453-.166.262-.325-5.251-4.3-10.506-8.065-14.266-13.757" transform="translate(29.844 18.609)" fill="#42110f" fill-rule="evenodd"/>
      <path id="Path_40" data-name="Path 40" d="M52.423,31.165c-.22-2.278-1.286-4.415-1.671-6.673-.047-.273-.542-.211-.508.067a23.29,23.29,0,0,0,1.815,6.7.2.2,0,0,0,.363-.094" transform="translate(40.512 19.607)" fill="#42110f" fill-rule="evenodd"/>
      <path id="Path_41" data-name="Path 41" d="M52.27,55.877a87.7,87.7,0,0,0,1.553-11.336c.022-.4-.587-.378-.632,0-.455,3.746-1.366,7.5-1.328,11.284,0,.217.365.278.406.052" transform="translate(41.818 35.68)" fill="#42110f" fill-rule="evenodd"/>
      <path id="Path_42" data-name="Path 42" d="M49.949,46.074a8.131,8.131,0,0,0-1.714,4.771c0,.168.242.186.3.036a48.353,48.353,0,0,1,1.739-4.626.185.185,0,0,0-.322-.181" transform="translate(38.893 37.083)" fill="#42110f" fill-rule="evenodd"/>
      <path id="Path_43" data-name="Path 43" d="M49.253,47.644a9.963,9.963,0,0,0-.524,3.629c.013.123.193.2.264.069.591-1.1.406-2.411.645-3.6a.2.2,0,0,0-.385-.1" transform="translate(39.27 38.306)" fill="#42110f" fill-rule="evenodd"/>
      <path id="Path_44" data-name="Path 44" d="M29.766,8.574A33.8,33.8,0,0,0,32.9,16.9a.233.233,0,0,0,.424-.172C32.5,13.915,31.22,11.2,30.12,8.48c-.083-.208-.408-.13-.354.094" transform="translate(23.996 6.74)" fill="#42110f" fill-rule="evenodd"/>
      <path id="Path_45" data-name="Path 45" d="M51.415,20.981c.007-.746-.432-1.441-.453-2.2-.011-.354-.585-.354-.574,0a3.936,3.936,0,0,0,.744,2.316c.094.114.284.013.284-.114" transform="translate(40.628 14.928)" fill="#42110f" fill-rule="evenodd"/>
      <path id="Path_46" data-name="Path 46" d="M16.667,22.723a2.927,2.927,0,0,0-2.173.952c-.338.318.17.793.515.493a2.107,2.107,0,0,1,1.743-.663,8.08,8.08,0,0,1,1.384.643c.224.081.352-.179.276-.345a2.136,2.136,0,0,0-1.745-1.08" transform="translate(11.597 18.319)" fill="#42110f" fill-rule="evenodd"/>
    </g>
  </g>
</svg>
