<svg id="Group_13" data-name="Group 13" xmlns="http://www.w3.org/2000/svg" xmlns:xlink="http://www.w3.org/1999/xlink" width="127" height="106.655" viewBox="0 0 127 106.655">
  <defs>
    <clipPath id="clip-path">
      <rect id="Rectangle_13" data-name="Rectangle 13" width="127" height="106.655" fill="none"/>
    </clipPath>
  </defs>
  <g id="Group_12" data-name="Group 12" transform="translate(0 0)" clip-path="url(#clip-path)">
    <path id="Path_47" data-name="Path 47" d="M45.7,41.14a1.439,1.439,0,0,0-.32-.211c-.085-.047-.287-.183-.19-.095a.645.645,0,0,0-.427-.024.507.507,0,0,0-.3.65,1.02,1.02,0,0,0,.192.256c-.012.017-.031.031-.043.047a.329.329,0,0,0,.04.46c.453.339,1.468.285,1.368-.51a.914.914,0,0,0-.322-.574" transform="translate(60.917 55.925)" fill="#42110f" fill-rule="evenodd"/>
    <path id="Path_48" data-name="Path 48" d="M41.81,41.192a8.549,8.549,0,0,0-1.686.09c-.368.057-.735.111-1.105.164-.185.026-1.973.356-.617,0a.136.136,0,0,0,.012-.249,5.731,5.731,0,0,0-1.876-.337,2.5,2.5,0,0,0-2.371-.673.762.762,0,0,0-.206-.28,3.866,3.866,0,0,0-3.683-.47,3.4,3.4,0,0,0-2.651.377c-.1.062-.031.206.076.2.266-.014.531-.024.8-.033.152,0,.13-.244-.021-.235-1.162.066.548-.194.78-.221a1.051,1.051,0,0,1,.768,0,3.437,3.437,0,0,0-1.292.847.122.122,0,0,0,.071.2,1.781,1.781,0,0,0,2.075-.764.107.107,0,0,0-.036-.164c-.059-.031-.123-.05-.183-.076a6.107,6.107,0,0,1,1.854-.085.864.864,0,0,1,.989.835,4.645,4.645,0,0,0-1.823.889c-.076.066-.076.228.052.237.384.028,2.182-.334,2.435-.96a6.216,6.216,0,0,1,1.005-.017c.47-.014.7.13.707.427a3.539,3.539,0,0,0-1.61.583.136.136,0,0,0,.055.244c.311.057,2.5.135,2.364-.581.493,0,1.731.024.6.311-.135.033-.107.251.026.266A27.093,27.093,0,0,0,41.8,41.41c.123-.007.135-.211.009-.218m-11.9-.854q-1.128-.277.149-.579l.074-.026a1.222,1.222,0,0,1-.223.6m2.77.534a3.972,3.972,0,0,1,.839-.282c0,.069,0,.138-.012.213q-.537.619-.828.069m3.026.621a4.022,4.022,0,0,1-1.027.021,3.813,3.813,0,0,0,1.119-.228,2.15,2.15,0,0,1-.092.206" transform="translate(37.815 53.739)" fill="#42110f" fill-rule="evenodd"/>
    <path id="Path_49" data-name="Path 49" d="M51.073,16.743c-1.963,1.2-3.111,4.268-3.208,6.443-2.193-2.722-8.02-3.853-7.927.892.045,2.461,2.075,4.406,3.744,5.992a35.1,35.1,0,0,0,6.907,5.11c.012.026.017.057.026.085.092.209.448.277.538.024l.012-.036a.515.515,0,0,0,.223-.7c.991-2.993,1.7-6.2,2.694-9.215.761-2.314,1.84-5.207.887-7.609-.669-1.688-2.578-1.788-3.9-.984m-8.7,10.637c-1.363-1.584-2.748-4.43-.055-5.57a2.46,2.46,0,0,1,.251-.066.343.343,0,0,0-.107.242,28.431,28.431,0,0,0,.014,5.5c-.033-.038-.071-.069-.1-.107M53.148,24.9c-.695,2.153-2.829,6.134-2.789,8.947-.237-.157-.47-.315-.7-.47a17.279,17.279,0,0,0,.477-3.334c.052.5.092.994.192,1.482.028.135.244.168.256.012.2-2.836.1-5.705.228-8.546.019-.382-.574-.488-.593-.1-.028.6-.066,1.212-.1,1.824-.036-1.231-.057-2.447,0-3.628.026-.443-.645-.581-.692-.121a63.867,63.867,0,0,0-.294,12.063,35.651,35.651,0,0,1-6.054-4.92l.007-.017a30.233,30.233,0,0,0,.074-6.163.268.268,0,0,0-.218-.27c1.914-.315,4.048,1.373,4.887,2.872.123.228.384.175.543.026.017,1.482,0,2.957-.078,4.441a.094.094,0,0,0,.185.031,18.865,18.865,0,0,0,.351-5.369.177.177,0,0,0-.123-.173.417.417,0,0,0,.047-.133,9.851,9.851,0,0,1,2.76-5.978c2.179.083,3.135.918,2.855,2.509a11.26,11.26,0,0,1-.194,1.323,28.343,28.343,0,0,1-1.024,3.7" transform="translate(54.763 22.29)" fill="#42110f" fill-rule="evenodd"/>
    <path id="Path_50" data-name="Path 50" d="M43.1,15.678a4.894,4.894,0,0,0-2.741,1.5.231.231,0,0,0-.092.069c-.036.057-.057.109-.088.168a4.394,4.394,0,0,0-.455.8A.5.5,0,0,0,39.4,18.2a5.28,5.28,0,0,0-2.784-2.81c0-.047.012-.092.017-.138a.406.406,0,0,0-.8-.157c-.1-.031-.194-.069-.294-.09a.41.41,0,0,0-.47.332,11.053,11.053,0,0,0,.028,4.1,4.147,4.147,0,0,0,.24,1.463.268.268,0,0,0,.133.138,40.48,40.48,0,0,0,2.317,5.7c.007.083,0,.171.012.254a.319.319,0,0,0,.6.1,6.489,6.489,0,0,0,.524-1.262c1.854-3.042,4.354-6.049,4.69-9.722a.394.394,0,0,0-.519-.432m-6.206,1.406c-.173.806-.344,1.612-.541,2.414-.045.2-.107.394-.173.593-.024-.085-.059-.168-.085-.251.059-.534.076-1.077.135-1.6.071-.65.171-1.3.263-1.947.2.133.413.311.635.5a.391.391,0,0,0-.235.294m.045,5.075c-.064-.164-.133-.327-.2-.491A6.475,6.475,0,0,0,37.268,20c.2-.847.325-1.712.443-2.573.138.18.256.379.377.571a15.718,15.718,0,0,0-1.15,4.159M42.112,18.5l.014-.04c.159-.472-.541-.816-.714-.334-.126.341-.27.681-.408,1.02a.45.45,0,0,0-.6.216c-.334.666-.742,1.418-1.143,2.205.142-.562.275-1.122.422-1.681a.442.442,0,0,0,.588-.277c.491-1.4,1.088-2.525,2.457-3.019a11.3,11.3,0,0,1-.619,1.911" transform="translate(47.849 20.278)" fill="#42110f" fill-rule="evenodd"/>
    <path id="Path_51" data-name="Path 51" d="M38.289,32.7a5.248,5.248,0,0,0-2.974,3.315c-.363-1.427-2.051-2.891-3.284-1.947-1.2.92-1.117,2.653-.7,3.913a11.582,11.582,0,0,0,.711,1.634c0,.088-.009.173,0,.261a.19.19,0,0,0,.225.161c.218.408.439.813.657,1.224,0,.059-.012.116-.007.175,0,.081.078.1.145.085a13.209,13.209,0,0,1,.754,1.672.4.4,0,0,0,.761-.175,4.861,4.861,0,0,0-.149-.673,24.694,24.694,0,0,0,.721-3.773.179.179,0,0,0-.353-.062,32,32,0,0,0-.562,3.291,11.708,11.708,0,0,0-.723-1.456,31.594,31.594,0,0,0,.633-4.1.2.2,0,0,0-.4-.069c-.249,1.1-.534,2.222-.7,3.353-.1-.178-.209-.353-.3-.534a24.706,24.706,0,0,0,.669-4.117,3.971,3.971,0,0,1,.3.292c.344.4.925,1.288.764,1.847-.126.451.545.609.749.237a.9.9,0,0,0,.028-.085.5.5,0,0,0,.837-.228,6.068,6.068,0,0,1,1.8-2.978c-.564,2.943-2.146,5.577-3.317,8.311-.24.557.614.96.854.4,1.361-3.194,3.016-6.042,3.377-9.556.028-.261-.23-.567-.512-.427m-6.12,5.051a5.126,5.126,0,0,1-.313-1.224,2.3,2.3,0,0,1,.873-1.845.307.307,0,0,1,.1-.012c-.225,1-.5,2.039-.662,3.08" transform="translate(42.578 44.793)" fill="#42110f" fill-rule="evenodd"/>
    <path id="Path_52" data-name="Path 52" d="M95.129,22.155a.822.822,0,0,0-.173-.066c-14.647-2.582-29.069-6.291-43.75-8.65-5.589-.9-11.124-2.065-16.71-2.959a25.183,25.183,0,0,0-4.89-.586.43.43,0,0,0-.5.04,4.591,4.591,0,0,0-1.292.349c-.007-.142,0-.289-.017-.429-.045-.633-1-.531-.975.095.085,2.343-.322,4.693-.394,7.033-1.017,4.83-1.605,9.767-2.153,14.707a359.545,359.545,0,0,0-6.327,39.3c-.059.344-.128.688-.183,1.034l-.178-.028a.6.6,0,0,0-.2,1.186c21.137,4,42.4,7.168,63.4,11.882.941.211,1.2-1.264.261-1.473Q71.914,81.57,62.721,79.8a.506.506,0,0,0,.064-.017,53.2,53.2,0,0,0,10.8-8.252c.643.965,1.3,1.916,1.959,2.867a.4.4,0,0,0,.481.138.4.4,0,0,0,.638-.247c.609-2.6,2.091-5.454,3.123-8.33.114-.095.228-.2.339-.292,2.841-2.331,7-5.508,8.764-9.274-1.494,9.53-2.907,19.072-4.479,28.541a.69.69,0,0,0,1.359.235C89.5,64.423,93.5,43.494,96.175,22.585a.584.584,0,0,0-1.046-.429M75.177,64.25c0-.571-.854-.467-.875.085,0,.076,0,.159,0,.237,0-.512,0-1.029.017-1.546,0-.313-.351-.434-.607-.346l.007-.123c0-.607-.92-.505-.934.09-.028,1.219-.159,2.433-.194,3.652a10.019,10.019,0,0,0,.04,1.831c-.1-.154-.206-.306-.306-.465.2-1.055.045-2.2.14-3.277.083-.96.225-1.914.382-2.867a.151.151,0,0,0,.017-.128.884.884,0,0,0,.019-.1,7.775,7.775,0,0,1,2.385,3,.171.171,0,0,0-.033.147,17.341,17.341,0,0,1,.138,3.218c-.078-1.16-.2-2.319-.19-3.4M76.436,65.3c-.111.571-.244,1.216-.365,1.9-.1-.8-.211-1.589-.344-2.343a.414.414,0,0,0,.413-.23.4.4,0,0,0,.507-.36,10.035,10.035,0,0,1,.168-1.333c-.028.718-.059,1.437-.083,2.158a.254.254,0,0,0-.3.211m2.34.09c-.178.147-.36.3-.538.441,0-.308-.019-.619-.019-.93a26.269,26.269,0,0,1,.166-3.913.207.207,0,0,0-.408-.071c-.123.7-.232,1.409-.325,2.118,0-.285,0-.569,0-.854s-.311-.391-.55-.315c.515-1.162,2.227-4.32,2.632-3.334.028.071.038.147.059.216a.385.385,0,0,0-.567.337c0,.23-.021.458-.031.688a.3.3,0,0,0-.453.2c-.159.927-.235,1.859-.318,2.8a6.109,6.109,0,0,0-.076,2.26.229.229,0,0,0,.387.069,2.044,2.044,0,0,0,.273-.612.172.172,0,0,0,.109-.017c-.116.318-.23.626-.339.918m9.139-9.826C87,57.909,84.821,59.9,83.066,61.623c-.861.847-1.764,1.643-2.684,2.431a9.755,9.755,0,0,0-.159-6.535.428.428,0,0,0-.638-.2,8.016,8.016,0,0,0-3.747,5.945A5.544,5.544,0,0,0,72.858,60.4a.5.5,0,0,0-.5-.133c-1.212-.221-2.352.365-2.8,2.331-.429,1.9,1.164,4.252,2.046,5.791.387.671.818,1.321,1.238,1.973-3.419,3.087-6.571,6.336-10.69,8.52a.466.466,0,0,0-.057.8c-13.99-2.715-28.064-5.084-42.13-7.311a.8.8,0,0,0,.237-.6c-.142-7.979,1.767-15.679,3.313-23.442.306-1.257.6-2.514.847-3.77.225-1.11.434-2.219.65-3.327.927,3.782,3.6,7.576,6.784,11.081a10.361,10.361,0,0,0-.678,3.932,4.435,4.435,0,0,0-3.372-1.93,3.05,3.05,0,0,0-3.18,3.3c.021,3.946,4.6,6.682,8.212,8.681l.024.014c.548.3,1.077.59,1.56.863a2.638,2.638,0,0,0,.05.588c.059.28.47.524.673.211.066-.1.121-.232.183-.346a.542.542,0,0,0,.379-.858,38.441,38.441,0,0,0,1.069-6.054c.171-.97.353-2,.5-3.035,2.393,2.184,4.716,4.14,6.549,5.76-.1.211-.192.427-.289.638a.551.551,0,0,0,1,.472c.05-.111.1-.23.149-.344.154.14.306.282.451.415.515.474,1.2-.349.7-.828-.225-.216-.453-.427-.683-.643,1.413-3.2,2.634-6.464,3.8-9.758.076.46.157.92.232,1.38-.083.244-.178.491-.254.733-.062.209.249.327.375.173l.014-.024.021.14c-.069.1-.138.2-.2.306-.123.194-.036.557.261.5a.476.476,0,0,0,.055-.017c.062.429.114.856.168,1.283-.071.2-.147.389-.209.588s.13.332.313.318c.047.479.1.96.123,1.437-.036.024-.076.047-.116.074-.51.315-.085,1.015.417.918a.513.513,0,0,0,.7-.377A72.063,72.063,0,0,0,60.89,53.963a95.16,95.16,0,0,0,2.388,22.52c.121.507.946.3.88-.2C63.117,68.473,61.772,60.85,61.967,53a20.122,20.122,0,0,0,3.083-3.687c.963-1.506,1.029-3.9-.854-4.626a3.2,3.2,0,0,0-.818-.185c1.382-3.308,3.853-5.577,7.043-1.167,2.205,3.059,2.665,7.3,2.061,10.905a.425.425,0,0,0,.837.142c.017-.1.038-.206.052-.327A.3.3,0,0,0,73.588,54a24.052,24.052,0,0,1,7.837-4.306c4.055-1.4,8.344,1.152,6.49,5.876m-17.149,9.1a3.1,3.1,0,0,1,.2-3.054,17.109,17.109,0,0,0-.183,1.88c-.007.372-.036.775-.021,1.174M41.953,31.614c.944-1.138,1.423-3.621,2.144-4.925,2.317-4.195,10.92-10.441,11.807-.977.275,2.936-.754,6.17-1.527,8.968-.078.266-.154.534-.232.8a2.185,2.185,0,0,0-2.068-.028c-2.929,1.3-3.661,5.594-3.929,8.4a21.236,21.236,0,0,0-.052,3.083c-.109.273-.239.543-.339.818a.173.173,0,0,0,.287.187c.033-.036.059-.071.09-.107.055.761.145,1.522.249,2.284-.033.09-.071.185-.1.282-.043.142.057.232.178.263.059.415.116.83.18,1.243-1.378,3.562-2.848,7.076-4.387,10.462-2.3-2.16-4.607-4.294-6.841-6.5a12.885,12.885,0,0,0-.4-4.643,2.3,2.3,0,0,0-3.818-1.06,4.2,4.2,0,0,0-.555.6c-.557-.638-1.133-1.262-1.669-1.93a23.249,23.249,0,0,1-4.946-9.962,9.516,9.516,0,0,1-.192-1.828q.281-1.465.56-2.933c2.224-5.16,10.493-5.665,14.27-.382a.557.557,0,0,0,1-.223c.1-.647.211-1.266.292-1.885M56.243,54.459a.254.254,0,0,0,.4.024,5.875,5.875,0,0,0,.688-.849,5.871,5.871,0,0,0-.18.8.345.345,0,0,0,.6.28,5.955,5.955,0,0,0,.74-1.131,7.668,7.668,0,0,0-.209.858c-1.16.889-2.338,1.75-3.55,2.57.538-.818,1.039-1.676,1.518-2.556m.5-3.417c.571-1.259,1.117-2.53,1.679-3.789a.392.392,0,0,0,.038-.18,17.947,17.947,0,0,1,2.229-.967.477.477,0,0,0-.145.194q-.306.683-.612,1.368a.425.425,0,0,0-.64.088c-.138.192-.266.4-.394.6a.454.454,0,0,0-.811.036c-.4.9-.861,1.781-1.344,2.651m-5.919,7.6a.225.225,0,0,0,.375.239c.107-.114.2-.242.306-.358a.29.29,0,0,0,.451.232,4.407,4.407,0,0,0,1.382-1.273l-.043.1a.443.443,0,0,0,.038.372q-1.284.836-2.58,1.643c-.038-.6-.1-1.2-.166-1.807A35.614,35.614,0,0,0,53.7,52.318c1.024-1.982,1.959-4.01,2.848-6.054a15.214,15.214,0,0,1-.216,1.861A66.934,66.934,0,0,0,50.82,58.644M53.888,44.8c.59-1.622,1.133-3.23,1.781-4.593.055.154.109.306.159.455.069.216.107.443.168.664-.7,1.129-1.409,2.288-2.108,3.474M55,39.643c-1.11,2.072-2.006,4.226-2.91,6.4-.64,1.539-1.494,3-2.217,4.508q.6-1.746,1.2-3.5c1.278-2.487,2.212-5.288,3.291-7.669a.346.346,0,0,0-.384-.477c.159-.427.315-.847.467-1.285a7.7,7.7,0,0,1,.93,1.8.41.41,0,0,0-.382.223m-2.442-2.205c-1.041,2.4-2.314,4.724-3.436,7.1.007-.2.009-.394.021-.588,1.449-2.1,2.253-4.93,3.177-7.258a1.485,1.485,0,0,1,1.416.185c-.531,1.819-1.117,3.647-1.712,5.475-1,1.814-2.011,3.659-2.815,5.535-.036-.439-.071-.873-.088-1.307a35.2,35.2,0,0,0,4.126-8.816c.164-.458-.493-.787-.69-.327M36.068,56.605c.064.064.13.128.2.192-.152,1.589-.415,3.166-.711,4.735-.031-.588-.095-1.183-.175-1.781a.361.361,0,0,0,.092-.138,7,7,0,0,0,.23-1.1.3.3,0,0,0,.337-.239,4.768,4.768,0,0,0,.031-1.674M36.4,52.92c-.251-.723-.541-1.427-.8-2.087a.4.4,0,0,0-.5-.247c-.019-.154-.045-.306-.062-.462a.408.408,0,0,0-.078-.187c.96.221,1.4,2.6,1.442,2.969v.014m-6.523,5.487c.249,1.767.432,4.029,1.352,5.655-.273-.178-.555-.346-.825-.529a20.767,20.767,0,0,0-.586-2.872c-.242-1.591-.4-3.2-.6-4.8a6.04,6.04,0,0,1,1.816,2.16.5.5,0,0,0,.488.3c.092,1.345.1,2.834.242,4.285-.1-.32-.2-.638-.282-.958-.294-1.1-.5-2.212-.685-3.332-.1-.581-1.005-.505-.922.09m-.9,4.093c-.387-.3-.773-.6-1.143-.92-.055-.839-.244-1.676-.32-2.516-.059-.676-.09-1.356-.114-2.035.092.764.2,1.527.327,2.286.173.989.289,2.272,1.06,2.981a.268.268,0,0,0,.166.064c.007.047.017.092.024.14M32.2,57.876a.307.307,0,0,0-.268-.273c-.024-.047-.045-.092-.066-.14a.4.4,0,0,0,.18-.349,13.455,13.455,0,0,1,.524-3.981c.033.038.069.074.1.109.038,1.017.114,2.032.192,3.045l-.017-.088c-.076-.441-.759-.387-.7.069.157,1.257.237,2.587.341,3.936-.1-.778-.194-1.551-.289-2.329m1.053-6.412a7.485,7.485,0,0,1,.465-.742,2.745,2.745,0,0,1,.505-.545c0,.012,0,.019,0,.028.019.2.052.408.074.612a.34.34,0,0,0-.282.432c.095.422.157.844.228,1.264-.325-.351-.666-.688-.986-1.048M26.519,60.24c-1.065-1.385-1.731-3.227-.185-4.562a1.581,1.581,0,0,1,.192-.135,21.439,21.439,0,0,0-.007,4.7m63.121-8.582c-1.086-7.017-12.452-2.039-16.2,1.413.071-4.807-2.476-16.741-8.235-13.284a8.106,8.106,0,0,0-3.332,4.84,12.385,12.385,0,0,0-3.747,1.717.525.525,0,0,0-.785.107c0-.581-.021-1.214-.069-1.9.18-.434.377-.861.552-1.3a.561.561,0,0,0-.766-.7c-.04-.3-.076-.6-.126-.894.18-.33.356-.666.543-.986.3-.515-.512-.875-.818-.4a10.186,10.186,0,0,0-1.7-4.088c1.465-4.43,2.516-9.158,1.28-13.592-1.2-4.3-4.913-3.6-8.176-2.018s-5.461,6.078-5.976,8.918c-.083-.3-.607-.306-.638.043a7.957,7.957,0,0,1-.126.913.324.324,0,0,0-.09.121l-.183.662c-.581.83-1.655-1.105-3.087-1.752a10.391,10.391,0,0,0-5.717-.939,7.594,7.594,0,0,0-5.459,3.5c1.186-6.244,2.376-12.485,3.737-18.709.055-.242-.341-.375-.42-.133-1.01,3.021-1.864,6.1-2.63,9.21.4-2.537.773-5.079,1.112-7.624a.307.307,0,0,0-.377-.346c.045-.609.1-1.226.142-1.833a.442.442,0,0,0,.7.014c9,2.777,18.4,3.346,27.677,4.681,12.321,1.778,24.433,5.269,36.683,7.505a.536.536,0,0,0,.185-1.055c-10.77-1.89-21.42-4.392-32.121-6.628C50.886,14.9,39.826,13.887,29.127,12.5a5.857,5.857,0,0,0,.515-1,.44.44,0,0,0,.021-.289c2.969-.123,6.26.783,9.008,1.295,5.8,1.079,11.6,1.959,17.436,2.876,12.971,2.049,25.709,5.61,38.63,7.951.036,0,.062,0,.092,0-2.02,9.357-3.661,18.825-5.191,28.325" transform="translate(23.185 12.925)" fill="#42110f" fill-rule="evenodd"/>
    <path id="Path_53" data-name="Path 53" d="M41.573,19.235c.287,1.89-.045,4.019.5,5.84.066.218.337.138.394-.036.56-1.826.081-4.121-.372-5.928-.074-.3-.567-.178-.522.123" transform="translate(57.003 25.973)" fill="#42110f" fill-rule="evenodd"/>
    <path id="Path_54" data-name="Path 54" d="M42.473,20.139a8.1,8.1,0,0,0,.3,4.754.1.1,0,0,0,.187-.043,18.953,18.953,0,0,1-.213-4.662.141.141,0,0,0-.277-.05" transform="translate(57.955 27.462)" fill="#42110f" fill-rule="evenodd"/>
    <path id="Path_55" data-name="Path 55" d="M42.99,20.091a21.047,21.047,0,0,0,.346,4.034c.031.13.225.074.218-.052-.055-1.333-.282-2.668-.415-4,0-.1-.154-.083-.149.014" transform="translate(58.95 27.437)" fill="#42110f" fill-rule="evenodd"/>
    <path id="Path_56" data-name="Path 56" d="M44.674,17.83c.216,2.734-.2,5.494.156,8.214a.139.139,0,0,0,.275.007,25.071,25.071,0,0,0,.161-8.28.3.3,0,0,0-.593.059" transform="translate(61.257 24.011)" fill="#42110f" fill-rule="evenodd"/>
    <path id="Path_57" data-name="Path 57" d="M45.23,17.3a40.338,40.338,0,0,0,.247,5.378c.024.159.28.185.3.012a40.861,40.861,0,0,0-.026-5.442c-.014-.337-.517-.277-.517.052" transform="translate(62.022 23.336)" fill="#42110f" fill-rule="evenodd"/>
    <path id="Path_58" data-name="Path 58" d="M7.31,11.98A61.111,61.111,0,0,0,7,23.056c.017.166.289.187.3.014.235-3.661.427-7.32.657-10.977.028-.42-.614-.543-.65-.114" transform="translate(9.393 16.06)" fill="#42110f" fill-rule="evenodd"/>
    <path id="Path_59" data-name="Path 59" d="M8.893,11.721A150.929,150.929,0,0,0,7.9,30.551c0,.171.277.178.3.012.771-6.215.609-12.513,1.238-18.747.036-.351-.5-.448-.543-.095" transform="translate(10.824 15.769)" fill="#42110f" fill-rule="evenodd"/>
    <path id="Path_60" data-name="Path 60" d="M13.273,65.412a.272.272,0,0,0,.536.092c.206-.849.389-1.707.583-2.563a.208.208,0,0,0,.19-.223c-.009-.185-.007-.372-.012-.56a184.89,184.89,0,0,0,3.988-33.845c.012-.4-.688-.427-.709-.028-.474,9.4-2.075,18.584-3.4,27.834C14.447,40.77,16.33,25.654,17.219,10.29c.014-.211-.311-.275-.33-.055-1.47,16.473-4.652,33.428-3,50.024-.223,1.712-.432,3.431-.614,5.153" transform="translate(18.198 13.847)" fill="#42110f" fill-rule="evenodd"/>
    <path id="Path_61" data-name="Path 61" d="M17.519,25.7a87.524,87.524,0,0,0,1.9-16.843c.024-.529-.794-.688-.83-.142-.363,5.655-1.257,11.223-1.812,16.855a.378.378,0,0,0,.745.13" transform="translate(22.999 11.487)" fill="#42110f" fill-rule="evenodd"/>
    <path id="Path_62" data-name="Path 62" d="M32.571,10.7a.248.248,0,0,0,.467.083c.624-1.3.315-3.045.211-4.434a.406.406,0,0,0-.809.078c.047.666.09,1.335.107,2a20.116,20.116,0,0,0,.024,2.269" transform="translate(44.483 8.221)" fill="#42110f" fill-rule="evenodd"/>
    <path id="Path_63" data-name="Path 63" d="M112.912,100.11c4.629-27.331,10.766-42.09,14.047-69.6a.516.516,0,0,0-1.017-.175c-.026.119-.047.239-.081.358a.607.607,0,0,0-.2-.123c-.771-.266-1.539-.519-2.314-.759,1.013.047,2.023.092,3.03.107.922.012.783-1.425-.135-1.427a78.821,78.821,0,0,1-12.945-1.245c-2.336-.488-4.683-.918-7.036-1.326-3.592-.733-7.187-1.5-10.846-2.146a.4.4,0,0,0-.415.242c-1.992-.349-3.977-.733-5.959-1.141-.007-.047-.019-.095-.026-.147a.428.428,0,0,0,.266-.548,9.133,9.133,0,0,0-.6-1.145C87.519,15.9,84.9,10.818,83.381,5.862A.226.226,0,0,0,83.2,5.7q-.583-1.86-1.129-3.735a.393.393,0,0,0-.4-.285.312.312,0,0,0-.341-.277.967.967,0,0,0-.856.7c-.017,0-.026-.007-.04-.007-.294.014-.581.045-.875.069A.352.352,0,0,0,79.8,2.1c.1-.085.209-.171.311-.251.047.028.071.074.133.085a.389.389,0,0,0,.422-.536c.166-.135.33-.268.493-.4.384-.311.213-1.1-.37-.986-13.813,2.7-27.111,7.254-40.707,10.818-6.3,1.648-12.61,3.208-18.868,5.01-4.835,1.394-12,2.891-16.66,5.9-1.136.121-2.274.213-3.41.239a.435.435,0,0,0-.273.1.364.364,0,0,0-.379.477c.123.394.237.79.36,1.183a.527.527,0,0,0-.844.474l.019.123a.543.543,0,0,0,.792.405.387.387,0,0,0,.254-.033c.021-.012.043-.019.064-.028,5.2,16.969,5.907,20.7,9.966,37.969.652,2.777,4.287,10.654,7.619,18.434-.1.069,2.924,7.474,2.95,7.619a21.016,21.016,0,0,0,1.058,4.007,49.738,49.738,0,0,0,2.54,7.434.354.354,0,0,0,.681-.156c0-.175-.017-.351-.028-.526.081.292.152.581.237.87a.553.553,0,0,0,1.058-.1c.007-.078.012-.154.019-.235.024,0,.052,0,.078,0a2.069,2.069,0,0,0,.145.244.354.354,0,0,0,.6-.052,1.607,1.607,0,0,0,.078-.249c2.561-.266,5.219-1.468,7.562-2.31,2.9-1.043,6.4-1.914,8.975-3.635,21.062,4.351,42.358,8.565,63.7,10.4a.538.538,0,0,0-.109.173c-.031.09-.064.18-.092.268a.667.667,0,1,0,1.278.228c0-.1,0-.194,0-.292a.518.518,0,0,0-.1-.292c.36.031.718.069,1.077.095a.7.7,0,0,0,.178-.021c-.142.382-.3.759-.429,1.145a.691.691,0,1,0,1.311.413c.531-1.8,1.055-3.649,1.7-5.411a.439.439,0,0,0-.277-.583m-74.8-87.687c6.685-1.71,13.293-3.671,19.916-5.6Q63.1,5.342,68.2,3.984q3.753-.989,7.538-1.835a18.234,18.234,0,0,1,3.5-.654.425.425,0,0,0,.258.676c-12.447.889-23.936,6.113-35.742,9.77-7.1,2.2-14.332,4.1-21.533,5.921-4.143,1.048-8.387,2.272-12.66,3.113,9.25-3.619,18.9-6.082,28.55-8.551M1.923,24.308c.232-.114.472-.216.709-.33q.309,2.184.718,4.342c-.455-1.34-.941-2.677-1.427-4.012m20.22,59.986a8.285,8.285,0,0,0-.524-2.594c-1.176-2.094-4.863-7.256-6.436-11.287-2.205-5.653-3.27-11.671-4.8-17.528,1.733,5,3.517,9.983,5.129,14.984,3.1,9.6,4.821,6.974,6.858,16.831-.078-.135-.149-.27-.23-.405m2.227,9.755L24.351,94c-.187-.531-.375-1.065-.564-1.593a49.755,49.755,0,0,1-1.295-6.082c.161.37.311.742.467,1.112.526,2.461,1.077,4.918,1.688,7.353-.107-.237-.183-.493-.277-.737m3.54,3.116c-.439-1.411-1.141-2.872-1.432-3.678a55.519,55.519,0,0,0-2.253-5.309,17.1,17.1,0,0,1-2.554-5.622c-.477-1.752-2.212-5.9-3.832-10.253C11.9,56.362,6.5,40.458,3.334,23.653c.583-.273,1.164-.555,1.752-.816,10.737-.8,22.046-5.006,32.121-7.861,14.239-4.036,28.42-10.967,43.325-11.8a.475.475,0,0,0,.46-.377.438.438,0,0,0,.3-.218c1.394,6.061,3.7,11.868,4.83,18,.126.671,1.157.6,1.1-.052.244.707.488,1.413.735,2.113-.837-.178-1.679-.344-2.514-.541q-1.789-.42-3.576-.825a.383.383,0,0,0,.059-.341,19,19,0,0,0-1.174-2.182,26.266,26.266,0,0,1-1.219-3.242c-.628-1.9-1.171-3.853-1.693-5.8.285-.009.571-.036.854-.036.733,0,.617-1.129-.111-1.129-.375,0-.759.031-1.136.04a.361.361,0,0,0-.377.014c-.138,0-.277.017-.415.026a.489.489,0,0,0-.491-.408,4.007,4.007,0,0,0-1.631.557,54.433,54.433,0,0,0-13.213,3.03.408.408,0,0,0-.221.078c-.071.028-.14.059-.213.085a98.975,98.975,0,0,1-11.195,2.314.511.511,0,0,0-.3.154c-1.482-.277-2.959-.569-4.441-.835a.728.728,0,0,0-.247,1.435c.028,0,.059.009.088.017a.494.494,0,0,0-.126.315c-.009.47-.036.937-.052,1.406-.147.057-.3.109-.451.166-.007-.346-.007-.692-.021-1.036s-.593-.375-.621-.024c-.033.448-.083.9-.13,1.347-3.673,1.28-7.6,1.861-11.119,3.46A109.98,109.98,0,0,0,15.02,25.5c0-.114,0-.232,0-.346,0-.389-.643-.41-.683-.026-.024.223-.033.455-.055.678-.73.3-1.465.581-2.184.908a.571.571,0,0,0-.745.349c-.173.083-.349.159-.519.242-.562.277-.247,1.193.346.927.109-.045.221-.083.332-.13,2.521,10.545,6.049,20.782,9.561,31.023-.009.275-.017.55-.024.828,0,.121.2.128.213.009.007-.076.012-.147.021-.218q.729,2.131,1.451,4.268c.107,1.169.237,2.338.427,3.5a.26.26,0,0,0,.517-.05c-.014-.237-.007-.474-.019-.709q.96,2.86,1.878,5.738c0,.024,0,.05.007.076s.028.05.043.078c1.3,4.05,2.528,8.122,3.614,12.236a.488.488,0,0,0,.157.251,5.5,5.5,0,0,1-.956.273.488.488,0,0,0,.095.97,7.115,7.115,0,0,0,2.732-.93,7.088,7.088,0,0,0,1.226-.716c-.88,5.852-.36,3.073-.868,4.465-.522.206-.6,1.824.083,1.966,3.386.695,4.923,1.155,8.323,1.861a24.586,24.586,0,0,0-6.047,1.508,33.253,33.253,0,0,0-6.035,2.637M76.4,16.058a24.811,24.811,0,0,0-.083-3.87.365.365,0,0,0-.726.071,26.119,26.119,0,0,1-.095,4.176,9.375,9.375,0,0,0-.014,3.353.219.219,0,0,0,.064.085c-.545-.116-1.091-.239-1.631-.36,1.1-2.824,1.131-6.208,1.506-9.17a.21.21,0,0,0-.413-.074c-.643,2.907-1.755,6.094-1.679,9.117l-1.212-.266c.768-1.311.7-3.035.794-4.52.095-1.463.05-2.929.074-4.4,0-.017-.012-.021-.014-.033.026,0,.059-.009.088-.012a.459.459,0,0,0,.688.225,8.829,8.829,0,0,1,.783-.417c.844-.1,1.684-.183,2.528-.223a50.1,50.1,0,0,0,1.631,6.741c.387,1.2.979,3.533,2.127,4.546-1.662-.384-3.329-.74-5-1.1a.235.235,0,0,0,.152-.126,12.892,12.892,0,0,0,.432-3.751m-6.376-1.069a7.39,7.39,0,0,0-.057,3.5.286.286,0,0,0,.522.024,10.862,10.862,0,0,0,.519-3.348c.164-1.473.379-2.943.574-4.411A.33.33,0,0,0,71.4,10.4c.351-.062.7-.1,1.053-.157-.116,1.4-.294,2.8-.432,4.2-.147,1.484-.638,3.1-.339,4.579-.82-.178-1.634-.368-2.457-.538a75.879,75.879,0,0,0,.9-7.877c.27-.055.545-.083.816-.135-.036.045-.083.076-.1.145-.308,1.451-.6,2.9-.818,4.368M64.2,17.419c-.394-.081-.787-.168-1.181-.249a18.063,18.063,0,0,0,.164-4.019c0-.059-.036-.083-.055-.123a45.928,45.928,0,0,0,6.051-2.056.307.307,0,0,0,.171-.209.435.435,0,0,1,.076-.017,31.993,31.993,0,0,0-1.28,7.51c-1.017-.216-2.037-.436-3.054-.65a12.785,12.785,0,0,0,.152-3.749.317.317,0,0,0-.631.059,30.5,30.5,0,0,1-.413,3.5m-2.611-2.338c.059-.555.078-1.112.085-1.672.325-.078.647-.164.97-.247,0,.014-.017.024-.014.043a19.686,19.686,0,0,1-.258,2.767c-.052.341-.123.683-.183,1.022-.306-.064-.612-.13-.918-.192a5.927,5.927,0,0,0,.318-1.722m-1.152,1.546c-.268-.055-.534-.114-.8-.168.13-.861.126-1.764.23-2.632.315-.066.631-.145.946-.218-.038.439-.071.875-.14,1.314a8.2,8.2,0,0,0-.235,1.7m-1.361-.285-.69-.145a12.585,12.585,0,0,1,.13-2.068l.171-.064c.187-.038.375-.071.564-.111a5.839,5.839,0,0,0-.175,2.388m-1.748-.363c-.7-.14-1.4-.294-2.1-.432q1.152-.534,2.333-1.031a12.31,12.31,0,0,0-.237,1.463m-12.85,3.135q-.235,3.375-.707,6.7c.235-2.2.375-4.408.4-6.625.1-.028.206-.05.306-.078M29.451,59.234c-.273,5.781-1.5,11.671-1.406,17.486q-1.007-3.326-2.077-6.63c-.078-15.8.718-31.308,1.864-47.081.564-.133,1.131-.258,1.693-.389a.355.355,0,0,0,.5.119c.249-.154.515-.273.773-.413,4.124-.937,8.266-1.824,12.38-2.879C42.237,28.953,40.5,38.44,38.7,47.935c.507-7.256.711-14.536.856-21.749.007-.432-.737-.46-.759-.028-.562,11.626-1.269,23.155-2.5,34.675-.5,2.781-.984,5.565-1.423,8.349-.79,4.728-1.506,9.471-2.22,14.218a3.376,3.376,0,0,0-1.209.6c-.375.251-.766.491-1.167.709a.725.725,0,0,0-.014-.223c-.282-1.058-.6-2.1-.9-3.156-.557-8.29.59-16.352,1.017-24.656.567-10.92.93-21.854,1.61-32.768.021-.356-.517-.46-.553-.1-1.145,11.79-1.432,23.6-1.992,35.429m-6.955.434q-.47-1.387-.941-2.772c.832-9.343.806-18.785,1.318-28.142.017-.292-.434-.379-.455-.078-.662,8.994-1.01,18.038-1.257,27.061-2.367-6.957-4.716-13.917-6.749-20.979a26.432,26.432,0,0,0,.617-8.027,107.6,107.6,0,0,1,12.328-3.607,181.954,181.954,0,0,0-2.291,44.191q-.751-2.269-1.513-4.534c-.038-11.873,2.006-23.513,2.139-35.41,0-.413-.617-.339-.628.062C24.716,38.051,22.314,48.95,22.5,59.668M13.843,32.659c-.458-1.65-.922-3.3-1.342-4.963.555-.23,1.119-.424,1.679-.64q-.242,2.8-.337,5.6M36.247,96.2c-2.625.982-5.338,1.662-7.986,2.523-.019-.183-.059-.377-.1-.574,4.323-2.2,8.823-3.2,13.632-4.15-1.895.626-3.77,1.537-5.546,2.2m74.844,7.045a.655.655,0,0,0-.4-.185c-26.821-2.559-52.836-9.231-79.409-13.236.47-2.44.88-5.255,1.3-7.894-.012,2.091.012,4.178.116,6.27.045.9,1.439.764,1.387-.135-.749-13.386,2.326-13.988,3.87-27.227.28-1.52.562-3.035.868-4.548,2.729-13.578,7.614-26.978,6.768-41.006a.475.475,0,0,0-.021-.088c3.958.688,7.906,1.432,11.849,2.2a1.532,1.532,0,0,0,.529.884.287.287,0,0,0,.439-.1,1.623,1.623,0,0,0,.114-.569c1.2.237,2.4.5,3.6.749,0,.033,0,.066,0,.1a.257.257,0,0,0,.484.083.819.819,0,0,1,.033-.081c.536.109,1.067.23,1.605.341v.012a.219.219,0,0,0,.413.074c1.226.254,2.45.524,3.675.785a.333.333,0,0,0,.51.107c4.686,1,9.369,2.018,14.031,3.128,6.4,1.525,12.9,2.549,19.395,3.652a113.776,113.776,0,0,0,13.044,2.516c3.3.756,6.566,1.631,9.789,2.715a.712.712,0,0,0,.562-.036c-6.184,27.412-9.623,43.048-14.647,70.692a.661.661,0,0,0,.168.6,1.758,1.758,0,0,1-.066.187" transform="translate(0 0)" fill="#42110f" fill-rule="evenodd"/>
    <path id="Path_64" data-name="Path 64" d="M17.173,30.221a109.516,109.516,0,0,0-1.755,14.363c0,.145.209.19.23.04.671-4.776,1.088-9.587,1.807-14.351a.144.144,0,0,0-.282-.052" transform="translate(21.142 41.284)" fill="#42110f" fill-rule="evenodd"/>
    <path id="Path_65" data-name="Path 65" d="M47.324,42.943a.2.2,0,0,0,.066-.382c-2.708-1.034-5.912-1.032-8.776-1.269a.293.293,0,0,0-.1.576,33.029,33.029,0,0,0,8.812,1.074" transform="translate(52.494 56.621)" fill="#42110f" fill-rule="evenodd"/>
  </g>
</svg>
