<?xml version="1.0" encoding="UTF-8"?><svg id="Layer_2" xmlns="http://www.w3.org/2000/svg" viewBox="0 0 90.77 69.55"><defs><style>.cls-1{fill:#fff;}</style></defs><g id="grafika"><path class="cls-1" d="m44.27,56.47c0-4.07,2.24-7.41,5.61-8.91L22.66.58c-.29-.39-.58-.58-.96-.58H1.65c-.68,0-.87.19-.87.58s.19.58.87.58h4.55c.87,0,.97.87.97,3.97v40.29c0,17.44-1.36,21.8-6.1,21.8h-.19c-.68,0-.87.2-.87.58s.19.58.87.58h19.47c.77,0,.97-.29.97-.58,0-.39-.2-.58-.97-.58h-1.26c-7.65,0-10.66-6.2-10.66-22.47V5.32h.1l36.9,63.25c.2.29.39.58.97.58h7.36c-5.45-2.28-9.48-6.55-9.48-12.69Z"/><path class="cls-1" d="m90.77.58c0,.39-.2.58-.87.58h-4.07c-.97,0-1.06.87-1.06,3.97v43.3c0,10.46-5.52,21.12-20.92,21.12-2.76,0-5.49-.42-7.96-1.23-5.75-1.9-10.06-5.94-10.06-11.85,0-3.62,1.98-6.36,4.85-7.56,1.03-.44,2.18-.67,3.39-.67.19,0,.38,0,.56.02.43.02.85.08,1.26.17,3.48.71,6.31,3.45,6.31,7.76,0,5.13-4.17,5.91-4.17,8.72,0,2.32,2.43,3.58,5.72,3.58,5.52,0,6.39-4.07,6.39-7.65V5.13c0-3.1-.1-3.97-.97-3.97h-7.18c-4.75,0-6.1,4.36-6.1,21.8v23.89c-.42-.07-.84-.12-1.26-.14v-23.07c0-16.27-3-22.47-10.56-22.47h-.97c-.68,0-.87-.19-.87-.58s.19-.58.87-.58h46.8c.68,0,.87.19.87.58Z"/></g></svg>