<svg id="Group_22" data-name="Group 22" xmlns="http://www.w3.org/2000/svg" xmlns:xlink="http://www.w3.org/1999/xlink" width="127" height="99.493" viewBox="0 0 127 99.493">
  <defs>
    <clipPath id="clip-path">
      <rect id="Rectangle_16" data-name="Rectangle 16" width="127" height="99.493" fill="none"/>
    </clipPath>
  </defs>
  <g id="Group_21" data-name="Group 21" transform="translate(0 0)" clip-path="url(#clip-path)">
    <path id="Path_102" data-name="Path 102" d="M42.361,57.629c-.541-2.074-3.232-3.651-5.2-2.374a12.49,12.49,0,0,0-3.613,3.755,16.528,16.528,0,0,1,.258-6.533,10.213,10.213,0,0,1,3.536-4.8,7.137,7.137,0,0,0,2.293,2.336c1.874,1.2,4.481,1,4.706-1.4.054.212.1.433.144.671.037.212.383.16.373-.052-.239-5.477-3.875-4.571-7.076-2.135-1.449-2.618.177-5.845,1.993-8.042,3.373-4.081,3.392,2.085,6.2,2.9,3.755,1.085,5.433-5.269,3.663-8.813,1.735-.379,3.251-2.572,4.136-4.669a3.83,3.83,0,0,0,1.735,0c.26-.062.146-.441-.11-.394a2.31,2.31,0,0,1-2.83-2.832c.389-1.816,2.386-2.255,3.919-1.774a6.357,6.357,0,0,1,2.532,1.93,4.517,4.517,0,0,0-.777,4.5.314.314,0,0,0,.375.212c2.73-.718,2.588-2.78,1.374-4.567.425-.475.918-.945,1.451-1.451a.186.186,0,0,0-.181-.31A4.77,4.77,0,0,0,59.5,24.889a6.568,6.568,0,0,0-3.7-2.3,3.471,3.471,0,0,0-4.044,3.28,2.38,2.38,0,0,0,1.537,2.443c-.387.493-.758,1-1.108,1.514L50.959,31.4a12.063,12.063,0,0,0-2.934-.042,3.581,3.581,0,0,0-1.083-.408c-.316-.062-.721.3-.475.618a3.7,3.7,0,0,0,2.311,1.6c.062.04.115.079.181.119.977,1.526.72,3.759.275,5.393-.7,2.57-3.446,3.369-4.769.945-.371-.675-.648-1.4-1.041-2.064-1.793-3.038-5.293,2.4-6.052,3.671a6.153,6.153,0,0,0-.117,6.285,16.175,16.175,0,0,0-4.023,4.719c-.685,1.414-.848,4.773-.271,7.753-3.219,5.927-2.944,14.412,2.9,17.913.406.244.758-.373.367-.627-4.9-3.186-5.046-8.405-3.713-13.521a22.68,22.68,0,0,1,.814-2.257c.893,2.949,2.663,5.021,5.575,3.43s4.311-4.025,3.459-7.3m16.43-28.2a4.011,4.011,0,0,1,.752-3.33c.885,1.366,1.066,2.828-.752,3.33m-14.633,18.6c-.2-.063-.452.019-.433.281.244,3.34-3.909,1.02-4.985.012a5.214,5.214,0,0,1-.856-1.043c2.409-1.693,5.168-2.2,6.274.75m-10.05,13.13c-.1-.273-.183-.556-.262-.843.017-.035.031-.073.05-.11q1.639-4.369,7.468-3.107c3.428,4.788-5.164,9.829-7.257,4.059" transform="translate(28.552 20.837)" fill="#42110f" fill-rule="evenodd"/>
    <path id="Path_103" data-name="Path 103" d="M41.7,50.46c.829-4.852-3.942-10.366-8.35-12.357h0a8.321,8.321,0,0,0-7.418-7.149c-.225-5.856-5.937-8.977-11.106-9.962a.423.423,0,0,0-.225.816c3.476.981,7.522,2.353,9.458,5.656a8.282,8.282,0,0,1,.925,3.521,5.524,5.524,0,0,0-2.8,1.116.471.471,0,0,0-.094.718c2.134,2.742,3.707,1.653,3.836-1.135a4.544,4.544,0,0,1,.916-.056c2.48.441,4.217,3.136,5.071,5.279a5.9,5.9,0,0,1,.279.933c-2.291-.441-5.137.244-4.623,3.215.36,2.089,4.286,1.737,5.119.206a5.5,5.5,0,0,0,.666-2.476c3.592,2.174,8.071,6.57,7.472,11.095-2.434-1.468-5.408-2.141-5.964.81-.421,2.247,1.57,6.2,4.256,3.986a7.065,7.065,0,0,0,2.443-3.6c.148.142.294.264.444.429,1.435,1.214,2.02,3.219,2.5,4.948,1.466,5.344.235,11.576-.5,16.953-.056.392.535.569.6.167C45.735,66.8,47.177,59.225,43.99,52.8A7.718,7.718,0,0,0,41.7,50.46M23.325,32.918c-.493-.481.612-.866,1.718-1.089.19,1.17-.377,1.535-1.718,1.089m8.944,7.155a1.953,1.953,0,0,1-2.149,1.547l-1.737-1.591a3.725,3.725,0,0,1,3.9-1.731,5.555,5.555,0,0,1-.01,1.776m6.941,13.359q-1.729-.4-3.457-.791c1.531-2.666,3.194-3.388,4.981-2.23a7.1,7.1,0,0,1-1.524,3.02" transform="translate(13.207 19.386)" fill="#42110f" fill-rule="evenodd"/>
    <path id="Path_104" data-name="Path 104" d="M36.417,31.023a.469.469,0,0,0-.9,0c-.916,3.305-4.483,5.858-6.368,1.374-1.431-3.4,2.457-6.054,5.169-6.936.623-.2,1.756-.227,2.189-.852,1.978-2.865.031-8.538-1.368-11.268-.277-.541-1.077-.065-.812.473a19.63,19.63,0,0,1,1.835,8.207c.094,2.7-1.756,2.241-3.215,2.917-2.538,1.179-4.369,2.77-4.914,5.593-.479,2.476,2.291,6.7,5.193,5.423.993-.433,3.074-2.032,2.74-3.159.758,2.559,1.776,10.681-3.1,10.537A8.078,8.078,0,0,0,30.7,43.9c-4.875,1.341,2.257,10.928,3.782,12.161.352.287.858-.194.508-.508-.441-.391-7.765-10.766-3.625-10.766a15.519,15.519,0,0,0,3.446-.664c4.433-1.162,2.361-10.552,1.606-13.1" transform="translate(25.852 12.105)" fill="#42110f" fill-rule="evenodd"/>
    <path id="Path_105" data-name="Path 105" d="M74.463,31.155a.35.35,0,0,0-.185-.675c-19.548,3.84-34.445,20.506-38.144,39.7-.081.419.546.6.65.177,5-20.358,18.132-32.736,37.679-39.2" transform="translate(33.376 28.152)" fill="#42110f" fill-rule="evenodd"/>
    <path id="Path_106" data-name="Path 106" d="M45.769,15.2a.278.278,0,0,0-.065.5,1.965,1.965,0,0,0,.868.308C40.309,24.761,36.192,36.083,33.65,46.237a.177.177,0,0,0,.341.092c2.336-5.952,4.371-11.99,6.951-17.846a137.136,137.136,0,0,1,6.73-12.474c.212-.027.419-.063.606-.1a4.5,4.5,0,0,0,2.478-1.7c.323-.4-.225-.981-.579-.579A4.2,4.2,0,0,1,48.3,14.89c.275-.489.548-.977.818-1.47.119-.221-.187-.485-.36-.279-.519.625-1.022,1.27-1.514,1.928a4.741,4.741,0,0,0-1.479.127" transform="translate(31.082 12.072)" fill="#42110f" fill-rule="evenodd"/>
    <path id="Path_107" data-name="Path 107" d="M34.754,42.56c-.5-9.748-7.559-21.845-15.264-27.732-.333-.252-.662.267-.421.546C25.844,23.234,33,31.775,34.081,42.56c.04.423.7.441.673,0" transform="translate(17.541 13.636)" fill="#42110f" fill-rule="evenodd"/>
    <path id="Path_108" data-name="Path 108" d="M23.018,17.3c.342-.221.664-.469.985-.72a3.638,3.638,0,0,1,.954-.389c.012.133.035.267.048.4q-.554.929-1.008,1.9c-.117-.179-.235-.367-.354-.546a.306.306,0,0,0-.527.31c.169.362.352.718.531,1.075a.324.324,0,0,0,.137.283c2.5,4.989,5.529,9.646,6.789,15.187.062.271.45.152.408-.112-.875-5.448-3.507-10.752-6.487-15.427.329-.439.648-.887.956-1.349a.483.483,0,0,0,.5-.544c-.01-.071-.015-.142-.023-.215.19-.306.385-.61.569-.922a3.29,3.29,0,0,1,1.156.675c.339.3,1.006.019.82-.479a13.7,13.7,0,0,0-.941-1.968c.2-.346.4-.695.594-1.037a.509.509,0,0,0-.691-.691c-.239.131-.454.292-.679.441-.375-.589-.768-1.174-1.16-1.762a.434.434,0,0,0-.8.217c.033,1,.035,1.985.071,2.972-.489.41-.983.812-1.491,1.2a6.33,6.33,0,0,0-.97.714.5.5,0,0,0,.61.789" transform="translate(20.563 10.356)" fill="#42110f" fill-rule="evenodd"/>
    <path id="Path_109" data-name="Path 109" d="M17.539,14.458a10.744,10.744,0,0,1,1.093-4.4,6.9,6.9,0,0,1,1.3-1.789c.4-.406.845-.571,1.087-1.091a.242.242,0,0,0-.206-.358C19.478,6.658,18.343,8.58,17.8,9.575a10.444,10.444,0,0,0-1.108,4.883.423.423,0,0,0,.845,0" transform="translate(15.423 6.293)" fill="#42110f" fill-rule="evenodd"/>
    <path id="Path_110" data-name="Path 110" d="M17.881,11.306c-.221.45.429.843.677.4a6.831,6.831,0,0,1,1.864-2.22,2.554,2.554,0,0,1,1.418-.527A4.233,4.233,0,0,0,22.9,8.93a.21.21,0,0,0,.123-.3c-.5-.966-1.843-.6-2.62-.235a6.086,6.086,0,0,0-2.52,2.915" transform="translate(16.478 7.398)" fill="#42110f" fill-rule="evenodd"/>
    <path id="Path_111" data-name="Path 111" d="M18.764,12.623a7.548,7.548,0,0,1,2.945-1.377c1.262-.287,2.174.3,3.2.91a.23.23,0,0,0,.337-.256c-1-3.119-5.333-1.3-6.986.077-.356.3.127.927.5.646" transform="translate(16.758 9.407)" fill="#42110f" fill-rule="evenodd"/>
    <path id="Path_112" data-name="Path 112" d="M21.652,13.319c.739.414,1.285,1.066,2,1.5.219.133.558-.088.456-.35-.668-1.728-2.847-2.455-4.513-2.749-.473-.085-.685.614-.2.733a8.875,8.875,0,0,1,2.257.866" transform="translate(17.666 10.821)" fill="#42110f" fill-rule="evenodd"/>
    <path id="Path_113" data-name="Path 113" d="M18.486,12.622a.38.38,0,0,0-.539.537,20.477,20.477,0,0,1,1.441,1.616c.352.456.635,1.308,1.222,1.46a.277.277,0,0,0,.335-.19c.217-.581-.4-1.2-.743-1.635a18.145,18.145,0,0,0-1.716-1.787" transform="translate(16.48 11.559)" fill="#42110f" fill-rule="evenodd"/>
    <path id="Path_114" data-name="Path 114" d="M17.1,21.026c2.189-1.7,2.066-4.552,1.077-6.886-.181-.431-.923-.117-.756.317a6.351,6.351,0,0,1-.773,6.218c-.2.3.214.535.452.35" transform="translate(15.333 12.874)" fill="#42110f" fill-rule="evenodd"/>
    <path id="Path_115" data-name="Path 115" d="M15.876,16.176a3.048,3.048,0,0,0,1.554-1.451c.252-.481-.462-.9-.727-.425a2.309,2.309,0,0,1-1.366,1.122,5.341,5.341,0,0,0-1.476.421.248.248,0,0,0,0,.423,2.307,2.307,0,0,0,2.014-.09" transform="translate(12.697 13.018)" fill="#42110f" fill-rule="evenodd"/>
    <path id="Path_116" data-name="Path 116" d="M16.109,13.283c.448-.227.056-.854-.387-.662a3.556,3.556,0,0,1-1.618.325c-.55-.025-1-.4-1.526-.5a.206.206,0,0,0-.248.25c.4,1.616,2.745,1.108,3.778.585" transform="translate(11.385 11.497)" fill="#42110f" fill-rule="evenodd"/>
    <path id="Path_117" data-name="Path 117" d="M14.953,13.846c.471.158.65-.56.2-.733-1.857-.721-2.2-2.272-2.588-4.029a.3.3,0,0,0-.575,0,4.219,4.219,0,0,0,2.961,4.762" transform="translate(11.013 8.195)" fill="#42110f" fill-rule="evenodd"/>
    <path id="Path_118" data-name="Path 118" d="M15.969,13.635a10.2,10.2,0,0,1-1.241-3.415c-.2-1.087.054-2.16-.1-3.234-.031-.215-.31-.19-.41-.056-1.406,1.922-.046,5.354,1.1,7.086.267.4.9.04.652-.381" transform="translate(12.581 6.307)" fill="#42110f" fill-rule="evenodd"/>
    <path id="Path_119" data-name="Path 119" d="M16,10.941a8.993,8.993,0,0,1-.2-2.041,11.636,11.636,0,0,0,.027-1.92c-.029-.189-.283-.173-.369-.048-.785,1.127-.491,2.961-.192,4.211.114.477.839.273.733-.2" transform="translate(13.82 6.318)" fill="#42110f" fill-rule="evenodd"/>
    <path id="Path_120" data-name="Path 120" d="M43.984,19.519c.493.2.848-.65.364-.86a2.315,2.315,0,0,1-.229-.115.484.484,0,0,0,.3.1c1.445-.04,2.951-.639,3.032-2.276a2.866,2.866,0,0,0-2.432-2.688,3.283,3.283,0,0,0-1.195-.012.38.38,0,0,0,.04-.254,8.738,8.738,0,0,1,.088-3.546,16.719,16.719,0,0,1,1.62-3.305.269.269,0,0,0-.364-.367c-2.443,1.318-2.682,5.067-2.084,7.422a.339.339,0,0,0,.133.2,2.509,2.509,0,0,0-1.7,1.985,3.619,3.619,0,0,0,2.426,3.713m.7-3.553c.121-.489.7-.654,1.085-.891a1.77,1.77,0,0,1,.679,1.158c.106.964-.846,1.293-1.655,1.379a3.421,3.421,0,0,1-.11-1.647m-.227-1.339c-1.006.66-.833,2.541-.529,3.65a.51.51,0,0,0,.181.262c-1.872-1.012-2.247-3.9.348-3.911" transform="translate(38.363 5.691)" fill="#42110f" fill-rule="evenodd"/>
    <path id="Path_121" data-name="Path 121" d="M43.905,12.234A10.944,10.944,0,0,1,45.431,8.9c.758-1.079,1.928-1.36,2.886-2.151a.228.228,0,0,0-.1-.379c-1.312-.264-2.543.808-3.33,1.747a9.3,9.3,0,0,0-1.724,3.917.386.386,0,0,0,.745.2" transform="translate(39.864 5.844)" fill="#42110f" fill-rule="evenodd"/>
    <path id="Path_122" data-name="Path 122" d="M45.436,10.467A3.723,3.723,0,0,1,47.9,9.377c.97-.027,1.587.7,2.43,1.01.162.06.3-.117.265-.264a2.6,2.6,0,0,0-2.432-1.68,4.453,4.453,0,0,0-3.305,1.449c-.375.369.19.927.577.575" transform="translate(41.33 7.798)" fill="#42110f" fill-rule="evenodd"/>
    <path id="Path_123" data-name="Path 123" d="M46.241,10.686a4.2,4.2,0,0,1,2.484.918A8.043,8.043,0,0,1,50.3,13.863a.3.3,0,0,0,.562-.152c-.115-2.391-2.4-3.794-4.617-3.755a.366.366,0,0,0,0,.731" transform="translate(42.395 9.197)" fill="#42110f" fill-rule="evenodd"/>
    <path id="Path_124" data-name="Path 124" d="M47.749,16.293a.216.216,0,0,0,.392.052c.9-1.739-.206-3.765-1.456-5-.352-.352-.877.179-.544.544a5.628,5.628,0,0,1,1.239,2.049,19.344,19.344,0,0,1,.369,2.359" transform="translate(42.53 10.37)" fill="#42110f" fill-rule="evenodd"/>
    <path id="Path_125" data-name="Path 125" d="M43.937,18.916c-.106.129-.054.385.152.366,2.888-.277,4.032-3.815,3.159-6.176-.175-.475-.925-.287-.771.212a4.044,4.044,0,0,1-.212,3.172c-.533,1.054-1.6,1.556-2.328,2.426" transform="translate(40.542 11.854)" fill="#42110f" fill-rule="evenodd"/>
    <path id="Path_126" data-name="Path 126" d="M45.368,13.739a7.765,7.765,0,0,1-1.6,2.572c-.575.629-1.524.991-1.953,1.722a.234.234,0,0,0,.2.348c.981.075,1.941-.972,2.54-1.639a7.882,7.882,0,0,0,1.508-2.811c.148-.448-.537-.623-.7-.192" transform="translate(38.605 12.464)" fill="#42110f" fill-rule="evenodd"/>
    <path id="Path_127" data-name="Path 127" d="M42.088,14.449c.546-.1.306-.9-.225-.821a2.027,2.027,0,0,1-1.689-.433,3.979,3.979,0,0,1-.733-1.454c-.115-.242-.427-.131-.508.067a1.99,1.99,0,0,0,.7,2.124,2.825,2.825,0,0,0,2.455.518" transform="translate(35.874 10.719)" fill="#42110f" fill-rule="evenodd"/>
    <path id="Path_128" data-name="Path 128" d="M39.328,9.337a2.725,2.725,0,0,0,.421,2.588,4.274,4.274,0,0,0,2.143,1.628c.431.171.737-.56.316-.748a3.842,3.842,0,0,1-1.674-1.337c-.448-.652-.379-1.487-.791-2.13a.243.243,0,0,0-.416,0" transform="translate(36.154 8.518)" fill="#42110f" fill-rule="evenodd"/>
    <path id="Path_129" data-name="Path 129" d="M14.7,13.563a3.162,3.162,0,0,0,2.645,2.312.392.392,0,0,0,.208-.756,2.665,2.665,0,0,1-1.874-1.431c-.294-.729.215-1.287.87-1.539.748-.292,2.045-.446,2.566.327.489.729-.523,1.21-.958,1.572-.221.187-.023.506.215.523a1.743,1.743,0,0,0,1.7-2.224c-.423-1.435-2.23-1.449-3.4-1.2A2.244,2.244,0,0,0,14.7,13.563" transform="translate(13.553 10.185)" fill="#42110f" fill-rule="evenodd"/>
    <path id="Path_130" data-name="Path 130" d="M9.734,38.876c.183.3.373.593.548.9.275.477,1.131.152.914-.385-.015-.04-.035-.079-.054-.119h0l-.013-.023a20.681,20.681,0,0,0-2.817-4.794l-.281-.356a23.007,23.007,0,0,0,2.18-1.907,9.02,9.02,0,0,1,1.245-.527.481.481,0,0,0-.258-.927l-.023.008a.465.465,0,0,0-.464-.36c-.981-.01-1.96-.058-2.94-.117A10.572,10.572,0,0,0,7.445,28a.392.392,0,0,0-.125-.187c-.056-.248-.092-.494-.156-.745-.106-.429-.841-.475-.912,0-.137.893-.337,1.978-.442,3.055-1.139-.1-2.278-.208-3.417-.327-.471-.052-.562.535-.341.82.914,1.175,1.822,2.386,2.78,3.553A4.425,4.425,0,0,1,4,35.886c-.571.452-1.131.918-1.66,1.424a.512.512,0,0,0,.618.8A6.362,6.362,0,0,0,4.7,36.63c.448-.354.9-.7,1.356-1.043a20.637,20.637,0,0,0,3.675,3.288M7.8,31.269c.6.04,1.2.069,1.8.09-.033.035-.063.073-.1.106a10.969,10.969,0,0,0-1.7,1.154c-.008-.4-.023-.793-.04-1.187a.477.477,0,0,0,.046-.164m-4.338-.4c.412.046.823.092,1.237.133a.464.464,0,0,0-.013.325,5.952,5.952,0,0,1,.258,1.418q-.75-.932-1.481-1.876" transform="translate(1.79 24.691)" fill="#42110f" fill-rule="evenodd"/>
    <path id="Path_131" data-name="Path 131" d="M68.276,29.027c-.885.16-1.768.342-2.647.533a20.053,20.053,0,0,1,.514-2.361c.135-.479-.519-.912-.872-.506a36.5,36.5,0,0,0-2.643,3.536c-.519.112-1.039.217-1.558.325a10.311,10.311,0,0,0-4.85-2.128c-.635-.1-.908.868-.267.97a9.554,9.554,0,0,1,3.732,1.431c-.787.146-1.572.283-2.366.385-.587.077-.618.993,0,.945a33.423,33.423,0,0,0,3.5-.489c.2.164.387.331.573.5a50.615,50.615,0,0,0-2.368,4.488c-.2.427.242,1.045.714.714,1.293-.9,2.6-1.8,3.875-2.745.739.931,1.454,1.9,2.2,2.863v0c.029.035.056.071.081.106.373.479,1.081-.133.814-.627a10.4,10.4,0,0,1-1.174-3.85,24.43,24.43,0,0,0,3.251-3.228.524.524,0,0,0-.506-.868M61.231,35.06c-.131.092-.258.187-.389.279.35-.691.729-1.368,1.112-2.037a.344.344,0,0,0,.108.171q-.436.782-.831,1.587m2.53-1.847c-.065-.077-.137-.148-.2-.223a2.534,2.534,0,0,0,.662-1.031l.01-.017h0c.015-.042.044-.079.056-.121.173-.593-.608-.835-.935-.394-.038.052-.065.11-.1.162a.407.407,0,0,0-.316.06c.108-.158.212-.317.317-.479.4-.09.8-.179,1.2-.271a14.391,14.391,0,0,0,.012,1.753c-.231.19-.462.379-.7.564m1.7-1.412c0-.381.013-.76.044-1.143.5-.112,1-.221,1.5-.325-.493.514-1.01,1-1.541,1.468" transform="translate(51.354 24.512)" fill="#42110f" fill-rule="evenodd"/>
    <path id="Path_132" data-name="Path 132" d="M34.6,24.709c.635-.7,1.308-1.395,1.98-2.1l.012.054c.144.606,1.022.342.92-.252-.042-.231-.067-.464-.094-.695.221-.24.442-.483.658-.729a6.217,6.217,0,0,1,1.8.448c.442.189.983-.214.7-.7-.325-.556-.65-1.106-.973-1.658a14.912,14.912,0,0,0,.972-1.526c.269-.493-.41-1.074-.8-.619-.279.323-.568.631-.866.929a21.4,21.4,0,0,1-1.445-3.147.428.428,0,0,0-.837.114c-.081,1.662-.321,3.323-.331,4.977a5.886,5.886,0,0,1-.569.233,17.305,17.305,0,0,0-2.2.456.519.519,0,0,0,.139,1.016,7.844,7.844,0,0,0,2.3-.473c.125-.017.252-.031.377-.044,0,.069.012.137.019.206a22.618,22.618,0,0,0-2.48,2.955c-.289.433.371.937.72.554m2.817-7.7q.349.782.752,1.539a9.727,9.727,0,0,1-.848.65c.019-.729.058-1.458.1-2.189" transform="translate(30.629 13.318)" fill="#42110f" fill-rule="evenodd"/>
    <path id="Path_133" data-name="Path 133" d="M23.088,24.064c.417.256.972-.262.687-.689-.373-.556-.743-1.116-1.116-1.672.192-.444.377-.889.556-1.327.192-.471-.533-.873-.85-.494-.173.208-.369.387-.554.579-.493-.708-1-1.408-1.541-2.082-.289-.362-.881.029-.754.441.294.966.579,1.933.837,2.909a10.566,10.566,0,0,1-1.191.733,6.4,6.4,0,0,0-1.628.727c-.479.3-.169,1.139.4.937.042-.015.079-.038.121-.052l0,0a12.524,12.524,0,0,0,1.449-.639,4.175,4.175,0,0,1,1.195-.146c-.281.552-.556,1.1-.81,1.668a.43.43,0,0,0,.741.435c.154-.206.287-.429.429-.646.169.516.987.258.893-.314-.048-.3-.114-.6-.173-.9l.031-.058a5.7,5.7,0,0,1,1.279.593" transform="translate(15.98 16.847)" fill="#42110f" fill-rule="evenodd"/>
    <path id="Path_134" data-name="Path 134" d="M7.475,30.3c-.427-.05-.5.633-.1.739,18.386,4.892,38.323,17.915,37.238,39.4-.033.6.891.594.933,0C46.984,50.251,26.462,32.48,7.475,30.3" transform="translate(6.571 27.989)" fill="#42110f" fill-rule="evenodd"/>
    <path id="Path_135" data-name="Path 135" d="M13.058,29.3c4.91,2.838,9.356,5.625,13.4,9.669,3.6,3.6,6.63,7.715,9.944,11.568.283.329.72-.14.466-.466-6.339-8.167-13.348-17.89-23.577-21.328a.306.306,0,0,0-.235.556" transform="translate(11.931 26.541)" fill="#42110f" fill-rule="evenodd"/>
    <path id="Path_136" data-name="Path 136" d="M13.455,34.061a6.211,6.211,0,0,0,.939-1.751q.488.69.92,1.408a.418.418,0,0,0,.72-.423,20.5,20.5,0,0,0-1.339-2.01,12.012,12.012,0,0,0,.233-1.368,8.506,8.506,0,0,1,.883-.233c.548-.094.425-.829,0-.987-.26-.1-.525-.175-.791-.26a16.25,16.25,0,0,0-.069-1.712.511.511,0,0,0-1-.137c-.175.464-.356.935-.548,1.4-.839-.194-1.685-.35-2.536-.494a.479.479,0,0,0-.367.872,12.317,12.317,0,0,1,1.814,1.5A8.782,8.782,0,0,0,9.678,32.32c-.339.477.291.885.708.708a6.176,6.176,0,0,0,2.736-2.334c.152.171.289.352.433.531a16.5,16.5,0,0,0-.7,2.59.351.351,0,0,0,.6.246" transform="translate(8.852 24.232)" fill="#42110f" fill-rule="evenodd"/>
    <path id="Path_137" data-name="Path 137" d="M67.217,42.978a4.722,4.722,0,0,0,1.912,1.227c.554.19.768-.662.239-.864a3.92,3.92,0,0,1-.972-.533.279.279,0,0,0,0-.535c-.2-.027-.4-.044-.6-.065a2.956,2.956,0,0,1-.225-.3,5.662,5.662,0,0,1-.5-2.216.3.3,0,0,0-.55-.071,2.806,2.806,0,0,0,.1,2.491c-12.053-.677-26.78,8.3-28.941,20.347-.1.573.768.825.881.242,2.7-13.661,16.649-17.942,28.66-19.72" transform="translate(34.8 36.464)" fill="#42110f" fill-rule="evenodd"/>
    <path id="Path_138" data-name="Path 138" d="M13.041,40.789a6.975,6.975,0,0,0-2.876-1.2c-.506-.083-.733.668-.217.779a6.123,6.123,0,0,1,2.268,1.025A22.124,22.124,0,0,1,14.132,43.3a.341.341,0,0,0,.568-.329,3.708,3.708,0,0,0-.827-1.429c12.709.25,22.249,8,25.039,20.747.125.569.937.314.854-.237-1.8-12.057-13.946-23.825-26.724-21.259" transform="translate(8.92 36.565)" fill="#42110f" fill-rule="evenodd"/>
    <path id="Path_139" data-name="Path 139" d="M10.7,35.979a.266.266,0,0,0-.252-.333c-.877-.1-1.631,1-1.947,1.7a3.4,3.4,0,0,0,.008,2.682c.192.481.964.294.795-.219a2.76,2.76,0,0,1,.106-2.176c.323-.648,1.072-.979,1.291-1.651" transform="translate(7.604 32.926)" fill="#42110f" fill-rule="evenodd"/>
    <path id="Path_140" data-name="Path 140" d="M10.111,39.863a3,3,0,0,1,.86-2.01c.481-.487,1.131-.481,1.7-.781a.34.34,0,0,0,0-.581,2.3,2.3,0,0,0-2.364.7,3.54,3.54,0,0,0-.964,2.67.383.383,0,0,0,.766,0" transform="translate(8.633 33.594)" fill="#42110f" fill-rule="evenodd"/>
    <path id="Path_141" data-name="Path 141" d="M10.423,39.832a4,4,0,0,1,1.914-.745c.7-.062,1.222.354,1.882.379a.308.308,0,0,0,.262-.458c-.308-.7-1.2-.848-1.9-.883A4.208,4.208,0,0,0,10,39.109c-.423.316-.033,1.031.421.723" transform="translate(9.073 35.22)" fill="#42110f" fill-rule="evenodd"/>
    <path id="Path_142" data-name="Path 142" d="M10.113,41.23c-.466-.3-.872.423-.429.737,2.245,1.589,2.112,4.082.991,6.326a.172.172,0,0,0,.269.208c2.518-2.074,1.691-5.625-.831-7.27" transform="translate(8.771 38.024)" fill="#42110f" fill-rule="evenodd"/>
    <path id="Path_143" data-name="Path 143" d="M10.595,43.154a2.635,2.635,0,0,1-1.316,2.155c-.773.454-1.622.1-2.4.362a.27.27,0,0,0-.117.446c.758.827,2.336.427,3.169-.065a3.18,3.18,0,0,0,1.387-2.9.36.36,0,0,0-.72,0" transform="translate(6.174 39.549)" fill="#42110f" fill-rule="evenodd"/>
    <path id="Path_144" data-name="Path 144" d="M7.979,43.053a12.8,12.8,0,0,1-1.63-.127c-.479-.077-.9-.333-1.368-.416-.244-.046-.544.217-.362.467.72.995,2.28.87,3.359.837a.381.381,0,0,0,0-.762" transform="translate(4.216 39.269)" fill="#42110f" fill-rule="evenodd"/>
    <path id="Path_145" data-name="Path 145" d="M6.595,42.085a2.5,2.5,0,0,1-1.835-.7c-.475-.506-.3-1.345-.787-1.814a.218.218,0,0,0-.306,0c-.587.61-.108,1.824.354,2.38a3.168,3.168,0,0,0,2.574.964.417.417,0,0,0,0-.833" transform="translate(3.136 36.503)" fill="#42110f" fill-rule="evenodd"/>
    <path id="Path_146" data-name="Path 146" d="M6.716,41.658a7.146,7.146,0,0,1-.933-1.835c-.239-.729-.067-1.526-.339-2.222-.065-.169-.308-.291-.45-.119-1.075,1.3.235,3.619,1.054,4.721a.447.447,0,0,0,.454.173c-.381,2.045,1.824,3.53,3.5,4.021a.418.418,0,0,0,.223-.8c-1.376-.466-3.107-1.658-2.718-3.328a2.392,2.392,0,0,1,2.439-1.783A2.722,2.722,0,0,1,11.96,41.7c.508.8-.079,1.41-.743,1.8-.246-.519-.215-1.15-.589-1.633a.24.24,0,0,0-.442.121,3.071,3.071,0,0,0,.512,2.5.491.491,0,0,0,.589.077c1.191-.544,2.209-1.6,1.691-2.988a3.608,3.608,0,0,0-3.03-2.07,3.282,3.282,0,0,0-3.232,2.151" transform="translate(4.239 34.551)" fill="#42110f" fill-rule="evenodd"/>
    <path id="Path_147" data-name="Path 147" d="M7.228,36.677a.21.21,0,0,0-.312-.179c-1.335.633-1.079,2.711-.571,3.784.237.5.952.065.735-.431a2.915,2.915,0,0,1-.152-1.9,5.376,5.376,0,0,0,.3-1.276" transform="translate(5.483 33.698)" fill="#42110f" fill-rule="evenodd"/>
    <path id="Path_148" data-name="Path 148" d="M55.956,39.318a.44.44,0,0,0,.8.339,4.656,4.656,0,0,1,1.5-1.783,5.9,5.9,0,0,1,2.2-.648.267.267,0,0,0,.063-.485c-1.885-.9-3.977.8-4.563,2.578" transform="translate(51.676 33.714)" fill="#42110f" fill-rule="evenodd"/>
    <path id="Path_149" data-name="Path 149" d="M63.068,39.061a.283.283,0,0,0,.244-.423c-1.018-1.562-3.834-1.172-5.3-.612-.548.21-.319,1.095.246.891a6.259,6.259,0,0,1,2.341-.379c.872.023,1.62.506,2.466.523" transform="translate(53.308 34.676)" fill="#42110f" fill-rule="evenodd"/>
    <path id="Path_150" data-name="Path 150" d="M60.425,39.3c-.475-.287-.887.437-.431.737a5.58,5.58,0,0,1,1.841,2,14.782,14.782,0,0,0,.989,2.1c.112.139.331.042.375-.1.573-1.816-1.364-3.89-2.774-4.742" transform="translate(55.243 36.25)" fill="#42110f" fill-rule="evenodd"/>
    <path id="Path_151" data-name="Path 151" d="M59.856,41.314a5.792,5.792,0,0,1,.864,2.037,12.6,12.6,0,0,0,.214,1.812.225.225,0,0,0,.373.1c1.124-1.1.035-3.376-.714-4.381-.321-.431-1.05-.033-.737.431" transform="translate(55.228 37.599)" fill="#42110f" fill-rule="evenodd"/>
    <path id="Path_152" data-name="Path 152" d="M59.872,42.952a3.192,3.192,0,0,1-.256,2.434c-.377.735-1.047,1.241-1.487,1.93-.139.214.092.56.35.456a4.117,4.117,0,0,0,2.141-5.027.389.389,0,0,0-.748.208" transform="translate(53.665 39.24)" fill="#42110f" fill-rule="evenodd"/>
    <path id="Path_153" data-name="Path 153" d="M59.68,44.029a6.946,6.946,0,0,1-2.045,1.639,13.241,13.241,0,0,1-2.374.535.27.27,0,0,0-.065.489c1.77,1.147,4.021-.814,5.035-2.114.3-.383-.214-.931-.55-.548" transform="translate(50.875 40.557)" fill="#42110f" fill-rule="evenodd"/>
    <path id="Path_154" data-name="Path 154" d="M57.912,44.425a7.26,7.26,0,0,1-2.426.341c-.893-.037-1.489-.66-2.309-.8a.293.293,0,0,0-.356.358c.214.831,1.179,1.164,1.941,1.339a6.441,6.441,0,0,0,3.39-.362c.554-.183.325-1.045-.24-.877" transform="translate(48.789 40.614)" fill="#42110f" fill-rule="evenodd"/>
    <path id="Path_155" data-name="Path 155" d="M53.366,41.731a.274.274,0,0,0-.273.073c-.454.583.189,1.368.635,1.766a5.187,5.187,0,0,0,2.214,1.037.464.464,0,0,0,.248-.895,4.611,4.611,0,0,1-1.778-.829c-.4-.329-.556-.981-1.047-1.152" transform="translate(48.907 38.544)" fill="#42110f" fill-rule="evenodd"/>
    <path id="Path_156" data-name="Path 156" d="M54.6,38.556c-.625.337-.558,1.168-.552,1.778a.383.383,0,0,0,.766,0A5.394,5.394,0,0,1,55,38.866a.277.277,0,0,0-.4-.31" transform="translate(49.927 35.59)" fill="#42110f" fill-rule="evenodd"/>
    <path id="Path_157" data-name="Path 157" d="M58.977,42.324a.361.361,0,0,0-.348-.6,2.481,2.481,0,0,0-1.991,2.089c-.012.841.806,1.351,1.5,1.6,1.681.616,4.209.038,4.49-2a3.673,3.673,0,0,0-5.264-3.75,4.524,4.524,0,0,0-2.532,2.893,3.767,3.767,0,0,0,1.61,3.836c.167.135.342.252.518.369.481.321.9-.439.448-.766a3.285,3.285,0,0,1-1.681-3.028,3.382,3.382,0,0,1,1.681-2.243,2.718,2.718,0,0,1,4.265,2.432c-.052,1.435-1.9,1.62-2.965,1.366-.379-.09-.935-.283-1.045-.708-.139-.529,1.037-1.2,1.314-1.5" transform="translate(50.564 36.319)" fill="#42110f" fill-rule="evenodd"/>
    <path id="Path_158" data-name="Path 158" d="M29.973,15.416c-.031.1-.073.185-.1.283a.464.464,0,0,0,.733.471,41.993,41.993,0,0,0,4.011,4.123c.017.175.015.36.044.533.056.3.45.227.541,0l0-.013c.158.133.316.256.473.387-.013.366-.031.733-.027,1.093,0,.19.3.3.385.1.1-.225.171-.464.258-.695.381.3.764.579,1.152.845-.037.05-.073.1-.11.146-.3.408.331.829.673.519.065-.06.127-.127.19-.187a.462.462,0,0,0,.558-.543A46.432,46.432,0,0,0,46.9,10.666c1.143-2.236,3.378-7.239,1.245-9.556C44.5-2.849,38.338,4.777,37.653,8.377a8.43,8.43,0,0,0-.471-.8.39.39,0,0,0-.342-.469C33.983,3.265,27.63.158,25.668,5.726c-1.049,2.98,1.687,6.347,3.355,8.5.306.394.623.793.95,1.191m5.8,4.3c-.06-.056-.123-.108-.183-.164.317-1.3.456-2.68.768-3.957.075-.306.175-.606.258-.912a39.818,39.818,0,0,0-.843,5.033M38.413,8.838A10.627,10.627,0,0,1,42.151,2.93a8.249,8.249,0,0,1,2.172-1.339c-.785.927-1.422,1.97-2.282,2.843a.382.382,0,0,0-.112.258c-1.091,3.653-2.255,7.3-3.365,10.958.475-2.616.685-5.318.993-7.846.042-.346-.556-.427-.61-.083-.1.6-.208,1.191-.312,1.783a.365.365,0,0,0-.546-.1c-.013-.017-.017-.042-.033-.056-.025-.073-.046-.146-.071-.221a.381.381,0,0,0,.427-.291m-.806,11.726a15.939,15.939,0,0,0,1.023-1.687.259.259,0,0,0,.262-.131c1.989-3.478,2.663-7.732,4.144-11.449.2-.5-.6-.7-.8-.217-.071.175-.14.358-.212.537.206-.91.417-1.8.648-2.666a7.722,7.722,0,0,0,2.307-3.567c0-.012,0-.021,0-.035.123-.038.244-.088.369-.123,2.765-.764,2.634,2.588,2.366,4.292-.594,3.8-2.668,7.191-5.042,10.364.439-1.05.829-2.124,1.189-3.213a.267.267,0,0,0,.242-.106,44.848,44.848,0,0,0,2.849-5.5c.2-.406-.4-.766-.612-.358-.519,1.02-1.081,2.035-1.6,3.07.7-2.482,1.3-4.992,1.951-7.416a.366.366,0,0,0-.706-.194C44.2,8.19,42.5,14.058,39.7,19.664c-.566.706-1.124,1.4-1.656,2.093-.331-.291-.656-.587-.985-.885.046-.1.079-.212.123-.316a.257.257,0,0,0,.427.008M36.845,8.8a8.908,8.908,0,0,1,.381.818c-.968,2.62-2.411,5.954-2.634,8.994-.25-.237-.51-.469-.756-.71A16.294,16.294,0,0,0,35.11,14.46c.654-1.855,1.21-3.753,1.735-5.656M35.2,6.553c-.856,2.384-1.8,4.729-2.63,7.124-.16.467-.583,1.393-.289,1.9.269.456.71.05.8-.291a.3.3,0,0,0-.008-.125c.008-.012.017-.019.025-.033a3.729,3.729,0,0,0,.244-.7c.265-.887.56-1.764.856-2.643q.779-2.314,1.524-4.646.28.338.527.693c-.577,1.951-1.224,3.875-1.885,5.8-.337.975-1.062,2.243-1.408,3.407-.631-.637-1.249-1.285-1.843-1.955a34.826,34.826,0,0,0,1.239-3.5l.012-.023v-.01c.339-1.118.664-2.241,1.052-3.346.146-.417-.5-.585-.656-.181-.664,1.758-1.227,3.553-1.9,5.308-.165.314-.316.635-.46.96l0,0c1.314-2.928,1.254-6.757,1.5-9.871a.283.283,0,0,0-.067-.194A9.805,9.805,0,0,1,35.2,6.553M28.452,4.327a17.743,17.743,0,0,0-.737,6.274l-.015-.025c-1.712-2.828-1.591-7.6,2.9-6.732A7.092,7.092,0,0,1,31.5,4.1a.352.352,0,0,0-.312.314c-.189,1.791-.4,3.576-.662,5.36-.187,1.279-.523,2.543-.685,3.823-.508-.639-1-1.291-1.456-1.972a11.785,11.785,0,0,0,.239-2.659A26.5,26.5,0,0,1,29.085,4.5c.083-.41-.525-.587-.633-.175" transform="translate(23.498 0)" fill="#42110f" fill-rule="evenodd"/>
    <path id="Path_159" data-name="Path 159" d="M28.044,9.712a9.775,9.775,0,0,0,.6-3.159A31.452,31.452,0,0,0,28.816,2.8a.389.389,0,0,0-.777,0c-.029,1.1-.125,2.186-.252,3.274a11.706,11.706,0,0,0-.235,3.578.271.271,0,0,0,.493.063" transform="translate(25.379 2.235)" fill="#42110f" fill-rule="evenodd"/>
    <path id="Path_160" data-name="Path 160" d="M12.733,30.976c2.151-.279,5.556-.643,7.4-2.062a.461.461,0,0,0,.4-.606A72.6,72.6,0,0,0,16.289,18c-1.133-2.318-2.538-5.321-5.341-5.922-3.869-.827-.75,8.23.235,10.183-.281.069-.577.154-.885.248a.443.443,0,0,0-.441.148,17.224,17.224,0,0,0-2.409,1c-.029-.033-.058-.063-.085-.1-.3-.341-.75.1-.56.45C4.459,25.4,2.954,27.42,5.521,29.873c1.882,1.8,4.864,1.408,7.213,1.1M10.369,17.112a10.989,10.989,0,0,1-.352-3.055c1.085,1.922,2.232,4.054,3.544,6.041q-1.241-1.518-2.5-3.019c-.267-.321-.687.031-.606.373-.031-.114-.062-.227-.09-.341m.1.366a.391.391,0,0,0,.069.135c1.433,1.781,2.861,3.567,4.252,5.381.481.629.935,1.289,1.4,1.947-.26-.3-.518-.6-.762-.914-.937-1.183-1.843-2.391-2.83-3.538-.3-.346-.783.15-.5.494.258.314.51.646.76.989-.312-.179-.779.146-.531.5,1.387,1.974,2.913,4.752,5.116,5.912.233.121.575-.146.391-.392-.156-.214-.342-.4-.516-.6.15.115.3.24.452.344a.243.243,0,0,0,.35-.285c.169.192.329.392.508.571.235.235.543-.062.427-.331a17.127,17.127,0,0,0-2.47-3.817c.264.26.525.525.8.764a.282.282,0,0,0,.441-.342,51.188,51.188,0,0,0-3.575-5.039c-1.329-1.876-2.568-3.819-3.765-5.781a.326.326,0,0,0-.265-.162c.646-.912,2.665.883,3.109,1.47,2.842,3.763,4.683,8.875,6.1,13.377-1.17.31-2.324.641-3.476.954a.213.213,0,0,0,0-.115,11.826,11.826,0,0,0-1.835-2.978,24.443,24.443,0,0,1-1.947-3.4.538.538,0,0,0-.033-.152.441.441,0,0,0-.008-.431,19.5,19.5,0,0,1-1.668-4.561m1.1,5.647A28.228,28.228,0,0,0,13.4,26.437a10.192,10.192,0,0,0,2.164,2.778c-.323.088-.648.183-.973.262A20.226,20.226,0,0,0,13,26.768c-.675-1.135-1.354-2.268-2.047-3.392.208-.079.41-.167.616-.252m-1.406.55c.7,1.177,1.354,2.374,2.041,3.557.267.467.531.964.825,1.439-.467-.6-1.029-1.162-1.453-1.768A19.692,19.692,0,0,1,9.89,23.938a.3.3,0,0,0-.108-.123c.127-.048.254-.1.381-.14m-.964.362a.28.28,0,0,0,.01.189A21.691,21.691,0,0,0,10.8,27.361c.037.06.083.129.121.192-.246-.237-.481-.469-.687-.7-.695-.791-1.383-1.585-2.074-2.38.342-.16.691-.3,1.043-.435m-1.857.841c.031-.019.063-.031.1-.048.71.895,1.408,1.8,2.132,2.68A10.07,10.07,0,0,0,12.035,30c-.21.029-.417.079-.627.1a.344.344,0,0,0-.006-.289A8.669,8.669,0,0,0,9.4,27.844C8.512,27.03,7.645,26.2,6.783,25.37a.37.37,0,0,0-.127-.083c.256-.162.5-.3.687-.41m-1.27.823a.4.4,0,0,0,.115.265c.833.86,1.668,1.72,2.526,2.559a8.1,8.1,0,0,0,1.972,1.635,12.953,12.953,0,0,1-1.522,0,.3.3,0,0,0,.063-.254c-.16-.758-.993-1.377-1.495-1.937q-.938-1.05-1.941-2.043c.09-.079.185-.154.281-.225m-.831.9c.548.6,1.079,1.214,1.618,1.824A7.391,7.391,0,0,0,8.489,30.1c-.108-.013-.21-.012-.317-.027a3.983,3.983,0,0,1-3.04-2.451,1.189,1.189,0,0,1,.11-1.022" transform="translate(3.862 11.111)" fill="#42110f" fill-rule="evenodd"/>
    <path id="Path_161" data-name="Path 161" d="M8.614,14.165a41.084,41.084,0,0,0,4.146,6.453.218.218,0,0,0,.364-.21c-.816-2.351-2.672-4.444-3.921-6.587a.341.341,0,0,0-.589.344" transform="translate(7.912 12.614)" fill="#42110f" fill-rule="evenodd"/>
    <path id="Path_162" data-name="Path 162" d="M47.333,33.132a.35.35,0,0,0,.648.177c.058-.114.1-.239.154-.352a.543.543,0,0,0,.61.369C53.738,32.518,59,32.01,63.674,29.948c1.939-.854,5.731-2.259,5.629-4.962-.152-4.057-7.68-3-10.6-1.614.995-2.18,2.382-5.029,1.118-7.136-1.314-2.182-3.044-2.905-5.383-1.7-2.4,1.229-3.657,4.15-4.5,6.647-.021.029-.048.052-.069.079a.251.251,0,0,0-.031.223c-.056.169-.114.342-.165.5-1.066,3.34-2.349,7.626-2.339,11.147m18.852-9.6a3.914,3.914,0,0,1,.948.508c-.925.733-1.885,1.422-2.818,2.145a8.843,8.843,0,0,0-2.778,2.751c-.15.312.173.741.512.514.966-.644,1.762-1.572,2.674-2.3,1-.8,2.041-1.57,3.042-2.384a1.7,1.7,0,0,1-.535,1.972c.048-.366-.3-.76-.677-.487a22.546,22.546,0,0,0-3.936,3.015.234.234,0,0,0-.056.135,31.491,31.491,0,0,1-4.538,1.341c.72-.487,1.41-1.025,2.093-1.52,1.541-1.114,3.019-2.318,4.5-3.5.258-.206.083-.585-.173-.687.533-.4,1.066-.8,1.593-1.162a.333.333,0,0,0,.148-.337M50.057,25.057a27.4,27.4,0,0,0,2.843-2.22q2.239-1.861,4.29-3.929a.371.371,0,0,0-.523-.525c-1.26,1.218-2.584,2.353-3.94,3.459-.781.637-1.63,1.243-2.418,1.9A22.913,22.913,0,0,1,50.9,21.4l0-.015c.14-.083.277-.179.414-.271a4.267,4.267,0,0,0-.481.781c-.106.235.123.539.379.379a21.779,21.779,0,0,0,2.817-2.534c1.075-.973,2.164-1.935,3.184-2.97a.374.374,0,0,0,.11-.327c.133-.087.265-.179.4-.264a.358.358,0,0,0-.362-.618A28.53,28.53,0,0,0,53.4,18.2c-.577.452-1.214.9-1.822,1.385.979-2.214,2.57-4.446,4.991-4.737,4.079-.487,2.509,4.8,1.972,6.322-.219.623-.475,1.235-.723,1.849-.013,0-.023-.008-.037-.006a16.051,16.051,0,0,0-4.529,1.462l.214-.175a60.965,60.965,0,0,0,5.006-4.419.443.443,0,0,0-.625-.627c-1.443,1.395-2.97,2.688-4.535,3.942-1.081.868-2.324,1.683-3.39,2.632.044-.258.087-.518.133-.773M55,25.206a.388.388,0,0,0,.225-.314,15.293,15.293,0,0,0,2.311-1.129c-.037.1-.085.206-.119.312a.364.364,0,0,0,.2.477,45.272,45.272,0,0,0-7.37,3.905.417.417,0,0,0,.421.72c3.074-1.789,6.424-2.978,9.515-4.688.356-.194.1-.7-.264-.623-.135.027-.267.071-.4.1A10.014,10.014,0,0,1,63.9,23.12a7.134,7.134,0,0,1,1.71.223c-.4.244-.795.5-1.191.756a.1.1,0,0,0-.125-.037c-.8.277-1.585.6-2.361.937a.157.157,0,0,0-.108-.027c-4.032.816-7.963,3.157-11.789,4.654-.519.2-.3,1.047.233.845,1.158-.441,2.4-.873,3.659-1.324l-.737.394c-.883.452-1.766.9-2.645,1.362-.506.265-.062.995.442.758,3.353-1.578,6.66-3.344,9.877-5.221a.384.384,0,0,0-.046.031c-1.826,1.243-3.83,2.291-5.573,3.638-.242.185-.117.631.223.527A13.364,13.364,0,0,0,57.5,29.8a16,16,0,0,0-1.926,1.429c-2.414.423-4.835.723-7.109,1.093a.643.643,0,0,0-.073.029,23.179,23.179,0,0,0,1.145-4.338c1.857-.868,3.644-1.864,5.462-2.8" transform="translate(43.729 12.893)" fill="#42110f" fill-rule="evenodd"/>
    <path id="Path_163" data-name="Path 163" d="M57.727,31.17c-1.008.3-.787-1.1-1.195-1.595a.276.276,0,0,0-.4,0A1.692,1.692,0,0,0,58,32.177c1.174-.264,2.2-1.647,1.252-2.69a3.966,3.966,0,0,0-5.389-.308,2.676,2.676,0,0,0-.731,2.422,3.808,3.808,0,0,0,.552,1.41C47.415,37.1,41.2,44.822,38.987,51.858c-.139.435.558.743.748.314,3.4-7.7,8.842-12.726,14.5-18.621a.732.732,0,0,0,.756-.013.5.5,0,0,0,.248-.431c-.017-.446-.479-.718-.706-1.075a.394.394,0,0,0-.212-.167,1.667,1.667,0,0,1,.573-2.2,3.035,3.035,0,0,1,3.538.473c.51.429-.321.916-.706,1.029" transform="translate(36.002 26.115)" fill="#42110f" fill-rule="evenodd"/>
    <path id="Path_164" data-name="Path 164" d="M29.038,50.278a.43.43,0,0,0,.741-.435A25.337,25.337,0,0,0,18.441,39.364a.252.252,0,0,0-.256.435c4.152,3.138,8.038,5.995,10.853,10.479" transform="translate(16.692 36.342)" fill="#42110f" fill-rule="evenodd"/>
    <path id="Path_165" data-name="Path 165" d="M17.823,46.818c-.369-.063-.664.464-.273.652,3.551,1.712,7.967,1.47,10.414,5.075.2.3.681.031.491-.289-2.193-3.646-6.674-4.763-10.631-5.439" transform="translate(16.043 43.248)" fill="#42110f" fill-rule="evenodd"/>
    <path id="Path_166" data-name="Path 166" d="M50.308,47.165c-2.057-.308-4.617,1.125-6.316,2.162a8.571,8.571,0,0,0-4.059,5.135.438.438,0,0,0,.845.233,8.65,8.65,0,0,1,4.165-4.765c1.712-1.031,3.763-1.2,5.446-2.147.233-.135.217-.573-.081-.618" transform="translate(36.878 43.535)" fill="#42110f" fill-rule="evenodd"/>
    <path id="Path_167" data-name="Path 167" d="M14.012,46.671c-.795,2.32,1.768,4.488,3.871,4.5a.378.378,0,0,0,0-.756c-1.547-.106-3.246-1.656-2.99-3.313.221-1.435,2.749-2.066,3.79-1.162a2.28,2.28,0,0,1,.364,2.5c-.477,1.062-1.214-.519-1.574-.937a.3.3,0,0,0-.5.208c.135,1.37,1.614,2.986,2.753,1.47a3.209,3.209,0,0,0-.467-4c-1.558-1.356-4.606-.383-5.246,1.487" transform="translate(12.808 41.159)" fill="#42110f" fill-rule="evenodd"/>
    <path id="Path_168" data-name="Path 168" d="M18.8,30.555c1.1,1.062,2.191,2.137,3.246,3.246.275.289.658-.129.427-.425A41.5,41.5,0,0,0,19.459,29.9a12.338,12.338,0,0,0-3.211-2.734c-.246-.114-.581.137-.4.406A19.541,19.541,0,0,0,18.8,30.555" transform="translate(14.592 25.073)" fill="#42110f" fill-rule="evenodd"/>
    <path id="Path_169" data-name="Path 169" d="M37.1,32.5c-.135.354.452.6.612.258C39.977,27.9,43.609,24.3,46.96,20.237a.407.407,0,0,0-.575-.575A32.56,32.56,0,0,0,37.1,32.5" transform="translate(34.259 18.062)" fill="#42110f" fill-rule="evenodd"/>
    <path id="Path_170" data-name="Path 170" d="M45.772,20.27a1.974,1.974,0,0,0-.2,3.107c.935.689,2.3.033,2.972-.708,1.347-1.495,1.326-4.24-.7-5.081a4.744,4.744,0,0,0-4.887,1.037c-1.741,1.728-.342,3.982,1.183,5.256.425.352,1.031-.231.612-.614-1.014-.931-2.253-2.386-1.289-3.761a3.758,3.758,0,0,1,3.3-1.227,1.889,1.889,0,0,1,1.724,2.43,2.16,2.16,0,0,1-1.9,2.024c-1.289.038-.483-1.543-.294-2.159.1-.321-.3-.491-.521-.3" transform="translate(38.945 15.978)" fill="#42110f" fill-rule="evenodd"/>
    <path id="Path_171" data-name="Path 171" d="M30.3,24.722A17.559,17.559,0,0,0,27.58,12.856c-.187-.275-.671-.112-.558.235,1.281,3.957,2.743,7.372,2.857,11.632a.212.212,0,0,0,.423,0" transform="translate(24.949 11.749)" fill="#42110f" fill-rule="evenodd"/>
    <path id="Path_172" data-name="Path 172" d="M36.094,18.674a.4.4,0,0,0,.791,0c.187-3.659,1.651-6.658,2.634-10.1.088-.306-.316-.437-.483-.2a18.125,18.125,0,0,0-2.942,10.3" transform="translate(33.346 7.623)" fill="#42110f" fill-rule="evenodd"/>
    <path id="Path_173" data-name="Path 173" d="M14.317,23.423a.963.963,0,0,0,0,1.926.963.963,0,0,0,0-1.926" transform="translate(12.365 21.64)" fill="#42110f" fill-rule="evenodd"/>
    <path id="Path_174" data-name="Path 174" d="M11.562,22.977a.9.9,0,0,0,0,1.791.9.9,0,0,0,0-1.791" transform="translate(9.882 21.228)" fill="#42110f" fill-rule="evenodd"/>
    <path id="Path_175" data-name="Path 175" d="M11.232,48.3a.877.877,0,0,0,0,1.753.877.877,0,0,0,0-1.753" transform="translate(9.594 44.623)" fill="#42110f" fill-rule="evenodd"/>
    <path id="Path_176" data-name="Path 176" d="M7.463,48.716a.694.694,0,0,0,0,1.387.694.694,0,0,0,0-1.387" transform="translate(6.275 45.007)" fill="#42110f" fill-rule="evenodd"/>
    <path id="Path_177" data-name="Path 177" d="M10.921,46.339a.207.207,0,0,0,0-.414.207.207,0,0,0,0,.414" transform="translate(9.904 42.428)" fill="#42110f" fill-rule="evenodd"/>
    <path id="Path_178" data-name="Path 178" d="M9.169,25.093a.574.574,0,0,0,0-1.147.574.574,0,0,0,0,1.147" transform="translate(7.959 22.123)" fill="#42110f" fill-rule="evenodd"/>
    <path id="Path_179" data-name="Path 179" d="M34.358,23.4c1.124.643,2.064-.3,1.424-1.424-.854-1.493-2.919.571-1.424,1.424" transform="translate(31.254 19.82)" fill="#42110f" fill-rule="evenodd"/>
    <path id="Path_180" data-name="Path 180" d="M35.744,20.6a.53.53,0,0,0,0,1.06.53.53,0,0,0,0-1.06" transform="translate(32.549 19.035)" fill="#42110f" fill-rule="evenodd"/>
    <path id="Path_181" data-name="Path 181" d="M46.917,16.915a.785.785,0,0,0,0-1.57.785.785,0,0,0,0,1.57" transform="translate(42.644 14.177)" fill="#42110f" fill-rule="evenodd"/>
    <path id="Path_182" data-name="Path 182" d="M52,28.033a1.037,1.037,0,0,0,0,2.072,1.649,1.649,0,0,0,.935-.179,1,1,0,0,0,0-1.714A1.649,1.649,0,0,0,52,28.033" transform="translate(47.117 25.895)" fill="#42110f" fill-rule="evenodd"/>
    <path id="Path_183" data-name="Path 183" d="M50.608,28.151a.8.8,0,0,0,0-1.6.8.8,0,0,0,0,1.6" transform="translate(46.041 24.53)" fill="#42110f" fill-rule="evenodd"/>
    <path id="Path_184" data-name="Path 184" d="M51.016,37.657a.3.3,0,0,0,0-.589.295.295,0,0,0,0,.589" transform="translate(46.868 34.246)" fill="#42110f" fill-rule="evenodd"/>
    <path id="Path_185" data-name="Path 185" d="M47.3,46.069l.044-.062a.872.872,0,0,0,0-.916l-.044-.063a1.031,1.031,0,1,0,0,1.041" transform="translate(41.921 41.161)" fill="#42110f" fill-rule="evenodd"/>
    <path id="Path_186" data-name="Path 186" d="M46.78,47.362a.833.833,0,0,0,0,1.666.833.833,0,0,0,0-1.666" transform="translate(42.473 43.756)" fill="#42110f" fill-rule="evenodd"/>
    <path id="Path_187" data-name="Path 187" d="M48.214,45.927a.819.819,0,0,0,0,1.637.819.819,0,0,0,0-1.637" transform="translate(43.812 42.43)" fill="#42110f" fill-rule="evenodd"/>
    <path id="Path_188" data-name="Path 188" d="M51.062,47.41a.741.741,0,0,0,0,1.481.741.741,0,0,0,0-1.481" transform="translate(46.512 43.8)" fill="#42110f" fill-rule="evenodd"/>
    <path id="Path_189" data-name="Path 189" d="M24.293,10.424a1.055,1.055,0,0,0,0-2.109,1.055,1.055,0,0,0,0,2.109" transform="translate(21.501 7.682)" fill="#42110f" fill-rule="evenodd"/>
    <path id="Path_190" data-name="Path 190" d="M22.035,7.946a.68.68,0,0,0,0-1.358.68.68,0,0,0,0,1.358" transform="translate(19.751 6.086)" fill="#42110f" fill-rule="evenodd"/>
    <path id="Path_191" data-name="Path 191" d="M39.388,8.263a.785.785,0,0,0,0-1.57.785.785,0,0,0,0,1.57" transform="translate(35.687 6.183)" fill="#42110f" fill-rule="evenodd"/>
    <path id="Path_192" data-name="Path 192" d="M53.6,25.305a1.041,1.041,0,0,0,0,2.082,1.041,1.041,0,0,0,0-2.082" transform="translate(48.594 23.378)" fill="#42110f" fill-rule="evenodd"/>
    <path id="Path_193" data-name="Path 193" d="M52.385,26.216a.829.829,0,0,0,0,1.656.829.829,0,0,0,0-1.656" transform="translate(47.656 24.22)" fill="#42110f" fill-rule="evenodd"/>
    <path id="Path_194" data-name="Path 194" d="M54.259,29.645a.728.728,0,0,0,0-1.454.728.728,0,0,0,0,1.454" transform="translate(49.479 26.045)" fill="#42110f" fill-rule="evenodd"/>
    <path id="Path_195" data-name="Path 195" d="M56,26.356a.67.67,0,0,0,0-1.339.67.67,0,0,0,0,1.339" transform="translate(51.134 23.112)" fill="#42110f" fill-rule="evenodd"/>
    <path id="Path_196" data-name="Path 196" d="M52.29,38.493a.968.968,0,0,0,0-1.935.968.968,0,0,0,0,1.935" transform="translate(47.443 33.775)" fill="#42110f" fill-rule="evenodd"/>
    <path id="Path_197" data-name="Path 197" d="M50.189,38.5a.93.93,0,0,0,0,1.858.93.93,0,0,0,0-1.858" transform="translate(45.537 35.569)" fill="#42110f" fill-rule="evenodd"/>
    <path id="Path_198" data-name="Path 198" d="M50.241,36.057a.7.7,0,0,0,0,1.4.7.7,0,0,0,0-1.4" transform="translate(45.792 33.312)" fill="#42110f" fill-rule="evenodd"/>
    <path id="Path_199" data-name="Path 199" d="M13.736,36.352a.747.747,0,0,0,0,1.493.747.747,0,0,0,0-1.493" transform="translate(12.022 33.584)" fill="#42110f" fill-rule="evenodd"/>
    <path id="Path_200" data-name="Path 200" d="M6.42,35.511a.515.515,0,0,0,0,1.029.515.515,0,0,0,0-1.029" transform="translate(5.469 32.807)" fill="#42110f" fill-rule="evenodd"/>
    <path id="Path_201" data-name="Path 201" d="M4.572,46.962a.68.68,0,0,0,0,1.358.68.68,0,0,0,0-1.358" transform="translate(3.618 43.386)" fill="#42110f" fill-rule="evenodd"/>
    <path id="Path_202" data-name="Path 202" d="M5.92,45.444a.824.824,0,0,0,0,1.647.824.824,0,0,0,0-1.647" transform="translate(4.734 41.984)" fill="#42110f" fill-rule="evenodd"/>
    <path id="Path_203" data-name="Path 203" d="M23.511,24.654a.752.752,0,0,0,0,1.5.752.752,0,0,0,0-1.5" transform="translate(21.049 22.777)" fill="#42110f" fill-rule="evenodd"/>
    <path id="Path_204" data-name="Path 204" d="M28.023,41.7a1.007,1.007,0,1,0,1.137,1.478A1.016,1.016,0,0,0,28.023,41.7" transform="translate(25.209 38.491)" fill="#42110f" fill-rule="evenodd"/>
    <path id="Path_205" data-name="Path 205" d="M28.638,39.714a.752.752,0,0,0,0,1.5.752.752,0,0,0,0-1.5" transform="translate(25.786 36.69)" fill="#42110f" fill-rule="evenodd"/>
    <path id="Path_206" data-name="Path 206" d="M26.53,41.364a.351.351,0,0,0,0,.7.351.351,0,0,0,0-.7" transform="translate(24.195 38.215)" fill="#42110f" fill-rule="evenodd"/>
    <path id="Path_207" data-name="Path 207" d="M34.152,46.528a.9.9,0,0,0,0,1.791.9.9,0,0,0,0-1.791" transform="translate(30.751 42.985)" fill="#42110f" fill-rule="evenodd"/>
    <path id="Path_208" data-name="Path 208" d="M34.245,48.526a.752.752,0,0,0,0,1.5.752.752,0,0,0,0-1.5" transform="translate(30.966 44.831)" fill="#42110f" fill-rule="evenodd"/>
    <path id="Path_209" data-name="Path 209" d="M40.15,34.773a.7.7,0,0,0,0,1.406.7.7,0,0,0,0-1.406" transform="translate(36.466 32.125)" fill="#42110f" fill-rule="evenodd"/>
    <path id="Path_210" data-name="Path 210" d="M32.767,33.733a.675.675,0,0,0,0-1.349.675.675,0,0,0,0,1.349" transform="translate(29.67 29.918)" fill="#42110f" fill-rule="evenodd"/>
    <path id="Path_211" data-name="Path 211" d="M36.585,39.284v.262a.992.992,0,0,0,1.984,0v-.262a.992.992,0,0,0-1.984,0" transform="translate(33.8 35.406)" fill="#42110f" fill-rule="evenodd"/>
    <path id="Path_212" data-name="Path 212" d="M29.866,27.1a.979.979,0,0,0,0,1.957.979.979,0,0,0,0-1.957" transform="translate(26.717 25.037)" fill="#42110f" fill-rule="evenodd"/>
    <path id="Path_213" data-name="Path 213" d="M28.422,27.741a.631.631,0,0,0,0-1.262.631.631,0,0,0,0,1.262" transform="translate(25.694 24.463)" fill="#42110f" fill-rule="evenodd"/>
    <path id="Path_214" data-name="Path 214" d="M24.083,27.7a.6.6,0,0,0,0-1.2.6.6,0,0,0,0,1.2" transform="translate(21.711 24.477)" fill="#42110f" fill-rule="evenodd"/>
    <path id="Path_215" data-name="Path 215" d="M23.892,2.925a.534.534,0,0,0,0-1.068.534.534,0,0,0,0,1.068" transform="translate(21.594 1.716)" fill="#42110f" fill-rule="evenodd"/>
    <path id="Path_216" data-name="Path 216" d="M21.907,4.361a.747.747,0,0,0,0-1.493.747.747,0,0,0,0,1.493" transform="translate(19.571 2.65)" fill="#42110f" fill-rule="evenodd"/>
    <path id="Path_217" data-name="Path 217" d="M4.087,26.034a.669.669,0,0,0,0-1.337.669.669,0,0,0,0,1.337" transform="translate(3.177 22.817)" fill="#42110f" fill-rule="evenodd"/>
    <path id="Path_218" data-name="Path 218" d="M2.6,23.5a.578.578,0,0,0,0-1.156.578.578,0,0,0,0,1.156" transform="translate(1.888 20.64)" fill="#42110f" fill-rule="evenodd"/>
    <path id="Path_219" data-name="Path 219" d="M51.507,12.917a1.008,1.008,0,0,0,0-2.014,1.008,1.008,0,0,0,0,2.014" transform="translate(46.685 10.073)" fill="#42110f" fill-rule="evenodd"/>
    <path id="Path_220" data-name="Path 220" d="M49.779,10.435a.737.737,0,0,0,0-1.474.737.737,0,0,0,0,1.474" transform="translate(45.331 8.279)" fill="#42110f" fill-rule="evenodd"/>
    <path id="Path_221" data-name="Path 221" d="M49.588,6.81a.67.67,0,0,0,0-1.339.67.67,0,0,0,0,1.339" transform="translate(45.214 5.054)" fill="#42110f" fill-rule="evenodd"/>
    <path id="Path_222" data-name="Path 222" d="M.792,36.955a.82.82,0,0,0,0,1.639.82.82,0,0,0,0-1.639" transform="translate(0 34.141)" fill="#42110f" fill-rule="evenodd"/>
    <path id="Path_223" data-name="Path 223" d="M62.948,34.88a.8.8,0,0,0,0,1.608.8.8,0,0,0,0-1.608" transform="translate(57.436 32.224)" fill="#42110f" fill-rule="evenodd"/>
    <path id="Path_224" data-name="Path 224" d="M63.7,37.343a.689.689,0,0,0,0,1.377.689.689,0,0,0,0-1.377" transform="translate(58.23 34.5)" fill="#42110f" fill-rule="evenodd"/>
    <path id="Path_225" data-name="Path 225" d="M65.982,37.293a.785.785,0,0,0,0,1.57.785.785,0,0,0,0-1.57" transform="translate(60.258 34.454)" fill="#42110f" fill-rule="evenodd"/>
  </g>
</svg>
