<?xml version="1.0" encoding="UTF-8"?><svg id="Layer_2" xmlns="http://www.w3.org/2000/svg" viewBox="0 0 157.63 362.89"><defs><style>.cls-1{fill:#fff;}</style></defs><g id="grafika"><path class="cls-1" d="m113.23,355.3s0-.02,0-.03c0,.01,0,.03,0,.04,0,0,0-.01,0-.02Z"/><path class="cls-1" d="m100.14,279.42s0,.04,0,.04c0-.01,0-.04,0-.04Z"/><path class="cls-1" d="m89.27,281.53h0s0,0,0,0h0Z"/><path class="cls-1" d="m90.68,278.8s-.01.04-.02.05c0,0,.01-.04.02-.05Z"/><path class="cls-1" d="m52.25,226.36s.04.01.06.02c-.03,0-.05-.02-.08-.03,0,0,.02,0,.02,0Z"/><path class="cls-1" d="m81.73,225.78s.04.05.04.05c-.01-.02-.04-.05-.04-.05Z"/><path class="cls-1" d="m82.93,285.23s0,0,.02,0c0,0-.02,0-.03,0h.01Z"/><path class="cls-1" d="m56.34,242.42s0,.05,0,.05c0,0,0-.04,0-.05Z"/><path class="cls-1" d="m56.49,246.99s0,.04,0,.04c0-.01,0-.04,0-.04Z"/><path class="cls-1" d="m47.93,245.94s0,.02,0,.03c0-.02,0-.04,0-.06,0,0,0,.03,0,.03Z"/><path class="cls-1" d="m37.6,222.29s-.01-.03-.02-.04c0,.01.01.02.02.04Z"/><path class="cls-1" d="m36.63,236.37s0,0,0,0c0-.02-.02-.04-.03-.06,0,.02.02.04.03.06Z"/><path class="cls-1" d="m42.09,270.12h0s0,0,0-.01h0Z"/><path class="cls-1" d="m52.72,221.14s-.03-.03-.04-.05c.01.02.03.03.04.05Z"/><path class="cls-1" d="m104.03,203.64s-.01.03-.01.03c0,0,0-.02.01-.03Z"/><path class="cls-1" d="m120.52,255.71s-.03.07-.03.07c0-.02.02-.05.03-.07Z"/><path class="cls-1" d="m96.53,200.29s-.04.03-.04.03c.01-.01.03-.02.04-.03Z"/><path class="cls-1" d="m47.67,210.38h0s0,0,0,0h0Z"/><path class="cls-1" d="m85.88,179.05s0,.03-.01.04c0-.01.01-.03.02-.04h0Z"/><path class="cls-1" d="m67.85,181.06s0,.07,0,.07c0-.02,0-.05,0-.07Z"/><path class="cls-1" d="m90.17,324.63s-.03.03-.03.03c0,0,.03-.03.03-.03Z"/><path class="cls-1" d="m108.68,275.87s0,.06,0,.06c0-.02,0-.04,0-.06Z"/><path class="cls-1" d="m130.59,252.98s-.05,0-.07.01c.02,0,.04,0,.07-.01Z"/><path class="cls-1" d="m118.42,83.21c-.13-.03-.26,0-.38.06-.12.08-.18.18-.22.31-1.23,3.57-2.31,7.2-3.34,10.83-.51,1.48-1.03,2.95-1.58,4.42-.58,1.57-1.2,3.13-1.83,4.68-.04-.39-.1-.78-.17-1.17-.24-1.31-.71-2.57-1.25-3.78-1.13-2.51-2.62-4.83-3.76-7.33-.17-.39-.34-.78-.49-1.18-.05-.13-.12-.23-.25-.3-.09-.05-.2-.06-.3-.04.13-1.24.24-2.48.33-3.73.02-.22-.18-.43-.38-.47-.13-.03-.27,0-.38.06-.12.08-.18.18-.22.31-.2.58-.4,1.16-.59,1.75-.08-.17-.16-.34-.24-.51-.13-.29-.25-.58-.37-.87-.05-.13-.12-.23-.25-.3-.1-.05-.22-.06-.34-.04-1.49-2.88-3.17-5.65-4.6-8.56-.06-.11-.19-.2-.31-.22-.03,0-.06,0-.1,0,0-.04,0-.08,0-.12-.04-.74-.18-1.48-.41-2.18-.46-1.38-1.26-2.63-2.11-3.81-.15-.31-.31-.61-.49-.9-.33-.54-.73-1.04-1.13-1.53-.3-.37-.62-.72-.98-1.04-.38-.34-.81-.61-1.29-.77-.42-.13-.89-.1-1.3.03-.51.17-.95.5-1.34.86-.37.33-.7.7-1.02,1.08-.23-.3-.51-.56-.78-.81-.44-.41-.92-.78-1.32-1.24-.08-.1-.15-.21-.22-.33-.15-.28-.59-.31-.79-.07-.09.1-.19.2-.29.29-.31.25-.65.46-.98.69-.17.12-.34.24-.5.37-.17-.3-.33-.61-.47-.93-1-2.26-1.45-4.71-2.12-7.07-.06-.22-.27-.36-.49-.36-.07,0-.13.02-.18.04-.14.06-.24.19-.29.35-1.82,5.71-3.82,11.35-5.64,17.06-1.76,5.52-3.35,11.12-4.37,16.82-.46.76-.9,1.54-1.31,2.34-1.22-3.71-2.63-7.36-4.34-10.89-.1-.2-.37-.27-.57-.21-.02,0-.04.01-.06.02-.22.1-.36.36-.28.6,1.36,4.11,2.39,8.29,3.3,12.51-.03.05-.06.11-.08.17-.01.03-.02.06-.03.1,0-.01.01-.03.02-.04-.01.03-.02.06-.03.08,0,.01,0,.02-.01.04,0,0,0-.02,0-.02-.19.49-.39.97-.61,1.44-.11-.06-.25-.07-.37-.03-.02,0-.04.01-.06.02-.11.05-.17.13-.24.22-1.33,1.9-2.34,4-2.93,6.24-.54,2.06-.7,4.21-.51,6.33.38,4.35,2.14,8.48,4.46,12.14,1.78,2.82,3.93,5.41,6.27,7.78.19.19.53.16.7-.03.19-.21.16-.51-.03-.71-1.03-1.04-2.02-2.13-2.95-3.26-2.13-2.58-4-5.4-5.39-8.45-.88-1.97-1.55-4.04-1.9-6.18-.24-1.56-.31-3.15-.16-4.72.15-1.48.49-2.94,1.01-4.34.38-.99.84-1.94,1.38-2.85.04.04.08.08.13.1.25.13.54.03.67-.21.39-.68.73-1.39,1.04-2.1,1.35,6.53,2.45,13.13,3.98,19.61.22.91.43,1.83.62,2.75.19.95.38,1.9.56,2.85.4,2.08.81,4.16,1.31,6.22.51,2.11,1.11,4.2,1.89,6.23.74,1.9,1.65,3.76,2.86,5.41.57.78,1.21,1.51,1.92,2.16.69.64,1.47,1.19,2.3,1.65.07.04.14.05.22.05-.57,5.29-2.17,10.4-3.7,15.48-1.52,5.07-3.01,10.23-3.26,15.55,0,.14,0,.27-.01.41-.72-.13-1.44-.31-2.16-.45-.52-.1-1.04-.18-1.57-.2-.52-.03-1.03.02-1.53.14-.23.05-.47.13-.69.23-.22.1-.43.22-.62.36-.34.26-.62.59-.81.98-.37.74-.41,1.6-.49,2.41,0,0,0,.02,0,.02,0-.02,0-.03,0-.05,0,.03,0,.05,0,.08-.58-.19-1.18-.3-1.79-.33-.41-2.51-.95-5-1.5-7.49-.3-1.35-.6-2.71-.87-4.06-.29-1.44-.55-2.89-.79-4.33-1.79-10.6-2.77-21.3-3.72-32-.24-2.68-.48-5.36-.72-8.04-.25-2.68-.49-5.37-.83-8.04-.67-5.23-1.69-10.4-2.86-15.54-1.3-5.7-2.79-11.35-4.2-17.02-1.41-5.65-2.73-11.33-3.71-17.07,0,.03.01.07.01.07,0-.02,0-.05-.01-.07,0-.02,0-.04-.01-.06,0,.01,0,.03,0,.04-.14-.81-.27-1.61-.38-2.42-.07-.49-.11-.98-.14-1.47,2.62-2.78,3.48-6.77,4-10.46.26-1.89.45-3.79.71-5.68.24-1.74.55-3.5,1.14-5.16.08-.23.17-.45.27-.67.09-.21.07-.44-.11-.6-.14-.12-.36-.17-.53-.09-.03.01-.05.03-.07.04-1.81,1.34-3.2,3.16-4.22,5.15-.12.23-.23.47-.33.7.02-.38.03-.75.03-1.13.05-.06.09-.13.09-.2.31-2.71.29-5.44-.04-8.14-.33-2.68-.95-5.31-1.77-7.87-.84-2.61-1.9-5.13-3.07-7.6-1.19-2.49-2.5-4.91-3.89-7.29-2.72-4.68-5.72-9.19-8.56-13.8-.14-.22-.27-.44-.41-.66-.12-.19-.36-.27-.57-.21-.02,0-.04.01-.05.02-.1.05-.19.13-.24.23-.05.1-.08.26-.03.37,1.01,2.26,2.19,4.44,3.4,6.6,1.3,2.31,2.65,4.6,3.93,6.92,1.02,1.85,2.01,3.73,2.9,5.65h0c1.32,2.85,2.43,5.84,2.96,8.95.18,1.11.29,2.23.3,3.35-.11-.1-.22-.19-.33-.28-1.15-.92-2.47-1.59-3.68-2.42-.51-.35-1.01-.74-1.42-1.2-.17-.21-.3-.44-.42-.69-.13-.31-.24-.62-.36-.94-.14-.4-.3-.79-.5-1.16-.18-.34-.42-.67-.64-.99-.23-.34-.47-.67-.72-.99-.93-1.22-1.97-2.36-3.09-3.41-.58-.55-1.18-1.07-1.8-1.58-.66-.55-1.31-1.11-1.95-1.69-1.24-1.13-2.42-2.33-3.57-3.55-2.21-2.34-4.31-4.78-6.55-7.09-.12-.12-.32-.16-.48-.11-.02,0-.03.01-.05.02-.18.08-.33.28-.3.48.14,1.04.36,2.06.54,3.09,0,0,0-.01,0-.02.1.57.18,1.15.22,1.73-.71-.76-1.39-1.55-2.11-2.31-.12-.12-.32-.15-.48-.1-.22.07-.36.27-.35.49.03,1.17.12,2.34.24,3.51-.07-.06-.13-.11-.19-.17-.29-.24-.58-.47-.88-.7-.14-.11-.3-.16-.48-.11-.02,0-.03.01-.05.02-.18.08-.32.28-.3.48.2,1.8.65,3.55,1.18,5.28.4,1.34.86,2.68,1.28,4.01-.28-.28-.56-.55-.85-.82-.15-.13-.36-.16-.54-.09-.02,0-.04.02-.06.03-.18.11-.29.36-.21.57,1.14,2.94,2.26,5.88,3.4,8.82-.03,0-.06,0-.08.02-.06.03-.12.07-.17.12-.08.09-.15.23-.13.35.38,2.43.18,4.91.07,7.35-.11,2.51-.17,5.05.44,7.5.11.44.25.88.41,1.3-1.82-2.38-3.57-4.82-5.39-7.2-.13-.18-.34-.28-.57-.21-.02,0-.04.01-.05.02-.1.05-.19.13-.24.23-.05.11-.08.26-.03.37,1.88,4.5,4.03,8.94,6.91,12.9,1.34,1.84,2.84,3.57,4.51,5.13,1.71,1.59,3.59,2.98,5.59,4.18,2.36,1.41,4.89,2.51,7.49,3.4.04.01.08,0,.13,0,.5.37,1.03.7,1.58.99.38.21.76.4,1.14.6.42.22.82.46,1.22.72.23.16.45.33.66.52.24.2.45.43.65.66.32.39.59.8.85,1.23.25.41.46.84.67,1.27,1.06,2.34,1.64,4.85,2.07,7.38.38,2.3.64,4.61.96,6.91.15,1.05.33,2.1.52,3.15.25,1.42,4.04,23.98,4.94,29.46.89,5.35,1.87,10.67,2.88,16,1.15,6.03,2.31,12.05,3.34,18.11,0-.01,0-.02,0-.03.21,1.25.42,2.51.61,3.76.21,1.37.39,2.74.56,4.11.34,2.77.59,5.54.8,8.32.1,1.37.19,2.75.27,4.13.07,1.21,0,2.42-.04,3.62-.05,1.23-.09,2.46,0,3.69.03.5.11,1,.19,1.5.07.39.16.76.28,1.14-.67.28-1.34.54-2.04.74.17-.45.24-.94.2-1.42-.05-.56-.25-1.11-.58-1.57-.35-.5-.83-.9-1.36-1.17-.27-.14-.57-.25-.86-.33-.2-.05-.42-.08-.63-.09-.43-.03-.86.04-1.28.13-.73.15-1.43.42-2.11.72-.09.04-.28.13-.28.13-.03.01-.06.03-.09.04,0-.32,0-.64-.02-.97-.05-.91-.18-1.81-.33-2.7-.15-.89-.34-1.78-.54-2.67-.23-1.01-.49-2.01-.8-3-1.28-4.22-3.33-8.14-5.64-11.88-.6-.97-1.2-1.95-1.77-2.94-.57-.98-1.11-1.98-1.64-2.98-1.06-2-2.04-4.04-2.97-6.1,0,0,0,.02.01.03-3.7-8.21-6.57-16.76-9.89-25.13-.67-1.69-1.37-3.37-2.09-5.04-.06-.13-.12-.23-.25-.3-.11-.06-.25-.07-.37-.04-.02,0-.04.01-.05.02-.22.1-.36.36-.28.6.43,1.24.8,2.51,1.21,3.76.07.22.27.36.5.36.04.09.07.18.11.28-.17.12-.25.33-.2.55,1.46,5.95,2.73,11.95,3.7,18,.66,4.19,1.18,8.4,1.5,12.62.16,2.12.27,4.24.33,6.37.03,1.06.04,2.12.04,3.17,0,.99-.01,1.99-.05,2.98-.05,1.33-.16,2.67-.3,4,0-.04,0-.09.01-.13-.36,3.56-.88,7.1-.97,10.68-.09,3.44.27,6.95,1.64,10.14.34.79.73,1.54,1.18,2.27.29.48.62.93.96,1.38-.47.44-.9.93-1.32,1.42-.46.55-.91,1.11-1.36,1.67-.26.32-.52.64-.78.96-.21.26-.42.54-.67.77-.07.05-.14.09-.21.13-.05.02-.11.04-.17.05-.07,0-.13,0-.2,0-.18-.03-.35-.08-.53-.14-.26-.1-.51-.2-.8-.2-.16,0-.31.05-.45.13-.16.08-.28.25-.36.4-.09.16-.14.36-.18.54-.06.3-.08.62-.1.93-.01.23.01.46.06.69.05.25.15.48.26.7.21.44.52.83.84,1.2.38.44.8.84,1.23,1.23.84.78,1.74,1.51,2.48,2.39.21.26.4.53.55.84.05.12.09.25.12.38.01.14.02.28,0,.43-.15,1.07-.78,2.07-.61,3.17.1.68.5,1.25.95,1.76.41.45.91.82,1.31,1.28.23.3.38.63.54.97.2.41.4.83.6,1.25.3.64.6,1.28.89,1.92-.05.04-.1.09-.13.15-.73,1.48-1.28,3.03-1.57,4.65-.26,1.45-.31,2.94-.17,4.41.27,2.9,1.27,5.67,2.42,8.32.87,2,1.85,3.96,2.74,5.95-.02-.04-.04-.08-.05-.12,1.17,2.6,2.22,5.27,2.68,8.1.57,3.7.41,7.46.26,11.18-.07,1.87-.14,3.73-.11,5.6.01.67.03,1.34.08,2.01-.35-.14-.71-.27-1.08-.36-.55-.13-1.13-.19-1.69-.25-.52-.05-1.03-.11-1.54-.21-.58-.11-1.14-.32-1.69-.52.04.01.08.03.12.04-4.65-1.74-8.93-4.31-12.98-7.16h0c-3.67-2.58-7.17-5.4-10.7-8.17-3.45-2.71-6.93-5.38-10.64-7.72-.13-.08-.29-.08-.43-.01-.06.03-.12.07-.17.12-.18.19-.18.53.03.7,1.54,1.29,3.01,2.66,4.42,4.09,1.4,1.42,2.72,2.91,3.99,4.44h0c4,4.83,7.46,10.09,11.03,15.25,1.79,2.6,3.62,5.18,5.56,7.67.97,1.25,1.96,2.47,2.99,3.66.92,1.07,1.89,2.08,2.92,3.04,1.82,1.7,3.84,3.17,5.99,4.42,1.07.62,2.18,1.17,3.3,1.68-.04.06-.07.12-.09.18-.03.13,0,.26.06.38.07.12.18.18.31.22.41.13.81.27,1.21.41,2.07.78,4.01,1.83,5.82,3.1,2.84,2.02,5.31,4.52,7.53,7.2,0,0,0-.01-.01-.02,3.45,4.18,6.35,8.77,9.37,13.25,1.44,2.13,2.91,4.25,4.51,6.27.92,1.16,1.86,2.3,2.89,3.36.98,1.01,2.07,1.91,3.26,2.66,1.31.82,2.75,1.4,4.24,1.78,1.55.4,3.18.55,4.77.35.72-.09,1.42-.25,2.11-.48.67-.22,1.32-.52,1.95-.85,1.26-.68,2.4-1.58,3.44-2.55,1.32-1.22,2.49-2.6,3.63-3.99,1.06-1.3,2.09-2.62,3.17-3.9.29,1.05.57,2.11.83,3.16.95,3.76,1.72,7.56,2.58,11.33.2.87.41,1.73.58,2.61.2,1,.37,2.01.54,3.02,0,0,0-.01,0-.02.75,4.72,1.26,9.48,2.27,14.15.47,2.19,1.07,4.37,1.93,6.44.41.99.88,1.95,1.44,2.86.26.42.54.82.85,1.19.26.31.54.61.86.86.47.37,1.03.64,1.64.61.55-.03,1.03-.35,1.37-.78.43-.54.65-1.21.8-1.87.2-.89.24-1.83.21-2.74-.03-1.17-.2-2.33-.44-3.47-.28-1.39-.62-2.76-.96-4.14-.68-2.76-1.46-5.49-2.27-8.22-2.61-8.76-5.71-17.38-8.12-26.19.02,0,.04.03.07.03.14.03.26,0,.38-.06,1.29-.67,2.29-1.78,3.04-3.01.4-.66.73-1.38,1-2.1.31-.82.56-1.66.77-2.51.45-1.86.69-3.77.84-5.68.16-2.02.21-4.05.21-6.08,0-3.71-.23-7.42-.35-11.13-.02-.59-.03-1.18-.04-1.77,0-.66,0-1.31,0-1.97-.01-1.75-.06-3.51.1-5.26h0s0-.08.01-.11c0,.02,0,.03,0,.05.11-1.07.31-2.12.68-3.13.22-.57.5-1.12.84-1.63.32-.45.69-.86,1.11-1.22.01-.01.04-.04.04-.04-.01.01-.03.03-.04.04.01-.01.03-.02.04-.03.11-.09.19-.17.22-.31.03-.11,0-.22-.04-.33.93-.74,1.82-1.53,2.68-2.36,2.47-2.4,4.6-5.2,6.15-8.28-.01.05-.02.1-.02.15,0,.13.06.26.16.35.09.09.22.14.35.13.13,0,.22-.06.32-.13.01,0,.02-.02.04-.03.01-.01.03-.02.04-.03.94-.76,1.97-1.39,3.07-1.89,1.48-.66,3.05-1.09,4.65-1.35,3.33-.51,6.73-.36,10.07-.02,2.46.25,4.9.61,7.34.95,2.37.33,4.74.66,7.12.82,1.22.09,2.44.13,3.66.08.22,0,.42-.17.47-.39.02-.08.02-.17,0-.25-.04-.14-.13-.22-.25-.3-1.94-1.31-4.06-2.31-6.26-3.1-2.28-.81-4.66-1.36-7.05-1.7-4.93-.71-9.98-.55-14.87.35-2.32.43-4.62,1.04-6.83,1.87-.01,0-.02,0-.03.01-.24.1-.38.34-.3.61.07.25.37.43.62.34,2.55-.96,5.21-1.63,7.9-2.06-.02,0-.03,0-.05,0,.03,0,.11-.02.13-.02h-.01c3.81-.59,7.7-.71,11.55-.34h0c3.09.31,6.15.95,9.07,2.02,1.45.54,2.87,1.19,4.21,1.96-1.21-.02-2.42-.12-3.63-.23-2.4-.24-4.79-.6-7.19-.93-2.5-.35-5.01-.68-7.52-.86-2.4-.18-4.82-.21-7.21.07-1.15.13-2.29.34-3.41.65-1.09.3-2.15.7-3.16,1.21-1.02.51-1.96,1.14-2.83,1.86,0,0,0,.01-.02.02.75-1.53,1.35-3.15,1.75-4.81.42-1.73.59-3.52.56-5.3-.03-1.76-.28-3.52-.64-5.25-.36-1.75-.86-3.47-1.4-5.18-1.09-3.46-2.39-6.85-3.35-10.36-.36-1.33-.67-2.68-.89-4.04-.12-.81-.21-1.63-.28-2.44-.07-.75-.15-1.5-.25-2.25-.21-1.65-.47-3.29-.8-4.92-.69-3.41-1.68-6.78-3.21-9.9-.68-1.4-1.5-2.74-2.46-3.96-.48-.61-1-1.19-1.56-1.73-.23-.22-.47-.43-.71-.63-.02-.1-.06-.19-.14-.26-.1-.1-.22-.12-.35-.13,0,0,0,0,0,0-.19-.14-.37-.28-.56-.42-.12-.08-.3-.07-.44-.01-.02,0-.04.02-.06.03-.05.03-.09.07-.13.12-.03-.02-.05-.05-.07-.06-.04-.03-.09-.05-.13-.08-.14-.11-.27-.23-.39-.36-.14-.19-.27-.39-.37-.6-.16-.38-.27-.79-.34-1.2-.09-.62-.11-1.25-.11-1.88,0-.29.01-.58.04-.87.07-.67.18-1.35.29-2.02.14-.91.29-1.81.42-2.71.15-.98.27-1.96.37-2.94.08-.86.15-1.73.12-2.6,0-.36-.03-.71-.09-1.06-.05-.32-.11-.63-.23-.93-.11-.28-.26-.54-.47-.75-.19-.19-.41-.28-.68-.29-.2,0-.42.05-.62.12-.09.03-.19.07-.28.11-.17.08-.34.16-.5.25-.63.33-1.22.74-1.8,1.16-1.47,1.05-2.87,2.21-4.23,3.41-.59.52-1.18,1.05-1.74,1.6-.03.03-.05.05-.08.08-.17-.12-.35-.23-.56-.29-.29-.1-.61-.11-.92-.12-.15,0-.3-.01-.45,0-.19.01-.38.07-.56.14-.08.03-.16.07-.24.11,0-.04,0-.08-.01-.11-.04-.14-.13-.22-.24-.3-.1-.08-.19-.17-.27-.27-.22-.28-.39-.6-.54-.92,0,0,0,.02.01.03,0,0-.04-.09-.06-.12.01.02.02.05.03.07-.72-1.62-1.09-3.37-1.85-4.98-.3-.63-.71-1.29-1.34-1.63-.29-.15-.63-.22-.96-.17-.16.02-.3.06-.44.12-.04.02-.09.04-.13.07-.17.09-.32.23-.44.37-.29.33-.49.73-.65,1.14-.04-.05-.09-.09-.15-.12-.14-.06-.27-.14-.4-.23-.99-.74-1.65-1.98-2.93-2.26-.23-.05-.49-.07-.73-.01.91-3.56,1.58-7.19,2.33-10.78.81-3.87,1.73-7.74,3.09-11.46.96-2.56,2.14-5.04,3.71-7.29.73-1.02,1.55-1.97,2.43-2.87.91-.94,1.86-1.82,2.81-2.72.95-.9,1.88-1.82,2.75-2.79.42-.47.82-.97,1.21-1.47.4-.53.76-1.08,1.13-1.63,2.69-4.07,4.88-8.46,6.73-12.97,3.59-8.79,5.84-18.03,8.42-27.14,1.23-3.59,2.35-7.23,3.36-10.89.07-.26-.11-.54-.37-.6Zm-12.5,8.06s0-.02-.01-.03c0,.01.01.03.01.03Zm2.79,7.59s0-.01,0-.02c.59,1.31,1.07,2.66,1.3,4.08.14.9.17,1.81.09,2.71,0,0,0-.02,0-.03,0,0,0,.09-.01.13,0-.03,0-.05,0-.08-.01.13-.04.27-.05.4-3.16,7.49-6.85,14.75-11.19,21.62-1,1.59-2.05,3.15-3.13,4.68-.56.79-1.13,1.57-1.71,2.34,3.29-9.24,6.12-18.65,8.18-28.25,1.1-5.11,1.96-10.27,2.54-15.46,1.14,2.71,2.76,5.2,3.98,7.87Zm-6.53-11.25c.06.11.19.19.31.22.05.01.1,0,.15,0,.05.11.09.22.15.33.05.11.19.19.31.22.1.02.2,0,.29-.03-1.44,4.52-2.57,9.13-3.83,13.7-.37,1.35-.76,2.7-1.17,4.04-.16.53-.33,1.05-.47,1.58-.27,1.03-.5,2.08-.73,3.12-1.25,5.75-2.43,11.53-4.23,17.13-.27-.06-.55-.08-.82-.06-.37.03-.71.14-1.05.28-.04.02-.07.03-.11.05-.36.17-.68.42-.99.68-.32.27-.6.58-.87.91-.62.76-1.14,1.6-1.63,2.44-.51.87-.98,1.76-1.47,2.64-.38.68-.77,1.36-1.21,2.01-.13.18-.26.36-.4.54-.19-.4-.37-.8-.55-1.2v.02c-.5-1.13-.99-2.27-1.46-3.41-.07-.17-.18-.3-.36-.34-.18-.04-.36.02-.48.15-.6.64-1.09,1.38-1.41,2.2-.21.54-.33,1.1-.42,1.66-.13.14-.26.27-.39.41-.21-.38-.4-.77-.58-1.16,0-.02-.03-.06-.03-.06,0,.02.02.04.03.06-.64-1.43-1.13-2.92-1.57-4.42-.03-.1-.1-.18-.18-.24-.07-.24-.15-.48-.22-.71-.4-1.31-.77-2.63-1.14-3.96-.72-2.61-1.38-5.23-2.03-7.86.02-.37.04-.73.08-1.09.18-1.7.57-3.37,1.15-4.97.75-1.98,1.79-3.84,3-5.58,2.17-3.06,4.82-5.73,7.45-8.38,2.66-2.67,5.33-5.36,7.52-8.43,1.09-1.53,2.06-3.15,2.82-4.88.8-1.84,1.36-3.77,1.63-5.76.04-.27.06-.53.09-.8,1.54,3.02,3.3,5.92,4.8,8.96Zm-13.66,50.17c-.59.83-1.25,1.61-2.02,2.27.01-.01.03-.02.04-.04-.02.01-.03.03-.05.04-.02.02-.04.03-.05.05.02-.01.03-.03.05-.04-.46.37-.96.7-1.49.95-.39.17-.8.29-1.23.37-.34.05-.67.06-1.01.03-.25-.03-.5-.09-.74-.17-.26-.11-.51-.24-.74-.39-.33-.25-.62-.53-.88-.84-.46-.58-.82-1.22-1.13-1.88.06-.01.11-.03.17-.06.14-.07.26-.16.37-.25.09.07.2.12.32.11.13,0,.26-.06.35-.16.1-.1.12-.22.13-.35,0-.11.02-.22.03-.32,0-.04.01-.08.01-.12.09-.08.13-.23.12-.34,0-.06-.02-.13-.04-.19.07-.41.17-.81.31-1.2.17-.44.39-.85.66-1.24.02-.03.04-.06.07-.09.65,1.56,1.35,3.11,2.08,4.64.05.11.19.2.31.22.18.04.35-.03.48-.15.47-.43.84-.96,1.18-1.48.42-.63.79-1.3,1.16-1.97.77-1.4,1.5-2.82,2.42-4.13.4-.56.85-1.11,1.38-1.55.22-.17.46-.33.71-.45.18-.08.37-.13.56-.17.16-.02.32-.02.48-.01.03,0,.06.02.1.02-.07.22-.14.44-.22.67-.14.41-.29.82-.44,1.23-.48,1.28-1,2.54-1.6,3.77-.54,1.12-1.16,2.21-1.87,3.24Zm-3.42,3.19s-.04.02-.07.03c.02,0,.07-.03.07-.03Zm-14.32-35.27c.08-.09.15-.23.13-.35-.1-.67-.11-1.34-.05-2.01,0-.02,0-.07,0-.07,0,.02,0,.05,0,.07.08-.76.26-1.51.53-2.23.39-1.02.93-1.98,1.55-2.88,1.29-1.8,2.91-3.35,4.6-4.77,2.89-2.38,6.04-4.39,9.16-6.46,1.24-.82,2.48-1.65,3.64-2.59,1.67-1.35,3.15-2.97,4.18-4.86.51-.93.9-1.95,1.11-2.99.11-.53.17-1.07.18-1.6,0-.18,0-.36-.02-.54.26.6.45,1.22.56,1.86,0-.03-.01-.08-.01-.08,0,.03,0,.06.01.08.12.8.11,1.61.04,2.42-.18,1.69-.58,3.36-1.16,4.96,0-.02.02-.04.02-.06-.01.03-.04.11-.04.12,0,0,0-.01,0-.02-.77,2.02-1.83,3.92-3.07,5.69-2.17,3.04-4.81,5.7-7.43,8.35-2.64,2.67-5.32,5.34-7.51,8.4-1.09,1.52-2.05,3.13-2.8,4.84-.67,1.54-1.15,3.15-1.45,4.8-.46-1.9-.92-3.8-1.39-5.7-.35-1.41-.71-2.82-1.07-4.23.11-.02.21-.06.29-.15Zm.07-2.31s0-.05,0-.05v.05Zm2.02-5.07s.03-.04.03-.04c-.01.01-.02.03-.03.04Zm8.19,36.9s.02-.04.02-.04c0,.01-.01.03-.02.04Zm10.23-67.22l-.04-.03s.02.02.04.03Zm-2.04.19s-.03.03-.05.04c.02-.01.05-.04.05-.04Zm-20.18,27.02s.01,0,.02,0c.25.06.55-.11.6-.37.05-.32.11-.64.17-.96.1-.16.19-.33.29-.48.12-.19.05-.43-.1-.58.99-5.21,2.44-10.32,4.03-15.37,1.68-5.33,3.54-10.61,5.27-15.92.63,2.47,1.21,4.99,2.59,7.15.17.26.58.33.79.08.1-.13.22-.24.34-.34.29-.23.61-.43.92-.65.18-.12.36-.25.54-.39.23.26.49.5.74.73.42.38.86.74,1.23,1.17.15.18.27.37.37.59.05.11.2.2.31.22.16.04.37-.01.48-.15.47-.6.96-1.2,1.53-1.7.21-.17.42-.32.66-.44.12-.05.25-.09.38-.12.1-.01.19-.01.29,0,.1.02.21.04.31.07.17.07.33.16.49.26.47.35.88.8,1.25,1.25.36.44.69.89.98,1.37,0,.1,0,.2.07.29.14.19.28.39.41.58.03.06.06.11.09.17.27.62.48,1.27.6,1.95,0-.02,0-.04-.01-.07,0,.03,0,.05.01.08,0,.02,0,.04,0,.05,0-.02,0-.03,0-.05.09.63.11,1.27.06,1.91,0,.02,0,.05,0,.07,0-.02,0-.04,0-.06-.08.75-.26,1.48-.52,2.18-.36.93-.84,1.81-1.41,2.63-.84,1.16-1.83,2.21-2.93,3.13-1.12.92-2.33,1.73-3.53,2.54-1.5,1-3.01,1.98-4.51,3-1.59,1.08-3.16,2.21-4.65,3.43-1.46,1.19-2.86,2.47-4.08,3.91-1.07,1.27-2.02,2.68-2.62,4.23-.29.75-.51,1.53-.61,2.34-.02.18-.04.35-.05.53-.57-2.1-1.17-4.18-1.83-6.25.33-.68.67-1.34,1.04-1.99Zm.1,83.39s-.02.01-.03.02c.01,0,.03-.02.03-.02ZM46.58,48.47c.47-1.27,1.09-2.48,1.85-3.6.43-.61.9-1.2,1.42-1.74-.36,1.24-.59,2.52-.77,3.79-.31,2.1-.5,4.21-.8,6.3-.27,1.91-.63,3.82-1.28,5.65-.38,1.05-.87,2.07-1.5,2.99-.08.12-.17.23-.26.35,0-1.64.13-3.28.2-4.91.04-.9.04-1.79.02-2.69-.01-.48-.05-.95-.09-1.42.08-.03.15-.07.2-.13.09-.1.12-.22.13-.35,0-.15.02-.3.03-.45,0-.02,0-.04,0-.06.12-1.27.42-2.51.85-3.71Zm-5.38-22.55c-.68-2.51-1.69-4.93-2.81-7.28-.45-.94-.92-1.87-1.4-2.8,1.39,2.42,2.71,4.89,3.89,7.43,1.86,4.05,3.36,8.28,4.11,12.68.19,1.15.33,2.32.41,3.48-.35-1.21-.83-2.37-1.42-3.48-.43-.8-.91-1.59-1.46-2.32-.14-.18-.28-.36-.44-.53.11-2.42-.26-4.84-.89-7.17ZM14.11,10.73c.67.75,1.33,1.5,2.06,2.19.12.12.32.16.48.11.09-.03.16-.08.22-.14.09-.1.12-.22.13-.35.1-1.52-.22-3.03-.51-4.52,1.94,2.06,3.8,4.19,5.74,6.24,1.16,1.22,2.35,2.41,3.6,3.53.63.57,1.29,1.12,1.95,1.67.6.51,1.19,1.03,1.76,1.58.68.65,1.32,1.33,1.93,2.05.39.46.76.94,1.11,1.43.19.26.37.52.55.79.19.29.38.58.53.89.31.71.5,1.47.88,2.15.36.65.96,1.14,1.54,1.58,1.04.78,2.2,1.39,3.27,2.11.76.52,1.46,1.12,2.07,1.82.43.52.8,1.09,1.15,1.66.35.57.67,1.16.95,1.77.63,1.36,1.07,2.8,1.34,4.27.47,2.81.3,5.66.05,8.5-.19-1.02-.43-2.03-.7-3.04-.9-3.27-2.26-6.4-3.83-9.39-1.64-3.1-3.57-6.04-5.65-8.85-.13-.18-.34-.28-.57-.21-.25.08-.42.37-.33.62,2.41,6.81,4.98,13.62,6.29,20.75-.31-.08-.61-.17-.92-.26,0,0,0-.01,0-.01-.08-.12-.18-.18-.31-.22-.16-.05-.32-.11-.49-.17-1.59-.57-3.1-1.33-4.49-2.29-1.37-.96-2.6-2.1-3.68-3.37-1.75-2.09-3.1-4.49-4.24-6.96.02.04.04.08.06.12-1.93-4.18-3.32-8.58-5.18-12.8-.92-2.1-1.96-4.16-3.23-6.08-.94-1.42-2.01-2.75-3.22-3.94-.14-1.07-.26-2.15-.32-3.23Zm-1.55,2.86c.32.27.63.55.93.84.02.16.04.32.07.48.02.14.06.25.17.35.1.09.22.13.35.13.1,0,.19-.05.27-.1.26.28.52.56.76.85,1.82,2.18,3.23,4.67,4.43,7.24h0c1.91,4.14,3.3,8.51,5.13,12.69.9,2.06,1.92,4.08,3.16,5.95,1.23,1.84,2.7,3.54,4.42,4.93.91.73,1.89,1.38,2.91,1.94.79.43,1.62.8,2.47,1.13.05.09.12.17.21.21.81.31,1.64.57,2.48.76.17,1.06.31,2.13.41,3.2.1,1.09.18,2.2.11,3.3-.03.28-.07.56-.16.84-.04.1-.09.19-.14.29-.02.02-.04.05-.06.07-.04.03-.08.05-.12.08-.02,0-.05.02-.08.02-.07,0-.15,0-.22,0-.19-.03-.36-.07-.54-.13-.91-.37-1.75-.92-2.55-1.47-.89-.64-1.74-1.33-2.55-2.07-.79-.72-1.52-1.51-2.22-2.32-3.37-4.02-5.68-8.77-7.87-13.5,0,0,0,.01,0,.02-1.54-3.34-3.05-6.71-4.85-9.92-1.26-2.25-2.7-4.4-4.39-6.33.09-.12.13-.28.09-.44-.9-3-2.05-5.94-2.61-9.03Zm24.49,43.66s-.04-.03-.04-.03c.01,0,.02.02.04.03Zm-20.6-13.01s0,.04.01.06c0-.02-.01-.06-.01-.06Zm2.16,5.04s.04.04.06.07c-.02-.02-.06-.07-.06-.07Zm.42.47c-.11-.12-.23-.25-.34-.37-.54-.65-1-1.37-1.36-2.14-.42-.93-.69-1.91-.87-2.91-.37-2.27-.27-4.59-.16-6.88.08-1.72.18-3.46.07-5.18.48,1.2.96,2.4,1.45,3.6.95,2.3,1.95,4.58,3.01,6.82,1.1,2.34,2.31,4.63,3.6,6.86,1,1.73,1.83,3.56,2.7,5.36.82,1.7,1.66,3.39,2.6,5.02-.71-.42-1.4-.85-2.08-1.32-1.62-1.13-3.14-2.38-4.57-3.73-1.44-1.36-2.78-2.83-4.06-4.34,0,0,0,.01.01.02-.01-.02-.03-.03-.04-.05.03-.02.05-.03.07-.05.09-.1.13-.22.13-.35,0-.14-.07-.25-.16-.35Zm.14,4.77s.03.03.04.05c-.01-.02-.04-.05-.04-.05Zm6.35,5.78c-2.38-1.65-4.52-3.62-6.39-5.83-2.69-3.23-4.79-6.89-6.59-10.68,2.38,3.22,4.77,6.44,7.48,9.4,1.47,1.61,3.04,3.12,4.73,4.49,1.78,1.45,3.7,2.73,5.71,3.83.08.04.17.05.26.05.58.87,1.21,1.71,1.92,2.48-2.5-.99-4.9-2.22-7.12-3.74Zm33.95,122.04c-.09-.31-.15-.63-.2-.94-.16-1.12-.19-2.24-.17-3.36.02-1.14.09-2.27.11-3.41.02-1.18-.06-2.36-.14-3.54-.08-1.28-.17-2.55-.28-3.83-.21-2.56-.47-5.12-.79-7.68-.32-2.5-.73-4.98-1.15-7.47-1.78-10.44-3.97-20.81-5.75-31.26,0,0,0,.01,0,.01-.95-5.58-3.54-21.37-3.93-23.67,0-.04,0-.07-.02-.11-.06-.33-1.14-6.61-1.63-9.43-.76-4.57-1.02-9.24-2.38-13.7-.33-1.07-.75-2.11-1.24-3.12-.23-.47-.49-.92-.77-1.35-.3-.48-.67-.92-1.06-1.34-.64-.67-1.44-1.17-2.24-1.61-.37-.2-.76-.39-1.13-.59-.46-.24-.9-.5-1.32-.78-.88-.62-1.64-1.36-2.35-2.18-1.18-1.41-2.14-2.97-3.02-4.58-.97-1.78-1.83-3.62-2.71-5.44-.4-.83-.81-1.66-1.23-2.48-.48-.93-1.01-1.83-1.52-2.74-1.17-2.08-2.23-4.21-3.24-6.37,0,.01.01.03.02.04,0-.02-.02-.04-.03-.06,0,0,0,.02,0,.02,0,0,0-.01,0-.02-2.72-5.9-4.99-11.99-7.32-18.05.25.27.49.55.73.83,3.15,3.8,5.32,8.27,7.39,12.71,0,0,0-.02-.01-.03,1.83,3.95,3.59,7.94,5.83,11.68,1.09,1.81,2.31,3.53,3.68,5.13,1.4,1.65,3.01,3.11,4.78,4.35.76.54,1.55,1.05,2.39,1.44.28.13.58.24.88.31.27.07.58.08.85.01,1.24-.3,1.31-1.86,1.34-2.89.01-.51-.01-1.01-.04-1.52-.03-.6-.09-1.19-.15-1.78-.12-1.24-.31-2.48-.53-3.7-.44-2.5-1.06-4.97-1.76-7.41-.99-3.43-2.17-6.8-3.37-10.17,1.81,2.69,3.45,5.51,4.83,8.45.73,1.6,1.38,3.23,1.93,4.89.58,1.74,1.02,3.52,1.33,5.33.18,1.12.3,2.24.36,3.38.07,1.29.02,2.59-.05,3.88-.06,1.17-.13,2.33-.15,3.5-.01.53,0,1.07.02,1.6-.12.12-.24.23-.36.34-.09.08-.13.24-.13.35,0,.13.07.26.17.35.1.09.22.13.35.13.02,0,.03,0,.05-.01.03.35.07.69.12,1.03.17,1.2.39,2.4.6,3.6.24,1.36.51,2.72.78,4.07.53,2.6,1.12,5.19,1.74,7.77,1.23,5.17,2.58,10.3,3.86,15.45,1.27,5.17,2.45,10.36,3.36,15.6.02.09.03.17.04.26,0-.02,0-.05-.01-.07.44,2.64.81,5.29,1.09,7.96.28,2.68.52,5.37.76,8.05.48,5.35.94,10.7,1.46,16.05.52,5.34,1.13,10.68,1.91,16,.38,2.61.81,5.21,1.28,7.8.48,2.63,1.08,5.22,1.65,7.83.36,1.66.71,3.33.99,5.01,0-.04-.01-.08-.02-.13.02.14.05.29.07.43-.02,0-.04,0-.06,0-.95.08-1.86.34-2.75.68-.56.21-1.12.45-1.67.7-.02-.08-.05-.15-.07-.23Zm-.45,1.54s.06.06.1.08c.11.06.25.07.37.03.19-.06.34-.26.35-.47,1.21-.53,2.42-1.05,3.73-1.27.21-.03.42-.04.62-.06.03.06.06.13.12.18.1.09.22.13.35.13.13,0,.26-.07.35-.16.04-.04.07-.09.09-.14.03,0,.06,0,.09,0,.5.06.98.17,1.46.33-.04.19-.09.38-.15.57-.09.23-.2.44-.33.65-.11.14-.22.28-.35.41-.08.06-.16.1-.24.14-.36.15-.75.24-1.13.33-.39.1-.8.2-1.15.41-.23.13-.31.47-.16.69.36.53.79,1,1.29,1.4.47.38,1,.69,1.53.98,1.04.55,2.14.99,3.11,1.66.43.31.82.66,1.16,1.06.24.29.46.6.62.94.11.27.18.56.29.83.03.08.07.16.11.24-.14.05-.28.09-.42.14-.6.18-1.19.36-1.79.54-.74.22-1.48.41-2.21.66-.78.27-1.82.7-2.46,1.36-.22-.23-.46-.44-.75-.57-.23-.1-.46-.15-.71-.17-.23-.02-.46.02-.69.07-.42.09-.82.28-1.21.45-.42.18-.85.35-1.3.44-.2.03-.4.03-.6.01-.31-.04-.61-.11-.91-.22.03,0,.05.02.08.03-.03,0-.08-.03-.08-.03-.3-.12-.59-.25-.89-.37-.4-.16-.79-.27-1.21-.31-.99-.09-1.97.28-2.83.73-.82.43-1.55,1.03-2.28,1.61-.67.53-1.35,1.06-2.13,1.43-.35.15-.71.27-1.08.33-.32.04-.63.05-.95.03.12-.04.24-.07.36-.09.21-.03.43-.05.64-.09.27-.06.5-.21.71-.38.29-.24.53-.54.73-.85.2-.3.34-.62.46-.95.24-.64.33-1.33.4-2,.07-.69.1-1.39.17-2.08h0c.05-.51.15-1.03.26-1.54.11-.5.23-1,.41-1.49.19-.5.44-.96.74-1.4.28-.4.59-.78.96-1.09.86-.68,1.88-1.13,2.73-1.82.16-.13.32-.27.46-.42.12.06.23.06.36.03.96-.21,1.88-.56,2.78-.95Zm7.51-.86s-.01.03-.02.05c0-.02.02-.05.02-.05Zm-.27,12.44l-.06.03.06-.03Zm-1.28,2.42s-.03.01-.05.02c.02,0,.05-.02.05-.02Zm1.02,2.55c.47.59.86,1.24,1.17,1.93.53,1.19.86,2.45,1.06,3.73.2,1.31.28,2.63.28,3.95,0,.63-.02,1.26-.06,1.88-.05.82-.11,1.64-.19,2.45-.1.95-.27,1.9-.59,2.81-.23.56-.62,1.04-.96,1.54-.17.25-.33.52-.45.8-.07.15-.12.31-.16.46-.04.16-.05.32-.06.48-.79-.74-1.59-1.47-2.47-2.11-.69-.5-1.42-.93-2.2-1.27-.84-.36-1.72-.57-2.58-.88h0s-.08-.03-.12-.04c.03.01.06.02.09.03-1.31-.49-2.55-1.14-3.7-1.95-1.21-.87-2.31-1.88-3.38-2.92-1.16-1.13-2.3-2.27-3.5-3.36-.12-.17-.23-.34-.32-.52-.05-.11-.09-.23-.11-.35,0-.07,0-.13,0-.2,0-.05.02-.1.03-.15.03-.07.06-.13.1-.2.08-.11.18-.2.28-.29.33-.26.7-.45,1.08-.63.41-.19.83-.35,1.25-.52.44-.17.88-.33,1.31-.55.84-.43,1.61-1,2.37-1.57,1.71-1.3,3.33-2.75,5.2-3.83.29-.17.59-.33.9-.47.44-.19.9-.34,1.37-.43.28-.04.55-.05.83-.03.29.04.56.11.83.21.47.19.92.42,1.34.71.51.36.96.79,1.36,1.26Zm8.63,19.23c.33-.75.36-1.58.35-2.38-.01-.8-.08-1.61,0-2.41.04-.36.11-.72.23-1.06.09-.23.2-.44.34-.65.15-.2.32-.38.5-.54.75-.6,1.66-.95,2.51-1.38.47-.24.93-.51,1.35-.82.23-.17.45-.37.65-.57.2-.2.39-.42.57-.63,1.37-1.54,2.66-3.15,4.24-4.48.03-.03.1-.08.1-.08-.03.03-.07.06-.1.08.72-.59,1.5-1.11,2.34-1.5.59-.26,1.21-.44,1.84-.56.87-.12,1.73-.13,2.6-.07.35.02.7.05,1.06.05.37,0,.73-.03,1.09-.09.86-.15,1.64-.58,2.33-1.09.87-.64,1.63-1.42,2.46-2.11.5-.4,1.02-.76,1.6-1.03.4-.17.8-.29,1.23-.37.77-.11,1.55-.06,2.32.01.36.04.73.08,1.09.13-.21,1.9-.66,3.76-1.32,5.55,0-.02.02-.05.03-.07-.01.03-.04.11-.05.12,0,0,0-.01,0-.02-.33.88-.71,1.74-1.14,2.58-.44.87-.96,1.7-1.45,2.54-.95,1.62-1.87,3.27-2.73,4.94-1.63,3.16-3.07,6.41-4.29,9.75-1.27,3.48-2.3,7.05-3.17,10.66-.24.98-.46,1.97-.69,2.96-.22.97-.43,1.95-.61,2.94-.1.56-.19,1.12-.27,1.69-.5-2.2-1.1-4.38-1.83-6.52-.69-2.01-1.53-3.99-2.53-5.87-.94-1.76-2.07-3.41-3.41-4.89-1.04-1.15-2.37-2.17-3.96-2.31-1.26-.11-2.45.39-3.53.99-1.18.65-2.28,1.44-3.51,2.02-.57.25-1.16.45-1.78.56-.42.06-.84.07-1.27.04-.47-.06-.91-.16-1.35-.32-.24-.09-.47-.2-.69-.31-.05-.13-.09-.26-.11-.39-.02-.17-.02-.34,0-.51.03-.22.08-.43.16-.64.12-.28.26-.55.43-.81.11-.15.23-.29.36-.43.03.03.06.05.08.08.2.18.52.17.71-.03.17-.19.17-.48,0-.67.05-.03.1-.06.16-.09.22-.09.46-.16.7-.2.44-.06.88-.04,1.33,0,1.04.11,2.11.3,3.13-.06.83-.29,1.56-.89,1.92-1.71Zm1.43-7.06s.03-.03.03-.03c-.01,0-.02.02-.03.03Zm11.54-9.31s.08-.03.08-.03c-.03.01-.05.02-.08.03Zm7.88,20.1s-.02.04-.02.04c0-.01.01-.03.02-.04Zm-6.15,22.52c0,.61.03,1.21.08,1.81.02.25.2.45.45.47.3,1.91.55,3.82.76,5.74.19,1.67.34,3.34.52,5.01.35,3.25.72,6.51.8,9.78.04,1.65,0,3.31-.16,4.96-.18,1.74-.51,3.47-1.1,5.12,0-.01.01-.03.02-.04-.01.03-.02.06-.03.08,0,.01,0,.02-.01.04,0,0,0-.02,0-.02-.36.94-.81,1.84-1.38,2.67.01-.02.03-.04.04-.06-.02.02-.03.05-.05.07,0,.01-.02.02-.02.04,0-.01.01-.02.02-.03-.16.22-.34.44-.52.65-.11-.14-.22-.28-.34-.42-.08-.09-.23-.14-.35-.13-.13,0-.26.06-.35.16-.09.09-.13.22-.13.35,0,.15.07.25.16.35.09.11.18.22.28.33.02.02.04.05.06.08-.1.1-.2.19-.31.28-.31.25-.64.48-.98.68,0,0,0,0,0,0-.02,0-.03.01-.05.02-.04.02-.07.05-.11.07-.24.14-.49.27-.75.39-.94.41-1.92.7-2.93.87.02,0,.04,0,.06,0-.02,0-.05,0-.07.01-.02,0-.04,0-.05,0,.01,0,.03,0,.04,0-1.02.15-2.04.18-3.07.1-.57-.06-1.13-.16-1.69-.31-.32-.29-.65-.57-1-.84-.11-.08-.21-.14-.35-.13-.06,0-.13.02-.18.04-.05.02-.1.05-.14.09-.07-.19-.26-.32-.48-.33-.14,0-.28-.02-.42-.02-.05-.04-.1-.08-.15-.11-.1-.08-.22-.14-.35-.13-.13,0-.26.06-.35.16-.01.01-.01.03-.02.04-.5-.03-1-.07-1.5-.12-3.04-.32-6.05-.9-9.05-1.5-1.17-.23-2.34-.47-3.49-.76-1.15-.29-2.29-.62-3.41-1.01-.11-.04-.22-.08-.33-.12-.33-.12-.66-.26-.99-.4-.09-.15-.25-.25-.44-.26-.05,0-.09,0-.14,0-.58-.26-1.15-.55-1.7-.87,0-.13-.06-.26-.16-.35-.1-.09-.22-.12-.35-.13-.09,0-.18-.01-.27-.02-.06-.04-.13-.08-.19-.12.02.02.04.03.06.05-.03-.02-.1-.07-.11-.07,0,0,.01,0,.02.01-.72-.52-1.38-1.1-1.96-1.77-.44-.54-.81-1.12-1.1-1.75-.24-.55-.4-1.13-.51-1.72-.1-.7-.11-1.39-.05-2.09.11-.98.3-1.96.55-2.91.24-.94.54-1.86.87-2.77,1.38-3.66,3.4-7.04,4.94-10.63.78-1.81,1.42-3.68,1.79-5.61.39-2.06.45-4.17.15-6.25-.06-.43-.14-.85-.23-1.27,1.08,1.61,2.06,3.28,2.88,5.05.8,1.79,1.43,3.66,1.76,5.6.24,1.56.29,3.14.27,4.71-.03,1.61-.15,3.22-.3,4.83,0,0,0-.01,0-.02-.14,1.38-.31,2.77-.48,4.15-.02.14-.01.25.06.38.07.11.18.19.31.22.13.03.27,0,.38-.06.1-.06.21-.19.22-.31.29-2.39.59-4.78.73-7.18.15-2.62.16-5.29-.4-7.87-.68-3.11-2.06-6.03-3.73-8.72-1.68-2.71-3.67-5.2-5.69-7.66-.51-.62-1.04-1.24-1.6-1.82-.57-.6-1.15-1.17-1.74-1.75-1.18-1.16-2.37-2.31-3.43-3.59-.75-.92-1.43-1.9-1.92-2.98-.05-.12-.1-.24-.14-.36.09.06.19.13.29.19.74.46,1.55.78,2.34,1.12.63.27,1.27.54,1.9.81,1.51.64,3.04,1.24,4.59,1.77,1.56.53,3.17.97,4.81,1.19,1.4.18,2.87.21,4.22-.27.61-.22,1.17-.55,1.65-.99.34-.31.61-.68.83-1.08.12.02.25.03.37.06.22.05.43-.05.54-.24.13,0,.26-.05.35-.14.07.02.13.05.2.08.53.18,1.07.27,1.62.31.96.06,1.93-.16,2.82-.51.89-.35,1.72-.84,2.53-1.34.76-.47,1.52-.95,2.34-1.33.43-.18.87-.33,1.33-.41.29-.04.57-.05.86-.03.29.03.58.1.85.2.37.14.71.33,1.04.55.74.53,1.36,1.2,1.95,1.9h0s.06.07.09.1c-.01-.02-.03-.03-.04-.05,1.51,1.84,2.69,3.91,3.68,6.07,0,0,0-.01,0-.02,1.11,2.48,1.96,5.06,2.66,7.68.49,1.87.9,3.76,1.25,5.66,0,.23-.02.46-.02.7Zm2.64,32.74c.35-.38.72-.74,1.12-1.07.75-.61,1.57-1.12,2.45-1.53,1.06-.47,2.18-.78,3.3-1.05-.19,3.33-.2,6.67-.53,9.99v.02s0,0,0-.01c0,.02,0,.05,0,.07,0-.02,0-.04,0-.06-.26,2.49-.71,4.96-1.57,7.32-.02.05-.04.1-.05.15-.59-.58-1.14-1.19-1.67-1.83-1.2-1.46-2.28-3.01-3.37-4.55-.74-1.05-1.48-2.1-2.27-3.11,1-1.12,1.72-2.47,2.23-3.87.04-.11.07-.22.11-.32.09-.02.18-.06.25-.13Zm8.81-1.03c-.23-.97-.53-1.93-.9-2.85.21-.05.41-.09.62-.13.49-.11.97-.22,1.45-.34-.5,1.07-.88,2.18-1.17,3.33Zm-25.19,8.9c-.11.7-.08,1.4.07,2.09.15.67.45,1.31.8,1.9.38.63.87,1.21,1.39,1.74,1.15,1.19,2.53,2.14,3.91,3.03,1.44.92,2.95,1.75,4.44,2.59,1.25.69,2.51,1.38,3.68,2.2.33.24.65.49.95.76.44.41.85.85,1.23,1.31,1.38,1.7,2.44,3.64,3.34,5.63.97,2.17,1.77,4.41,2.46,6.68-.17-.04-.33-.08-.5-.11-.39-.07-.78-.12-1.18-.15-.76-.07-1.53-.04-2.29.02-.7.06-1.41.15-2.11.21-.71.06-1.41.07-2.12,0-.76-.09-1.5-.28-2.22-.53-.85-.33-1.65-.75-2.43-1.2-.07-.04-.14-.09-.22-.13-.01-.03-.02-.07-.04-.1-1.4-2.23-2.65-4.54-3.82-6.9-1.05-2.11-2.03-4.24-3.08-6.35-1.02-2.03-2.11-4.03-3.38-5.92-1.38-2.05-2.97-3.95-4.74-5.67-1.69-1.64-3.56-3.09-5.51-4.42,1.23.24,2.45.48,3.68.7,2.42.43,4.87.78,7.33.91.23.16.47.29.71.42-.16.42-.29.84-.37,1.29Zm.97,1.5s0,.02,0,.04c0-.01,0-.04,0-.04Zm4.46,5.57s.03.02.04.03c-.01,0-.04-.03-.04-.03Zm11.01,8.5l.02.03s-.01-.02-.02-.03Zm-4.49,11.83s-.05-.02-.05-.02c.02,0,.03.01.05.02Zm-.88-28.83c.64,1.69,1.14,3.43,1.63,5.18.38,1.37.75,2.74,1.18,4.09-.32-.08-.64-.17-.95-.28-.84-.33-1.62-.77-2.36-1.28-1.73-1.23-3.2-2.79-4.64-4.33-.67-.72-1.34-1.46-2.04-2.17.04,0,.07.01.11.01,1.85.21,3.75,0,5.52-.57.54-.17,1.06-.39,1.56-.65Zm-36.21-19.88s.02-.05.02-.05c0,.02-.01.03-.02.05Zm-5.95-40.79s-.04-.08-.04-.08c.01.03.02.06.04.08Zm-.95-3.3c.03-.21.08-.41.15-.61.2-.51.49-.98.78-1.44.36-.56.74-1.11,1.09-1.67.38-.6.72-1.23.99-1.89.13-.31.24-.64.33-.96.02.03.03.06.06.08.1.09.22.14.35.13,0,0,.02,0,.02,0,.95,1.59,1.89,3.19,2.92,4.72,1.25,1.86,2.68,3.64,4.49,4.97.65.48,1.35.9,2.08,1.25.77.36,1.58.64,2.41.84.44.1.88.18,1.33.24.46.06.93.06,1.39.03.6-.04,1.2-.12,1.8-.15-.15.18-.31.36-.49.52-.26.21-.54.37-.84.52-.4.17-.83.29-1.26.36-.78.11-1.56.1-2.34.03-2.24-.24-4.42-.93-6.52-1.71.01,0,.02,0,.03.01-.03-.01-.11-.04-.12-.05h0c-1.26-.47-2.5-.98-3.73-1.51-.52-.22-1.04-.45-1.56-.66-.77-.32-1.53-.68-2.22-1.15-.27-.2-.53-.42-.75-.67-.11-.14-.2-.28-.28-.44-.05-.12-.09-.25-.12-.38-.02-.14-.02-.28,0-.42Zm4.11-10.67s0-.04,0-.06c0-.02,0-.04,0-.06,0,.02,0,.04,0,.05.04-.41.11-.82.22-1.22.3.33.62.65.95.96.09.08.19.11.3.12.34.33.67.65,1.01.98.83.81,1.65,1.63,2.53,2.4.86.76,1.78,1.46,2.76,2.07,1.07.66,2.21,1.18,3.39,1.59.56.2,1.14.34,1.7.55.82.32,1.59.73,2.31,1.23-.02-.02-.05-.03-.07-.05.03.02.05.04.08.06,0,0,.02.01.03.02,0,0-.01,0-.02-.01,1.08.78,2.04,1.7,3.02,2.61-.28.3-.53.64-.73,1-.22.39-.37.83-.45,1.27-.05.3-.05.6-.01.9-.1.07-.17.17-.2.29-.04.16-.09.32-.15.48,0,.02-.02.03-.02.05-.41,0-.82.02-1.23.06-.74.07-1.48.17-2.22.12-.95-.11-1.89-.34-2.79-.67-.91-.35-1.76-.81-2.56-1.36-1.05-.76-1.97-1.66-2.81-2.65h0s-.06-.07-.09-.1c.01.02.03.03.04.05-1.01-1.23-1.89-2.57-2.73-3.92-.76-1.22-1.49-2.47-2.24-3.7-.09-1.03-.13-2.06-.04-3.09,0,.02,0,.04,0,.05Zm7.45,3.83s.02.02.03.02c-.01,0-.03-.02-.03-.02Zm10.93,6.18h0s0-.01,0-.01c0,0,0,0,0,.01Zm-5.2,5.37s-.05,0-.05,0c.02,0,.03,0,.05,0Zm.41,2.22s-.04,0-.04,0c.01,0,.03,0,.04,0Zm6.48-2.31s.06,0,.08,0c-.03,0-.08,0-.08,0Zm7.86-2.11s.04-.02.04-.02c-.01,0-.03.01-.04.02Zm-11.93-26.2s-.06.05-.09.08c-.21-.08-.43-.15-.65-.2-.42-.08-.86-.09-1.29-.03-.62.08-1.21.27-1.77.52-.32.14-.63.3-.93.47-.93.52-1.79,1.15-2.63,1.79-.87.66-1.71,1.36-2.57,2.02-.76.58-1.53,1.15-2.38,1.6-.09.05-.19.1-.28.14-.37.17-.76.3-1.14.45-.42.16-.84.34-1.25.53-.31.14-.61.3-.89.49-.26.18-.51.38-.69.64-.18.24-.31.51-.34.82-.02.2-.01.38.02.58.02.15.07.29.13.42.07.17.15.32.24.47-.35.9-.48,1.87-.53,2.83-.02.51-.01,1.01.01,1.52-.02,0-.04.02-.06.03-.07.04-.11.1-.15.16,0,0,0,0,0,0-.06.03-.12.07-.17.12-.09.1-.12.22-.13.35,0,.04,0,.08,0,.11-.06.53-.19,1.05-.37,1.56-.48,1.23-1.22,2.31-1.94,3.41-.59.9-1.23,1.88-1.25,2.99-.01.44.13.88.35,1.26,0,.03,0,.06,0,.09.01.07.03.14.04.21-.01,0-.02,0-.03,0-.21.03-.42.05-.62.04-.09-.01-.17-.03-.25-.05-.03-.01-.06-.03-.09-.05-.02-.02-.04-.04-.06-.06-.02-.03-.04-.06-.06-.09-.02-.06-.04-.13-.05-.19-.02-.17-.02-.34,0-.51.02-.2.06-.4.1-.6.04-.21.09-.42.15-.63.1-.24.23-.46.38-.67.3-.41.63-.82.83-1.29.12-.28.17-.56.18-.86.01-.31-.04-.62-.1-.92-.13-.62-.41-1.2-.68-1.76-.28-.57-.59-1.13-.86-1.71-.2-.46-.37-.93-.46-1.42-.15-1.07-.17-2.16-.07-3.23.13-1.26.41-2.49.75-3.7.17-.62.36-1.24.54-1.85.18-.61.36-1.22.55-1.83.07-.22.15-.44.24-.67.1.12.25.2.4.2.28,0,.47-.24.49-.51,0-.07,0-.15.01-.22.02-.14.05-.27.09-.41.03-.06.06-.12.09-.18.03-.03.05-.06.08-.09.05-.03.09-.06.14-.09.11-.04.23-.07.35-.09,0,.01,0,.02.01.03.07.12.18.18.31.22.47.16.95.26,1.44.31.45.04.89.01,1.34-.06.78-.13,1.51-.49,2.16-.91.66-.43,1.27-.95,1.89-1.43.63-.49,1.28-.96,2.01-1.3.4-.18.82-.32,1.25-.4.23-.03.47-.04.71-.02.25.04.49.1.72.18.47.18.93.41,1.41.56.3.1.62.14.93.17.28.02.56,0,.84-.05.47-.08.92-.27,1.36-.46.41-.18.81-.36,1.25-.45.11-.01.21-.02.32-.01.07.01.15.03.22.05.09.04.18.08.26.14.12.1.23.2.34.32.04.05.07.1.11.15-.07.27-.06.56.02.88-.06.03-.12.06-.18.09Zm-22.43,11.44s0-.04,0-.04c0,.01,0,.03,0,.04Zm6.48-9.88s.04,0,.06,0c-.02,0-.06,0-.06,0Zm10.45-3.45s.02,0,.03.01c-.01,0-.03-.01-.03-.01Zm4.34.28s.03,0,.05,0c-.02,0-.05,0-.05,0Zm-13.76.65s.03-.07.03-.07c0,.02-.02.05-.03.07Zm1.45-15.52l-.06.02s.04-.02.06-.02Zm.02,0c.76-.34,1.54-.64,2.36-.78.29-.04.58-.06.88-.04.2.03.39.08.58.15.25.1.48.22.71.37.19.14.37.31.53.49.12.16.23.33.32.52.08.18.13.37.17.57.02.19.03.38.02.58-.03.19-.07.38-.13.56-.06.15-.14.3-.23.44-.15.2-.33.38-.53.55-.79.64-1.71,1.08-2.53,1.67-.21.15-.4.31-.59.48-.19.17-.35.37-.51.57-.35.43-.66.89-.91,1.38-.48.94-.7,1.98-.9,3.01-.19.98-.21,1.98-.3,2.96-.07.66-.16,1.33-.38,1.96-.1.25-.22.49-.37.72-.16.22-.33.43-.53.61-.06.04-.12.08-.18.12-.06.02-.12.04-.19.05-.29.04-.58.06-.86.14-.2.05-.38.13-.57.21-.14.05-.3.09-.45.11-.24.03-.48.06-.72.09-.14.02-.28.04-.42.08-.15.04-.29.1-.43.17-.1.05-.19.12-.27.2,0-.27-.01-.55-.09-.82-.16-.55-.52-1.01-.89-1.42-.35-.39-.75-.74-1.09-1.13-.13-.16-.24-.32-.33-.51-.03-.08-.05-.16-.08-.24.05.06.11.12.17.17.2.18.51.18.7-.03.18-.19.18-.53-.03-.7-.1-.08-.19-.17-.27-.27-.17-.23-.32-.48-.44-.74-.23-.54-.38-1.11-.47-1.69-.14-.94-.16-1.89-.08-2.83.08-.73.21-1.45.46-2.15.07-.17.14-.33.22-.49.06.27.37.41.62.34.27-.08.4-.36.34-.62-.05-.23-.1-.45-.15-.68.04-.01.09-.02.13-.03.24-.04.48-.08.71-.17.36-.14.7-.34,1.04-.53.59-.34,1.18-.7,1.76-1.06.86-.52,1.72-1.03,2.6-1.51.06.07.14.13.25.16.25.06.55-.1.6-.37.01-.08.02-.16.03-.24.24-.12.47-.24.71-.35Zm-7.95,16.56s-.03-.04-.03-.04c.01.01.02.03.03.04Zm.28-13.49s.02,0,.03,0c-.01,0-.03,0-.03,0Zm-.55-23.64c1.14,1.88,2.19,3.81,3.11,5.81h0c.83,1.84,1.53,3.73,2.08,5.67.25.87.46,1.76.66,2.65.19.83.35,1.66.49,2.5,0-.01,0-.02,0-.04,0,.03.02.11.02.13h0c.18,1.16.31,2.37.23,3.56-.46.24-.91.48-1.35.74-.77.44-1.53.91-2.29,1.37-.33.2-.65.4-.98.59-.3.18-.6.35-.91.5-.18.08-.36.14-.56.17-.1.01-.19.03-.29.05-.02-.09-.03-.18-.05-.26-.73-4.63-.21-9.32,0-13.97.1-2.32.12-4.66-.14-6.97-.13-1.18-.34-2.35-.63-3.5.21.34.42.68.63,1.02Zm-10.48,29.28s.02.04.03.06c-.67-1.51-1.12-3.09-1.39-4.72-.52-3.35-.31-6.75.03-10.1,0,.03,0,.06,0,.09.36-3.53.88-7.06.96-10.62.1-4.23-.07-8.47-.42-12.69-.7-8.52-2.18-16.97-4.07-25.31-.03-.14-.07-.28-.1-.42,2.08,5.44,4.06,10.92,6.27,16.31,1.55,3.77,3.22,7.49,5.11,11.1-.05.14-.05.3.03.44.46.75.87,1.53,1.24,2.33.79,1.78,1.33,3.67,1.64,5.59.71,4.6.19,9.26,0,13.88-.07,1.73-.1,3.46,0,5.18.07,1.3.22,2.61.46,3.89-.07.08-.14.16-.2.25-.14.18-.26.37-.37.57-.22.41-.38.86-.5,1.3-.13.49-.22.98-.28,1.48-.13,1.08-.12,2.17.04,3.25.08.5.18,1,.34,1.48-.34-.19-.68-.37-1.04-.53-.63-.28-1.3-.52-1.98-.63-.58-.1-1.17-.11-1.74,0-.36.06-.71.18-1.04.32-.17.08-.34.16-.51.26-.21.12-.4.25-.59.4-.73-.97-1.36-2-1.86-3.1,0-.02-.03-.06-.03-.06Zm3.32,3.44s-.02,0-.03.01c.01,0,.03-.01.03-.01Zm-1.97,19.79c-.3-.28-.61-.55-.88-.86-.16-.2-.3-.42-.42-.65-.05-.12-.08-.23-.11-.36-.02-.15-.02-.3-.01-.45.12-.87.54-1.66.63-2.54.04-.41-.01-.82-.18-1.2-.16-.37-.38-.71-.64-1.02-1.16-1.45-2.75-2.5-3.95-3.91-.23-.29-.45-.59-.61-.92-.07-.16-.12-.31-.15-.48-.03-.27,0-.54.02-.8.02-.17.05-.34.1-.51,0-.02.02-.03.02-.05.13.03.25.07.37.12,0,0,0,0-.01,0,.2.07.4.15.6.19.3.06.62.05.91-.04.34-.1.63-.33.87-.59.18-.19.34-.41.51-.61.17-.2.34-.41.5-.62.58-.72,1.15-1.46,1.76-2.16.35-.41.7-.8,1.09-1.18.03.03.05.06.08.09.08.09.24.13.35.13.13,0,.26-.06.35-.16.09-.1.14-.22.13-.35,0-.14-.07-.24-.16-.35.28-.2.56-.39.87-.53.29-.12.59-.21.9-.27.34-.05.69-.05,1.03-.02.5.06.98.19,1.46.36-.02,0-.05-.02-.07-.03.03.01.05.02.08.03.7.27,1.37.62,2.02,1.01-.05.31-.03.62.05.93.09.33.27.64.48.9.43.56.98,1.01,1.44,1.54.16.2.3.4.41.63.05.12.09.25.11.37.01.14.01.27,0,.41-.07.6-.29,1.17-.49,1.73-.21.59-.39,1.19-.57,1.79-.39,1.28-.78,2.55-1.08,3.86-.3,1.31-.49,2.64-.48,3.98,0,.71.06,1.42.18,2.11.11.66.4,1.29.69,1.9.29.6.62,1.18.9,1.79.19.42.34.84.43,1.29.03.21.04.41.03.62-.02.1-.04.19-.07.28-.1.24-.23.45-.38.66-.19.27-.39.53-.57.8-.2.3-.33.63-.41.98-.13.55-.26,1.13-.21,1.7.02.27.09.5.21.74.12.23.33.41.56.54.27.15.59.19.9.19.26,0,.52-.03.77-.08.65,2,2.02,3.73,3.44,5.26.89.97,1.84,1.88,2.78,2.8.9.88,1.8,1.78,2.6,2.75-.03-.03-.06-.07-.08-.1,1.3,1.58,2.6,3.18,3.82,4.83-.06.11-.08.24-.04.37.26.88.48,1.78.63,2.69,0-.02,0-.04,0-.06,0,.03.02.12.02.13,0,0,0-.02,0-.02.23,1.5.28,3.02.14,4.53,0,0,0-.01,0-.02,0,0,0,.09-.01.13,0-.02,0-.04,0-.07-.19,1.86-.67,3.68-1.32,5.43,0,0,0-.01,0-.02,0,.01-.02.05-.02.05h0c-1.37,3.63-3.39,7-4.92,10.57-.81,1.88-1.48,3.83-1.88,5.83-.23,1.15-.4,2.33-.29,3.51.1,1.15.45,2.26,1.01,3.27.46.82,1.07,1.55,1.76,2.19-.16-.05-.33-.1-.49-.16-.55-.21-1.08-.48-1.56-.81-.37-.27-.71-.58-1.01-.92-.21-.26-.39-.54-.54-.84.02-.15-.03-.31-.15-.41-.02-.02-.05-.04-.07-.06,0,0,0-.01,0-.02-.05-.13-.12-.23-.25-.3-.04-.02-.09-.03-.14-.04-.07-.07-.13-.13-.19-.2-.24-.3-.44-.62-.6-.97-.18-.43-.3-.87-.38-1.32-.11-.78-.11-1.57-.04-2.35,0-.04.01-.11.01-.11,0,.04,0,.07-.01.11.18-1.67.61-3.3,1.1-4.91.5-1.65,1.09-3.27,1.62-4.91.24-.73.46-1.46.65-2.2.16-.62.29-1.26.36-1.9.12-1.19.08-2.39-.06-3.57-.14-1.14-.38-2.25-.62-3.37-.19-.87-.38-1.75-.53-2.63,0,.01,0,.03,0,.04,0-.02-.02-.11-.02-.13,0,0,0,.02,0,.03-.16-1.09-.24-2.18-.27-3.29-.02-.87,0-1.73,0-2.6,0-.76-.05-1.51-.18-2.27-.14-.81-.41-1.57-.75-2.31-.45-.99-1.06-1.9-1.7-2.77-.73-.99-1.51-1.94-2.29-2.89-.74-.9-1.49-1.8-2.19-2.73-.71-.93-1.38-1.9-1.97-2.92-.35-.6-.68-1.23-.97-1.86h0s-.04-.07-.06-.11c.01.02.02.05.03.07-.21-.47-.41-.95-.61-1.42-.21-.5-.43-1-.65-1.5-.45-1.02-.92-2.03-1.39-3.03-.22-.47-.44-.93-.67-1.4-.19-.4-.36-.82-.62-1.18-.22-.31-.5-.57-.77-.82Zm9.24,57.29s0-.04,0-.06c0-.02,0-.05-.01-.07,0,.02,0,.04,0,.06-.13-.85-.18-1.71-.21-2.57-.04-.93-.05-1.86-.04-2.78.02-1.88.12-3.75.18-5.62.14-3.64.18-7.33-.62-10.9-.46-2.07-1.23-4.07-2.07-6.01-.86-1.97-1.81-3.9-2.7-5.85,0,0,0,.01,0,.01,0,0,0,0,0-.02-.02-.04-.03-.07-.05-.11,0,.02.01.03.02.05-1.11-2.48-2.12-5.04-2.57-7.73-.21-1.37-.27-2.76-.14-4.15.14-1.27.43-2.51.86-3.7.16-.43.34-.86.54-1.27.31.7.62,1.4.92,2.11.36.84.73,1.68,1.16,2.48.78,1.46,1.74,2.8,2.75,4.1,1.02,1.31,2.11,2.57,3.14,3.87,1,1.26,1.98,2.56,2.65,4.03.28.66.49,1.34.62,2.05.12.81.13,1.62.13,2.44,0,1.04,0,2.07.04,3.11.07,1.31.26,2.61.52,3.9.26,1.27.57,2.53.78,3.81.2,1.33.28,2.69.16,4.03-.07.62-.2,1.23-.35,1.83-.19.74-.42,1.47-.65,2.2-.53,1.64-1.11,3.26-1.62,4.91-.49,1.61-.93,3.25-1.1,4.92-.15,1.43-.12,2.93.47,4.26.3.68.73,1.27,1.28,1.76.1.23.21.45.33.67.2.33.44.63.69.92.49.55,1.11.99,1.75,1.34.64.35,1.33.59,2.03.77.51.13,1.03.21,1.55.26.09.06.17.11.26.16-1.27-.19-2.53-.49-3.74-.93-1.01-.39-1.97-.88-2.85-1.49-.71-.51-1.36-1.1-1.92-1.77-.02-.03-.07-.09-.07-.09.03.03.05.06.07.09-.55-.68-1.01-1.42-1.37-2.22-.39-.91-.66-1.86-.83-2.83,0,.02,0,.03,0,.05Zm.87,2.9s-.04-.1-.04-.1c.01.03.03.07.04.1Zm-7.83,12.15s.03.02.05.03c-.02-.01-.05-.03-.05-.03Zm-.05-.04c-1.26-.9-2.46-1.88-3.58-2.94-1.36-1.28-2.59-2.68-3.78-4.12-3.99-4.85-7.46-10.1-11.02-15.26-3.37-4.89-6.89-9.71-11-14,3.74,2.76,7.34,5.71,11.02,8.55,4.33,3.33,8.81,6.53,13.72,8.96,1.58.78,3.2,1.47,4.87,2.06.41.14.82.25,1.24.33.41.08.82.12,1.23.16.41.04.82.09,1.23.15.47.07.92.18,1.36.33.18.07.36.15.54.24.04.02.08.03.13.03.08.68.2,1.36.38,2.02.37,1.38,1.01,2.7,1.89,3.83.85,1.1,1.9,2,3.09,2.72,1.21.74,2.56,1.26,3.93,1.64,1.48.4,3.02.61,4.55.7.08,0,.16,0,.24.01.76.34,1.55.64,2.34.91,1.12.38,2.25.69,3.4.97.69.16,1.38.31,2.07.45,0,0-.01.01-.02.02-.06.11-.07.25-.04.37.04.14.13.22.25.3.42.28.84.56,1.26.86,2.67,1.9,5.14,4.09,7.24,6.61,1.46,1.77,2.72,3.69,3.85,5.69,1.12,1.99,2.11,4.06,3.1,6.12.78,1.62,1.56,3.24,2.38,4.84.63,1.22,1.29,2.42,1.99,3.6-.03-.02-.05-.04-.08-.05-4.41-3.14-8-7.23-12.17-10.65-2.08-1.71-4.32-3.24-6.77-4.36-1.17-.54-2.38-1.01-3.58-1.46-1.15-.43-2.31-.82-3.49-1.2-4.4-1.4-8.92-2.45-13.26-4.04.02,0,.04.01.06.02-.04-.01-.12-.04-.12-.04-1.42-.53-2.81-1.12-4.16-1.8-1.49-.74-2.91-1.59-4.27-2.54Zm47.85,26.14s-.03-.02-.03-.02c.01,0,.02.02.03.02Zm11.34,9c-1.26,1.53-2.59,3.02-4.11,4.3,0,0,.01-.01.02-.02,0,0-.08.06-.1.09.02-.01.03-.03.05-.04-.95.77-1.96,1.45-3.07,1.97,0,0-.08.04-.12.06.03-.02.07-.03.1-.05-.84.37-1.72.64-2.62.79-.9.13-1.81.15-2.72.07-1.21-.13-2.4-.42-3.54-.83.03.01.06.02.08.03-.03-.01-.11-.04-.12-.04,0,0,.01,0,.02,0-1.11-.42-2.16-.98-3.13-1.66-1.62-1.17-2.99-2.63-4.26-4.17-3.36-4.09-6.18-8.58-9.14-12.96-1.52-2.25-3.09-4.48-4.78-6.61-1.67-2.1-3.45-4.11-5.43-5.92-1.51-1.38-3.15-2.63-4.9-3.69-.09-.05-.18-.1-.27-.15,3.44,1.09,6.95,1.98,10.39,3.07,1.11.35,2.2.73,3.29,1.13,1.35.5,2.69,1.04,3.99,1.65,1.36.65,2.65,1.43,3.88,2.3,4.4,3.13,7.99,7.22,12.15,10.64,1.04.86,2.12,1.66,3.24,2.4.55.36,1.11.7,1.68,1.03.67.38,1.35.73,2.07,1.01.58.23,1.17.41,1.78.53.57.12,1.16.17,1.74.19,1.04.03,2.08-.12,3.12-.22.91-.09,1.82-.12,2.73-.05.64.07,1.26.2,1.88.37-1.33,1.56-2.58,3.19-3.89,4.78Zm18.25,31.66c.26,1.09.52,2.18.7,3.28,0-.02,0-.04,0-.06,0,.03,0,.05.01.08,0,.02,0,.03,0,.05,0,0,0-.02,0-.03.19,1.26.28,2.55.16,3.82-.06.53-.16,1.06-.34,1.57-.09.24-.2.47-.35.69-.08.11-.17.21-.27.3-.06.05-.13.09-.2.13-.06.02-.12.04-.19.06-.06,0-.13,0-.19,0-.09-.02-.19-.04-.28-.07-.15-.07-.3-.15-.44-.24-.33-.25-.62-.54-.88-.86-.76-.96-1.34-2.06-1.85-3.18-.76-1.74-1.32-3.56-1.78-5.41-.52-2.08-.9-4.19-1.24-6.3-.37-2.34-.68-4.69-1.03-7.03-.32-2.19-.66-4.38-1.15-6.54-.18-.82-2.01-9.01-2.48-10.97-1-4.17-2.13-8.34-3.74-12.32-.73-1.82-1.58-3.6-2.61-5.28-.46-.75-.97-1.47-1.53-2.15-.5-.61-1.02-1.19-1.62-1.69-.62-.53-1.32-.98-2.01-1.41-.84-.52-1.71-1-2.57-1.48-1.94-1.08-3.88-2.15-5.7-3.43-1.09-.78-2.13-1.63-2.99-2.65.01.01.02.03.03.04-.01-.01-.03-.04-.03-.04-.02-.02-.05-.06-.05-.06.02.02.03.04.05.06-.4-.49-.75-1.01-1.02-1.58-.18-.4-.31-.81-.38-1.24-.05-.37-.06-.74-.03-1.12.05-.43.16-.86.3-1.27,0-.02.01-.03.02-.05.04.01.07.03.11.05.23.09.47.16.7.23.65.6,1.27,1.24,1.87,1.88,1.06,1.13,2.1,2.28,3.2,3.37,1.96,1.95,4.29,3.81,7.09,4.26.04.11.07.22.11.32.09.25.35.42.62.34.25-.07.43-.36.34-.62-.06-.18-.12-.36-.18-.53,0-.07-.03-.15-.07-.21,0,0,0,0,0-.01-.53-1.56-.96-3.16-1.41-4.75-.51-1.81-1.03-3.63-1.7-5.39.41-.26.79-.56,1.15-.89,1.18,1.53,2.26,3.13,3.39,4.69.7.97,1.42,1.93,2.18,2.86.71.87,1.47,1.7,2.3,2.46.1.09.22.14.35.13.17,0,.36-.11.43-.27.6-1.43,1.05-2.92,1.37-4.44.34-1.58.54-3.19.68-4.81.2-2.27.26-4.55.35-6.83.17.64.3,1.29.41,1.94,0-.01,0-.02,0-.03,0,.01.02.1.02.13,0-.02,0-.04,0-.05.05.35.1.7.14,1.05-.18,1.73-.2,3.47-.1,5.21.03.48.06.95.1,1.43-.03.31-.05.63-.08.94,0,0,0-.01,0-.02-.43,4.27-1.21,8.51-1.23,12.81,0,1.08.05,2.16.16,3.23.12,1.18.35,2.34.59,3.5.17.8.34,1.59.53,2.39-.03.08-.06.17-.1.25-.05.13-.08.24-.04.37.04.13.13.24.25.3.03.02.07.02.11.03.39,1.65.81,3.29,1.26,4.92,3,10.97,7.06,21.62,9.94,32.63.3,1.16.59,2.31.86,3.47Zm-11.7-43.9c-.2-.93-.4-1.85-.55-2.79-.46-2.99-.35-6.02-.06-9.02,0-.01,0-.02,0-.03,0,0,0,.02,0,.03,0-.02,0-.04,0-.06,0,.01,0,.02,0,.03.15-1.5.35-3.01.54-4.51.29,2.41.61,4.82.76,7.25.11,1.85.13,3.71-.05,5.55-.12,1.2-.34,2.38-.64,3.55Zm-.54-2.71s0-.04,0-.04c0,.01,0,.02,0,.04Zm8.51-33.87c-.48.95-.77,2-.95,3.05-.37,2.16-.3,4.36-.28,6.53,0,.79,0,1.59,0,2.38.01.75.03,1.49.06,2.24.07,1.78.15,3.57.22,5.35.15,4.01.21,8.05-.18,12.05v.05c-.24,2.26-.62,4.53-1.4,6.67-.35.92-.77,1.81-1.33,2.62-.39.55-.83,1.05-1.34,1.48-.32.26-.67.48-1.03.67-.05.03-.09.07-.12.11-.42-1.55-.81-3.1-1.17-4.66.3-.84.55-1.69.74-2.56.24-1.09.39-2.19.48-3.3.19-2.2.1-4.42-.08-6.62-.29-3.5-.86-6.97-1.14-10.46.05-.57.09-1.14.12-1.71.08-1.62.06-3.25-.12-4.86.18-1.56.51-3.11,1.05-4.59.26-.69.57-1.35.91-2,.85-.25,1.67-.57,2.47-.94.8-.37,1.56-.83,2.31-1.29.36-.22.71-.45,1.06-.68-.1.16-.19.32-.28.49Zm-3.81.72s.1-.04.1-.04c-.03.01-.07.03-.1.04Zm11.51-48.7s0-.04,0-.04c0,.01,0,.03,0,.04Zm-5.03-18.28c1.61,3.6,2.56,7.47,3.18,11.35.24,1.5.42,3.01.57,4.52.08.86.17,1.71.31,2.56.14.88.32,1.76.53,2.63.83,3.53,2.11,6.94,3.25,10.37.88,2.66,1.69,5.35,2.14,8.12.3,1.96.41,3.95.23,5.93-.18,1.7-.58,3.35-1.16,4.96,0-.01.01-.03.02-.04-.01.03-.04.11-.04.12h0c-.79,2.07-1.86,4.03-3.13,5.85-1.71,2.41-3.74,4.57-6.01,6.45-.96.79-1.96,1.53-3,2.22-.51.34-1.03.66-1.56.97-.59.35-1.19.68-1.82.96-.66.29-1.35.53-2.04.74-.08,0-.15,0-.22.04-.03.01-.05.03-.07.05-.4.11-.8.22-1.2.32-1.18.28-2.37.51-3.55.81-1.18.3-2.34.71-3.43,1.27-.81.42-1.55.95-2.23,1.54.21-.88.36-1.77.47-2.67.21-1.73.27-3.48.24-5.23-.05-3.3-.41-6.59-.77-9.87-.18-1.62-.33-3.25-.5-4.87-.23-2.08-.49-4.16-.81-6.23-.16-1.01-.33-2.02-.51-3.03.02-.64.06-1.28.12-1.92.18-1.74.51-3.46.88-5.17.39-1.77.79-3.52,1.24-5.28.81-3.17,1.76-6.31,2.9-9.38,1.24-3.31,2.69-6.54,4.34-9.67.88-1.68,1.81-3.33,2.78-4.96.24-.4.48-.8.71-1.21.25-.44.48-.89.7-1.34.43-.88.79-1.79,1.12-2.72.6-1.71,1.01-3.49,1.2-5.29.76.61,1.45,1.3,2.08,2.05,1.25,1.52,2.24,3.23,3.06,5.02Zm-12.78-22.21s0,0,0,0c0,0,0,0,0,0,.02-.01.03-.03.04-.04-.01.01-.02.02-.04.03.84-.69,1.69-1.36,2.57-2,.67-.48,1.37-.96,2.12-1.31.14-.06.29-.11.43-.15.01,0,.03,0,.04,0,.02.02.05.04.07.06.06.08.1.15.14.24.1.24.16.49.21.75.08.53.09,1.07.08,1.6,0,.66-.06,1.32-.12,1.98,0,0,0-.01,0-.02-.19,1.87-.5,3.72-.8,5.57-.11.72-.22,1.45-.3,2.18-.03.31-.04.62-.04.94,0,.66.03,1.32.14,1.98.09.57.25,1.12.52,1.64.08.17.19.32.3.47-.17-.02-.33-.04-.5-.05-.91-.06-1.81,0-2.68.27-.86.27-1.63.76-2.33,1.33-.7.57-1.34,1.2-2.03,1.78,0,0-.07.06-.1.08.02-.02.04-.04.06-.05-.46.38-.95.72-1.49.98-.31.13-.62.23-.95.29-.51.08-1.02.06-1.53.03.11-.05.19-.19.22-.31.03-.13,0-.26-.06-.38-.07-.11-.18-.19-.31-.22h0c.27-.6.62-1.16.99-1.69.42-.6.87-1.19,1.23-1.83.37-.65.63-1.37.72-2.11.1-.89-.03-1.79-.33-2.64-.25-.74-.63-1.43-.96-2.15-.15-.34-.28-.69-.35-1.06-.03-.19-.03-.39-.02-.58.03-.2.08-.4.14-.59.12-.31.29-.6.48-.87.18-.24.38-.46.59-.68.34-.35.69-.69,1.04-1.02.9-.85,1.83-1.66,2.79-2.45Zm-4.63,12.95s.02-.07.02-.07c0,.02-.02.05-.02.07Zm-.04-5.67s.02.06.04.08c-.01-.03-.04-.08-.04-.08Zm-1.26-4.44c.13-.01.26,0,.38,0,.13,0,.26,0,.38.02.1.01.2.03.3.07.04.02.08.04.12.06-.11.12-.22.23-.32.35-.65.8-1.09,1.82-.96,2.86.12.98.63,1.84,1.04,2.73.26.57.46,1.16.57,1.77.05.38.07.77.04,1.16-.04.34-.12.68-.23,1.01-.25.65-.63,1.23-1.02,1.8,0-.01.02-.03.03-.04-.02.03-.07.1-.07.1-.37.52-.75,1.04-1.08,1.59-.39.63-.69,1.32-.87,2.04-.01.05-.01.11,0,.16-.57,0-1.14.04-1.7.13-.69.11-1.36.32-2,.6-.01,0-.04.02-.04.02-2.68,1.21-4.59,3.55-6.48,5.71-.44.51-.87,1.04-1.39,1.48-.51.4-1.07.71-1.65.99-.57.28-1.15.54-1.7.86-.49.29-.94.65-1.28,1.1-.28.36-.47.76-.61,1.19-.13.38-.18.78-.22,1.19-.04.4-.04.8-.03,1.2.01.76.08,1.51,0,2.27-.03.28-.09.56-.18.82-.06.16-.14.31-.24.46-.11.14-.23.27-.36.39-.18.15-.39.26-.6.37-.21.09-.42.15-.65.19-.43.06-.86.04-1.3,0-.02,0-.08,0-.08,0,.02,0,.05,0,.08,0-.8-.08-1.6-.22-2.4-.12-.21.02-.42.07-.63.12-.21.06-.41.15-.61.25,0,0,0,0,0,0,.02-.14.03-.27.05-.41.02-.12.04-.23.08-.34.2-.5.52-.93.83-1.37.15-.22.3-.43.43-.66.16-.28.26-.58.36-.88.45-1.38.54-2.86.64-4.3.07-1.07.14-2.14.13-3.21,0-1.12-.08-2.23-.24-3.34-.16-1.14-.41-2.27-.79-3.35-.37-1.04-.87-2.05-1.55-2.92-.6-.77-1.33-1.42-2.16-1.92.01-.03.03-.07.03-.1.08-.04.16-.08.24-.12.58-.25,1.18-.45,1.8-.56.55-.08,1.11-.08,1.67-.03.53.06,1.06.16,1.58.28.59.13,1.16.29,1.73.48.37.12.74.27,1.12.31.11.01.21.02.32.02.11,0,.21-.02.32-.04.21-.03.41-.13.6-.23.2-.1.38-.24.55-.39.28-.23.54-.48.79-.73.36-.36.68-.76.99-1.16.66-.87,1.23-1.8,1.8-2.73.61-1.01,1.21-2.03,1.88-3-.01.02-.03.04-.04.05.02-.03.07-.1.07-.11h0c.61-.85,1.3-1.66,2.11-2.33.49-.39,1.01-.72,1.58-.98.54-.23,1.1-.39,1.68-.5-.02,0-.04,0-.07.01.02,0,.05,0,.07-.01.5-.07,1.01-.11,1.52-.07.87.1,1.7.39,2.57.48.48.06.97.07,1.44-.04.23-.05.44-.16.65-.26.2-.09.39-.19.58-.29.13-.06.26-.1.4-.14Zm-10.52,1.86s.06-.05.06-.05c-.02.02-.04.03-.06.05Zm1.57-1.01s.07-.03.07-.03c-.02,0-.04.02-.07.03Zm5.98-1.11s.05,0,.08,0c-.03,0-.08,0-.08,0Zm1.68-1.09s-.03-.04-.03-.04c.01.01.02.03.03.04Zm-5.63-5.4s.02-.06.03-.09c0-.01,0-.02.01-.03,0,0,0,.02,0,.02.13-.33.27-.65.46-.94.07-.09.14-.18.23-.26.04-.03.08-.05.12-.08.04-.01.08-.03.13-.03.05,0,.11,0,.16,0,.05,0,.1.02.15.03.07.03.13.06.2.1.1.08.2.17.28.27.26.33.46.72.64,1.1.5,1.15.83,2.36,1.25,3.54.21.58.44,1.16.73,1.69.12.21.25.41.4.6.09.11.18.21.28.31.06.06.13.1.2.15-.11.04-.21.08-.32.1-.3.03-.59.03-.89,0-.6-.07-1.18-.22-1.77-.35-.3-.06-.61-.11-.92-.14-.33-.03-.65-.03-.97-.01-.94.06-1.85.29-2.7.66-.21.09-.41.19-.62.31-.93.51-1.74,1.24-2.45,2.03-.73.82-1.34,1.74-1.93,2.67-.82,1.31-1.57,2.67-2.46,3.94-.57.79-1.2,1.54-1.94,2.17-.17.13-.34.25-.53.35-.08.03-.17.06-.26.08-.08,0-.16,0-.24,0-.24-.03-.46-.11-.69-.18-.37-.12-.73-.25-1.1-.35-.47-.14-.95-.24-1.43-.34-.42-.09-.84-.16-1.27-.2-.39-.04-.78-.06-1.16-.04-.4.02-.81.08-1.2.16-.5.11-.99.29-1.46.49,0-.04,0-.07,0-.11,0-.03.01-.06.02-.09.05-.06.07-.14.09-.21.02-.03.03-.07.05-.1.09-.12.19-.22.3-.32.32-.26.69-.45,1.07-.63.77-.33,1.57-.56,2.38-.79.38-.11.76-.22,1.14-.34.71-.22,1.42-.42,2.12-.65.01,0,.02,0,.03-.01.18.07.4.03.54-.13.03-.03.04-.06.06-.1.48-.19.94-.41,1.38-.67.66-.38,1.26-.89,1.75-1.47.4-.47.71-1.01.94-1.58.22-.55.38-1.13.53-1.7.14-.52.27-1.04.45-1.55.17-.43.37-.84.63-1.22.18-.25.38-.48.61-.68.14-.11.29-.2.44-.28.16-.07.32-.11.49-.15.65-.08,1.31.03,1.96,0,.4-.01.81-.08,1.19-.22.41-.14.82-.35,1.14-.64.1-.09.19-.2.27-.31.11-.16.22-.33.31-.5.18-.35.32-.73.45-1.1.26-.74.46-1.5.73-2.24,0,.02-.01.03-.02.05Zm-4.3-2.27c.14.06.28.13.41.22.88.65,1.46,1.66,2.48,2.13.11.05.22.06.32.04-.23.7-.43,1.41-.68,2.09-.13.34-.28.68-.48.98-.07.09-.14.17-.22.25-.15.11-.32.2-.49.28-.23.1-.47.17-.72.22-.66.09-1.32,0-1.98,0-.34,0-.69.05-1.01.16-.42.14-.77.38-1.1.68-.37.33-.67.76-.92,1.19-.26.44-.44.92-.6,1.4-.29.87-.45,1.78-.76,2.65-.16.42-.36.81-.61,1.18-.27.36-.58.69-.93.99-.48.39-1.01.7-1.56.96-.16.07-.32.13-.48.19-.03-.05-.07-.11-.1-.16-.06-.14-.1-.28-.15-.43-.07-.22-.15-.43-.25-.65-.19-.42-.49-.79-.78-1.14-.5-.61-1.14-1.09-1.8-1.51-1.22-.76-2.6-1.22-3.78-2.04-.36-.26-.7-.56-1-.89.12-.04.25-.07.38-.1.33-.08.67-.16.99-.28.32-.11.61-.27.85-.5.22-.21.4-.46.56-.72.27-.44.43-.96.53-1.47.1-.52.14-1.06.19-1.59,0,.02,0,.04,0,.05.05-.46.11-.92.26-1.36.06-.16.14-.31.24-.46.09-.12.19-.22.29-.32.14-.11.3-.2.46-.28.28-.12.57-.2.86-.25.45-.06.89-.06,1.34-.02.79.09,1.57.27,2.34.44.84.18,1.69.34,2.55.35.45,0,.89-.04,1.33-.13.43-.08.87-.23,1.25-.43.12-.06.23-.15.33-.23.16-.13.32-.26.47-.39.27-.24.54-.48.81-.71.2-.17.41-.34.65-.46.02,0,.03-.01.05-.02.05,0,.09,0,.14,0,.11.02.22.04.32.08Zm-4.43,1.22s.04,0,.05,0c-.02,0-.05,0-.05,0Zm9.14-24.5s.02-.04.02-.06l-.02.06Zm23.36-42.07c-.73,2.35-1.52,4.69-2.37,7-1.09,2.91-2.3,5.77-3.68,8.55-.72,1.44-1.48,2.86-2.29,4.26-.81,1.4-1.68,2.78-2.61,4.1-.76,1.06-1.62,2.03-2.53,2.96-.91.94-1.87,1.82-2.81,2.72-.94.9-1.87,1.82-2.74,2.8-.79.89-1.49,1.85-2.13,2.85-1.19,1.85-2.13,3.86-2.92,5.92-.83,2.14-1.49,4.34-2.06,6.57-.73,2.83-1.32,5.69-1.9,8.55-.55,2.72-1.1,5.44-1.8,8.13-.04.17.02.33.13.45-.45.36-.87.75-1.31,1.12-.12.1-.25.2-.4.28-.37.15-.74.26-1.13.33-.47.07-.94.07-1.41.03.02-.8.07-1.59.15-2.38.54-5.28,2.17-10.37,3.69-15.43,1.45-4.83,2.83-9.71,3.23-14.75.01-.13-.07-.27-.16-.35-.09-.09-.22-.13-.35-.13-.07,0-.13.02-.19.04-.06.03-.12.07-.16.12-.08.09-.11.18-.12.29-.29-.17-.58-.34-.86-.54-.85-.62-1.6-1.34-2.28-2.13-1.08-1.32-1.94-2.81-2.66-4.35,0-.02-.02-.05-.02-.05,0,.02.02.03.02.05-.88-1.96-1.55-4.01-2.11-6.08-.56-2.08-1-4.19-1.42-6.31-.37-1.89-.72-3.79-1.13-5.68-.26-1.17-.55-2.34-.82-3.51-.32-1.41-.61-2.82-.9-4.24-1.33-6.54-2.44-13.15-4.02-19.64,1.17,3.21,2.17,6.48,3.08,9.77,1.46,5.24,2.69,10.54,3.99,15.83-.03.78-.03,1.55.02,2.33.02.27.24.49.51.48.06,0,.11-.02.17-.04.5,1.98,1.01,3.95,1.55,5.92.37,1.32.75,2.63,1.15,3.94.14.47.29.93.43,1.4.11.38.22.76.32,1.13.47,1.69.95,3.39,1.7,4.98.68,1.43,1.7,2.85,3.24,3.4,1.16.42,2.48.25,3.59-.24,1.06-.46,1.97-1.19,2.76-2.04.91-.97,1.66-2.1,2.32-3.26.76-1.33,1.4-2.73,1.97-4.15,1.29-3.17,2.26-6.47,3.12-9.78.81-3.12,1.5-6.27,2.17-9.43.27-1.24.53-2.49.81-3.73.2-.88.4-1.75.67-2.61,1.68-5.36,2.94-10.84,4.54-16.22.04-.12.07-.24.11-.36-1.14,10.47-3.45,20.78-6.44,30.87-1.61,5.43-3.42,10.8-5.37,16.12-.02.09-.02.17,0,.25.04.13.13.24.25.3.19.1.46.07.6-.1,3.24-4.05,6.14-8.35,8.79-12.8,2.75-4.62,5.21-9.41,7.44-14.3.59-1.3,1.16-2.6,1.72-3.91.09-.07.17-.16.18-.28.01-.07.02-.15.03-.22.17-.41.35-.83.52-1.24-.61,2.16-1.24,4.32-1.9,6.46Z"/><polygon class="cls-1" points="86.49 140.06 86.5 140.06 86.48 140.07 86.49 140.06"/><path class="cls-1" d="m95.21,83.66s-.01.04-.01.04c0,0,.01-.03.01-.04Z"/><path class="cls-1" d="m65.53,98.17s-.01.04-.02.05h0s0-.04.01-.05Z"/><path class="cls-1" d="m48.34,177s0,.05.01.08c0,0,0-.06-.01-.08Z"/><path class="cls-1" d="m45.81,67.61s0-.01,0-.02c0,0,0,.01,0,.02,0,0,0,0,0,0Z"/></g></svg>