<svg xmlns="http://www.w3.org/2000/svg" xmlns:xlink="http://www.w3.org/1999/xlink" width="86.943" height="105.883" viewBox="0 0 86.943 105.883">
  <defs>
    <clipPath id="clip-path">
      <rect id="Rectangle_15" data-name="Rectangle 15" width="86.943" height="105.883" fill="none"/>
    </clipPath>
  </defs>
  <g id="Group_19" data-name="Group 19" transform="translate(0 0)">
    <g id="Group_18" data-name="Group 18" transform="translate(0 0)" clip-path="url(#clip-path)">
      <path id="Path_86" data-name="Path 86" d="M27.2,24.968a.314.314,0,0,1,.523-.3c2.431,2.476,7.986.281,11.143.917,2.75.554,5.9,3.463,8.412.2.751-.975,1.177-.986,2.432-.958a.342.342,0,0,1,0,.684c-1.624.082-3.688,2.3-5.587,2.63-2.313.4-4.588-1.712-6.841-1.882-2.3-.174-9.109,1.924-10.082-1.287" transform="translate(-10.764 18.521)" fill="#42110f" fill-rule="evenodd"/>
      <path id="Path_87" data-name="Path 87" d="M15.833,26.972a.168.168,0,0,1-.026-.117,9.086,9.086,0,0,1-2.874-1.063c-.437-.247-.053-.838.381-.654a8.63,8.63,0,0,0,3.646.765.165.165,0,0,1,.182-.018l.032.016a8.913,8.913,0,0,0,1.177-.13.118.118,0,0,1,.146-.14,1.643,1.643,0,0,1,.158.077c2.267-.47,4.339-1.629,7.183-1.857a15.665,15.665,0,0,1,7.974,1.615c.338.154.1.7-.251.593a18.483,18.483,0,0,0-8.521-.926,10.022,10.022,0,0,1,3.4,2.732.185.185,0,0,1-.263.261c-1.049-.972-2.492-1.717-3.32-2.9-.016-.023,0-.046.005-.068-.258.042-.521.095-.784.149A14.253,14.253,0,0,1,27.4,28.34a.287.287,0,0,1,.021.391c.072.072.149.13.219.21.216.242-.128.593-.356.358a3.218,3.218,0,0,0-1.484-.88.343.343,0,0,1-.552.1c-.077-.077-.163-.149-.242-.223a5.074,5.074,0,0,0-.97.056l.037.047c.21.277-.268.644-.484.372-.081-.1-.174-.184-.258-.279a11.666,11.666,0,0,0-1.138.349c.033.032.07.065.1.1a.251.251,0,0,1-.354.354c-.093-.089-.2-.172-.293-.258-3.428,1.3-7.08,3.513-9.024-.356-.107-.21.119-.493.344-.344,1.294.852,2.222,1.506,3.591,1.5a8.02,8.02,0,0,1-1.836-1.8.1.1,0,0,1,.137-.137c.814.57,1.475,1.322,2.3,1.885l.005.009c.156-.021.31-.039.48-.075.209-.046.414-.116.621-.177-.661-1.007-1.685-1.634-2.431-2.578m9.449.586a3.905,3.905,0,0,1,.665.186c-.219-.224-.433-.452-.658-.668-.609-.591-1.324-1.043-1.959-1.591-.1.023-.2.056-.295.081a11.94,11.94,0,0,1,2.246,1.992m-1.875.047a5.515,5.515,0,0,1,.7-.116c-.638-.554-1.278-1.107-1.864-1.7-.263.082-.54.182-.814.279a6.646,6.646,0,0,1,1.98,1.536M21.8,28.08a8.539,8.539,0,0,1,.826-.284c-.605-.524-1.257-.977-1.9-1.489-.3.11-.589.2-.88.284.126.121.251.24.374.354.447.407.875.835,1.308,1.257.093-.042.186-.084.277-.123m-.824.367c-.335-.293-.663-.6-1-.886-.289-.24-.617-.5-.91-.777-.207.044-.41.077-.614.109l.27.268q.8.794,1.591,1.589c.223-.1.445-.2.665-.3m-2.075.891c.224-.086.451-.168.672-.263q-.616-.618-1.235-1.236c-.275-.279-.565-.552-.824-.847a7.373,7.373,0,0,1-1.114-.033,6.306,6.306,0,0,1,2.5,2.38" transform="translate(30.881 17.941)" fill="#42110f" fill-rule="evenodd"/>
      <path id="Path_88" data-name="Path 88" d="M52.691,27.061c-4.414,4.342-8.375,3.66-13.926,1.992C35.178,27.977,28.251,32.22,26.877,27.2a.3.3,0,0,1,.545-.23,3.508,3.508,0,0,0,3.209,1.626c-.072-.093-.153-.181-.216-.277a.144.144,0,0,1,.195-.2,4.825,4.825,0,0,1,.631.489,16.555,16.555,0,0,0,1.691-.126,9.543,9.543,0,0,1-1.119-.8,3.4,3.4,0,0,1-1.177-1.352.192.192,0,0,1,.233-.233,3.86,3.86,0,0,1,1.271.989A8.073,8.073,0,0,0,33.8,28.243a.3.3,0,0,1,.119.112l.505-.074c-.568-.551-1.145-1.094-1.694-1.662a.089.089,0,0,1,.107-.139,7.347,7.347,0,0,1,2.227,1.706c.451-.07.882-.13,1.284-.172a17.213,17.213,0,0,0-1.361-1.082c-.081-.06-.065-.216.054-.205A3.436,3.436,0,0,1,37.1,27.961c.082,0,.172-.009.251-.009a6.118,6.118,0,0,1-1.035-1.042c-.079-.105.051-.244.165-.212a7.348,7.348,0,0,1,2.208,1.413c1.089.239,2.171.677,3.2,1.01,4.07,1.324,7.2.167,10.357-2.509.307-.26.744.16.447.449" transform="translate(-12.962 19.659)" fill="#42110f" fill-rule="evenodd"/>
      <path id="Path_89" data-name="Path 89" d="M41.885,25.825a7.574,7.574,0,0,1-1.541-1.342.329.329,0,0,1,.466-.465,7.657,7.657,0,0,1,1.34,1.54.2.2,0,0,1-.265.267" transform="translate(-25.811 18.028)" fill="#42110f" fill-rule="evenodd"/>
      <path id="Path_90" data-name="Path 90" d="M.443,83.739c-.47-.028-.644-.752-.13-.829,1.485-.223,2.974-.365,4.468-.461a.429.429,0,0,1,0-.082C5.928,75.585,1.724,64,7.2,58.474a8.664,8.664,0,0,1,3.853-2.243A12.956,12.956,0,0,1,6.782,52.54c-1.1-1.4-3.1-3.916-3.127-5.761a.43.43,0,0,1,.642-.368,27.9,27.9,0,0,1,5.924,4.242,8.486,8.486,0,0,1,2.032,2.753c.067-.084.133-.17.2-.253a68.581,68.581,0,0,1,.677-10.629c.405-3.015,1.445-6.068,4.258-7.567-.907-2.1-1.266-4.765-.288-6.741a18.321,18.321,0,0,1-4.344,4.916c-.321.244-.68-.1-.717-.41a9.972,9.972,0,0,1,2.524-8.233,6.89,6.89,0,0,1-1.612-.023c-.389-.053-.41-.559-.21-.8A6.758,6.758,0,0,1,16.387,21.5a4.523,4.523,0,0,1-2.652-4.554c.224-2.431,2.49-2.79,4.516-2.211-1.464-2.068-2.48-4.77-.554-6.3,1.871-1.492,4.274-.319,5.8,1.533a7.406,7.406,0,0,1,.444-4.453c.16-.33.582-.237.763,0a5.736,5.736,0,0,1,.731,5.515,1.91,1.91,0,0,1,.58-.333,1.705,1.705,0,0,1,.659-.075,5.375,5.375,0,0,1-.5-4.551.457.457,0,0,1,.714-.091,5.346,5.346,0,0,1,1.547,3.265A21.245,21.245,0,0,1,32.15,4.562a.467.467,0,0,1,.726.093c1.456,2.5-.454,4.852-2.35,6.6a4.4,4.4,0,0,1,.509.028c2.508-2.408,5.484-3.62,8.879-2.353a.483.483,0,0,1,.114.872,14.092,14.092,0,0,1-6.673,2.534,5.256,5.256,0,0,1,.537.579,71.957,71.957,0,0,0,10.738-.358c-.338-1.384-.512-2.957-.668-3.632C43.4,6.51,42.141,2.573,43.388.2a.387.387,0,0,1,.531-.14c2.334,1.622,3.549,3.607,3.279,6.522a.417.417,0,0,1-.035.117l.005.009c1.584-2.264,5.743-5.954,7.658-3.167,1.242,1.806-.033,4.358-1.3,5.7a22.612,22.612,0,0,1-3.751,2.951c.352-.016.7-.04,1.057-.053,2.638-.093,6.567.011,8.612,2.066,4.218,4.24,2.392,11.218,2.566,16.861,1.35-2.967,2.6-6.438,5.778-7.756a.435.435,0,0,1,.549.419c-.249,2.653-1.3,5.792-3.465,7.43a15.01,15.01,0,0,1,3.6-.314c.328,0,.633.417.409.712a4.835,4.835,0,0,1-2.878,1.712c3.977,1.129,6.674,3.691,6.127,9.016-.03.295-.51.419-.559.075-2.061-14.22-17.351-6.711-26.934-8.118,1.589,1.173,2.711,2.7,2.229,4.668-.963,3.935-4.442,2.267-6.583.117l.032.249c1.249.54,2.017,2.215,2.492,3.358a5.713,5.713,0,0,1-.333,5.521.5.5,0,0,1-.777.1c-1.769-2.178-1.91-4.656-2.083-7.2a3.862,3.862,0,0,1-1.017,1.017c-.381.267-.833-.331-.493-.638a3.313,3.313,0,0,0,.744-4.267c-.231-.516.48-.963.775-.452.046.079.1.151.144.226a.357.357,0,0,1,.119.181l0,.009a9.616,9.616,0,0,0,2.289,2.478,3.147,3.147,0,0,0,2.4.742c1.219-.216,1.648-2.013,1.438-2.985-.295-1.343-1.6-2.436-3.074-3.265a7.015,7.015,0,0,1-2.823-1.015,2.48,2.48,0,0,1-.324.421,3.275,3.275,0,0,1-.51.386,2.54,2.54,0,0,1-.673,1.1.378.378,0,0,1,.137.261,8.06,8.06,0,0,1-2.28,6.015,4.175,4.175,0,0,1-1.743,1.04c-1.114,1.338-2.532,2.155-3.865.931A4.314,4.314,0,0,1,29.7,38.893c-.051-.084-.095-.172-.142-.258a6.952,6.952,0,0,1-6.485,2.7.481.481,0,0,1-.337-.593,6.164,6.164,0,0,1,6.068-3.73,4.489,4.489,0,0,1-1.461-2.183,26.3,26.3,0,0,0-6.559.552c-.545.156-.733-.63-.228-.829a15.481,15.481,0,0,1,6.567-.6c-.5-2.923,1.04-6.292,4.019-5.433a.27.27,0,0,1,0,.517,5.67,5.67,0,0,0-2.411,1.147,4.008,4.008,0,0,0-.943,2.769,4.248,4.248,0,0,0,.13,1.114.419.419,0,0,1,.151.491,4.409,4.409,0,0,0,.388.8,5.042,5.042,0,0,1,.351-2.546,2.849,2.849,0,0,1,3.819-1.2c.281.133.123.537-.149.549-1.2.051-2.441-.082-2.946,1.259a4.982,4.982,0,0,0,.112,3.123,3.715,3.715,0,0,0,1.1.486c.882-1.1,2.161-2.025,3.476-1.706a.208.208,0,0,1,.051.377,16.615,16.615,0,0,0-2.438,1.54.33.33,0,0,1-.2.586c-.126.007-.246,0-.367,0a4.867,4.867,0,0,0-.321.451,3.16,3.16,0,0,0-.23.463,3.871,3.871,0,0,0,1.1,1.024c1.275.747,2.318-.638,2.869-1.617.237-.417.859-.049.642.375-.682,1.335-1.841,2.722-3.5,2.22a3.2,3.2,0,0,1-1.373-.875,3.094,3.094,0,0,0,1.129,2.781,1.458,1.458,0,0,0,1.841-.209,1.968,1.968,0,0,1-1.7-1.18.226.226,0,0,1,.253-.33c.8.221,1.4.737,2.29.587.033-.007.065-.025.1-.033a11.062,11.062,0,0,0,1.757-3.23c.1-.381.656-.217.586.161a8.378,8.378,0,0,1-.814,2.1c.1-.107.207-.216.3-.323a7.649,7.649,0,0,0,1.826-4.791,2.831,2.831,0,0,1-.524.226c-1.089.326-3.037-.437-2.785-1.82a.272.272,0,0,1-.117-.019c-1.028-.51-2.11-2.294-1.364-3.413a2.184,2.184,0,0,1,1.54-.851c-.009-.011-.023-.014-.03-.026a3.351,3.351,0,0,1,.989-4.068,3.455,3.455,0,0,0-1.959.977c-.865.873-.838,2.159-1.033,3.286-.047.275-.447.238-.517,0-.868-2.92,1.712-5.3,4.5-5.114a4.532,4.532,0,0,1,1.41.333,6.536,6.536,0,0,1,1.485.338c.049.018.1.042.147.06-.352-.352-.672-.747-.961-1.07a7.989,7.989,0,0,1-1.717-2.929.475.475,0,0,1,.691-.531,7.8,7.8,0,0,1,2.785,3.057c0-.114,0-.238,0-.351a23.814,23.814,0,0,1,.77-6.632.444.444,0,0,1,.8-.107,11.246,11.246,0,0,1,1.052,7.593c1.689-3.427,4.375-6.3,8.409-6.694a.445.445,0,0,1,.447.449,11.346,11.346,0,0,1-1.2,4.812c1.47-.086,3.008.1,4.474.065,1.962-.042,3.919-.186,5.882-.193a22.363,22.363,0,0,0-.488-4.838c-.984-4.305-5.962-5.284-11.557-5.221a.286.286,0,0,1-.167.007,15.574,15.574,0,0,0-2.406,2.043.4.4,0,0,1-.437.119.258.258,0,0,1-.307.056,3.3,3.3,0,0,1-1.108-2.008c-3.895.312-7.669.84-10.233.854,2.19,3.916,1.215,10.976-2.86,10.959a4.912,4.912,0,0,1-.195.868A3.839,3.839,0,0,1,27.791,28a.24.24,0,0,1,0,.049,3.482,3.482,0,0,1-2.148,2.48c-.943.391-2.762.4-3.458-.438a.252.252,0,0,1,.109-.416c.865-.182,1.738.244,2.636.1a2.6,2.6,0,0,0,2.08-1.836,3.182,3.182,0,0,1-1.459-.652.224.224,0,0,1-.065-.109c-2.175,1.833-5.626,2.038-7.406-.552-.012-.018-.019-.039-.03-.056-.03.056-.063.107-.093.163a.352.352,0,0,1,.181.093,6.946,6.946,0,0,1,1.28,1.634.374.374,0,0,1,.456.139l.035.054a.433.433,0,0,1,.54.079,17.8,17.8,0,0,1,2.513,2.681.349.349,0,0,1-.133.484,10.044,10.044,0,0,1,.554,1.263.481.481,0,0,1-.7.54,8.773,8.773,0,0,1-2.394-2.885,8.12,8.12,0,0,1-1.171,5.8.482.482,0,0,1-.821,0,9.193,9.193,0,0,1-.6-1.014c-5.5,3.618-3.379,10.753-4.067,16.449a5.552,5.552,0,0,1,2.422-.949.48.48,0,0,1,.533.7,11.2,11.2,0,0,1-2.01,2.764,16.653,16.653,0,0,1-1.2,1.236A31.478,31.478,0,0,1,17.1,55.67c5.468.077,11.229-.459,16.6.593.475.093.261.775-.2.712-4.586-.644-9.119-.042-13.714-.256-5.264-.244-11.146-.751-13.4,5.186-1.21,3.193-1.131,6.66-.879,10.159a.3.3,0,0,1,.253-.084c7.088.719,14.008-.393,21.086-.238a.34.34,0,0,1,0,.68c-6.937.331-14.306,1.636-21.188.312a.307.307,0,0,1-.1-.044,42.489,42.489,0,0,1,.1,9.708c4.5-.237,9.024-.077,13.531-.2,7.374-.2,14.752-.168,22.126-.077,12.94.16,25.877.523,38.819.694a.217.217,0,0,1-.011-.051,38.169,38.169,0,0,1,.179-4.107c-4.451.086-8.905.27-13.361.472a.334.334,0,0,1-.33.014c-3.207.146-6.415.3-9.619.433a.393.393,0,0,1-.626.1c-.025-.023-.051-.042-.075-.067-.342.014-.684.025-1.026.037a.309.309,0,0,1-.3.133,2.761,2.761,0,0,1-.486-.105c-3.677.147-7.353.267-11.02.3-4.91.046-9.794-.61-14.7-.828a.331.331,0,0,1-.419.018c-.019-.011-.039-.023-.058-.035-1.18-.044-2.362-.072-3.548-.044-5.8.133-11.3,1.082-17.095.081-.388-.067-.3-.731.091-.686a62.012,62.012,0,0,0,9.491.251,4.19,4.19,0,0,0-.558-.347,3.178,3.178,0,0,1-.91-.547.17.17,0,0,1-.046-.167c-2.662-.033-5.326-.07-7.977-.1a.427.427,0,0,1,0-.854c8.9-.07,17.814.056,26.71.132a.3.3,0,0,1,0,.593c-2.283.144-4.57.23-6.864.275.253.16.5.323.744.493,3.111.077,6.218.459,9.328.728a10.127,10.127,0,0,1-.835-3.591,5.76,5.76,0,0,1-2.8.479,4.366,4.366,0,0,1-3.272-1.61,1.977,1.977,0,0,1-.354-1.1,2,2,0,0,1-.768.139,3.065,3.065,0,0,1-2.38-1.911,3.646,3.646,0,0,1-.349-2.445c-.493.021-1-.007-1.452.033-1.368.119-2.734.305-4.091.523a.483.483,0,0,1-.584-.584c.551-2.923,3.167-3.244,5.682-2.869a10.809,10.809,0,0,1-3.423-5.315.47.47,0,0,1,.573-.573,13.617,13.617,0,0,1,5.92,2.767,2.715,2.715,0,0,1,.929-1.7,4.206,4.206,0,0,1,3.658-.209,4.961,4.961,0,0,1,2.9,2.059,1.532,1.532,0,0,1,.163,1.214,4.126,4.126,0,0,1,3.658-2.462c-2.666-.872-5.345-2.2-6.506-4.645a.464.464,0,0,1,.4-.691,13.991,13.991,0,0,1,6.808,1.192c-.137-.31-.261-.616-.374-.891a4.343,4.343,0,0,1,.217-4.281.44.44,0,0,1,.6-.158,6,6,0,0,1,2.42,4.852c.872-1.51,2.56-1.415,3.986-.765a1.312,1.312,0,0,1,.963-1.647,2.049,2.049,0,0,1,2.4,1.035,9.52,9.52,0,0,1,.8-1.214,3.459,3.459,0,0,1,4.612-1.07,3,3,0,0,1,.314.223,3.726,3.726,0,0,1,3.837-3.469,4.739,4.739,0,0,1,.267-4.567c.88-1.31,2.373-1.948,3.369-1.259.452-2.694,3.155-3.307,5.887-1.94a4.49,4.49,0,0,1,2.438,2.608,2.367,2.367,0,0,1,.675.012,3.357,3.357,0,0,1,2.187,1.857c.046-.526.107-1.045.147-1.52a12.639,12.639,0,0,1,1.068-4.23.448.448,0,0,1,.772,0,6.969,6.969,0,0,1,.58,4.575,23.593,23.593,0,0,1,7.527-5.575.449.449,0,0,1,.665.381c.524,4.519-3.584,8.456-7.877,9.757a9.908,9.908,0,0,1,7.56,5.468c.132.284-.014.752-.405.707A14.079,14.079,0,0,1,79.1,53.617a10.936,10.936,0,0,1,.789,8.19.487.487,0,0,1-.88.116A8.465,8.465,0,0,1,77.9,58.3a32.98,32.98,0,0,1-1.115,5.756.469.469,0,0,1-.9,0c-.431-1.7-.624-4.658,1.136-5.713.044-.238.088-.475.137-.71l-.005.009a5.187,5.187,0,0,1-5.787,1.685,32.443,32.443,0,0,1,.109,5.729.486.486,0,0,1-.824.342,7.986,7.986,0,0,1-1.787-5.54,3.211,3.211,0,0,1-.837.635A4.574,4.574,0,0,1,63.781,60a5.58,5.58,0,0,1-2.12-2.183,2.657,2.657,0,0,1-.426.082,5.661,5.661,0,0,1,1.857,5.454c-.368,2.467-2.911,4.9-5.319,4.4a5.489,5.489,0,0,1-2.287,4.6c8.475-.53,16.865.331,25.347-.791a.2.2,0,0,1,.226.2,24.276,24.276,0,0,0-.88-10.541c-.144-.41.521-.694.707-.3,3.1,6.6.54,14.9.093,21.844a.544.544,0,0,1-.018.063c1.457.019,2.913.046,4.37.058a.414.414,0,0,1,.328.153.632.632,0,0,1,.039.068.341.341,0,0,1,.035.072.149.149,0,0,1,.018.033,1.017,1.017,0,0,1-.333,1.054,2.553,2.553,0,0,1,.719,2.031,3.018,3.018,0,0,1-1.657,2.2,3.2,3.2,0,0,1-2.8.165,2.809,2.809,0,0,1-1.431-2.182c.125,3.355-5.263,3.758-6.918,1.077-1.207,2.834-5.531,2.713-6.266.268a3.949,3.949,0,0,1-3.677,1.408,2.534,2.534,0,0,1-2.322-2.8,4.371,4.371,0,0,1-4.614,2.716c-1.478-.274-2.755-2-2.157-3.432l-.1,0a.327.327,0,0,1,.012.133,4.3,4.3,0,0,1-4.538,3.821,2.886,2.886,0,0,1-2.678-1.738,37.106,37.106,0,0,0,.773,11.024.407.407,0,0,1-.049.312c.6.019,1.2.047,1.8.091,3.828.282,5.734,1.121,7.483,4.042.963.195,1.922.391,2.867.568a.457.457,0,0,1,.33.435,1.4,1.4,0,0,1-.48,1.371c-.195.209-.64.063-.6-.247a.836.836,0,0,0-.337-.744.518.518,0,0,1-.438.652c-.242.026-.484.033-.728.054a.351.351,0,0,1-.4.214c-.3-.039-.605-.077-.9-.117-5.189.233-10.347-.723-15.551-.323-4.53.345-8.963,1.047-13.466.144a.465.465,0,0,1-.11-.842c2.687-1.82,7.136-1.229,10.173-1.214a163.278,163.278,0,0,1,19.392,1.38.521.521,0,0,1,.11-.312c-.107-.177-.23-.333-.345-.5a47.119,47.119,0,0,0-10.734-.321c-.412.056-.607-.531-.179-.644,3.4-.889,6.908-.417,10.345.24-3.527-3.977-10.35-3.618-16.377-3.072-.018.023-.033.049-.053.072a.373.373,0,0,1-.577-.016c-2.062.189-4,.379-5.666.4a7.82,7.82,0,0,0-2.574,1.454c-.644.563-1.2,1.461-1.99,1.808a.332.332,0,0,1-.451-.451,7.664,7.664,0,0,1,2.269-2.338,5.352,5.352,0,0,1,2.229-1.147.382.382,0,0,1,.284-.125c1.982-.053,3.962-.177,5.94-.293,2.024-3.286,1.554-7.046,1.356-10.732a2.917,2.917,0,0,1-3.013,1.059A2.492,2.492,0,0,1,35.6,88.292a2.653,2.653,0,0,1-.123-.552,5.07,5.07,0,0,1-3.811,1.843,2.705,2.705,0,0,1-2.587-3.5c-.056,0-.11,0-.165,0a.531.531,0,0,1,.011.056c-.063,1.822-1.129,3.79-3.2,3.681a3.178,3.178,0,0,1-2.646-3.684c-.075,0-.149,0-.224,0a.406.406,0,0,1,.154.388,3.372,3.372,0,0,1-4.225,3.011A2.851,2.851,0,0,1,16.93,88.11,2.915,2.915,0,0,1,13.4,89.365a2.722,2.722,0,0,1-1.659-1.691,2.115,2.115,0,0,1-.093-.519A6.413,6.413,0,0,1,7,89.612a1.83,1.83,0,0,1-2.034-1.952,2.506,2.506,0,0,1-2.872,1.494A2.521,2.521,0,0,1,.706,85.449c-.093-.005-.186-.011-.279-.018a.424.424,0,0,1-.4-.528,3.242,3.242,0,0,1,.417-1.164M38.657,9.553a6.333,6.333,0,0,0-2.834,0,.494.494,0,0,1-.012.812c-.37.263-.751.531-1.136.793a13.784,13.784,0,0,0,3.983-1.6M67.21,31.812a12.671,12.671,0,0,0-1.5.135,5.689,5.689,0,0,0-1.652.58,5.758,5.758,0,0,0,3.15-.715m.153-7.336c-1.676.994-2.708,2.844-3.562,4.726.047-.053.086-.112.135-.165.389-.417.994.2.621.623a8.415,8.415,0,0,0-.831,1.15c2.108-1.257,3.234-3.891,3.637-6.334M41.994,47.025c1.1-2.141-.151-4.37-1.538-6.171.172,2.166.293,4.323,1.538,6.171m-13.812-8.54a1.686,1.686,0,0,1-1.2.6l-.005,0v0c-.042.005-.084.014-.126.019-.468.058-.552-.466-.331-.768a4.875,4.875,0,0,0-2.571,2.125A6.246,6.246,0,0,0,28.7,38.213c-.174.086-.345.179-.516.272m33.055-5.957a39.886,39.886,0,0,1-.105-5.987c-.144-.039-.288-.054-.43-.088a.19.19,0,0,1-.231.009c-.039-.025-.074-.053-.112-.077a16.3,16.3,0,0,0-2.01-.249.352.352,0,0,1-.572.005c-.012-.018-.028-.03-.04-.046-2.929-.123-5.866.274-8.754-.379-.023-.007-.028-.025-.047-.033a11.913,11.913,0,0,1-2.608,2.15,12.426,12.426,0,0,1,6.517.217.478.478,0,0,1,.207.787c-1.489,1.792-4.584,2.083-7.15,1.557a2.95,2.95,0,0,1,.358.851,2.08,2.08,0,0,1-.868,2.19c3.9-.175,10.285-1.222,15.846-.908M44.614,29.122c2.148.756,5.384.9,7.172-.405a10.549,10.549,0,0,0-4.042-.021,16.389,16.389,0,0,1-3.13.426M34.125,30.709c-.812.659.572,2.022.859,2.787.007.018,0,.033,0,.049a.235.235,0,0,1,.177.039c.689.521.9,1.356,1.954,1.184a1.607,1.607,0,0,0,.77-.351.356.356,0,0,1,.025-.617c.147-.081.3-.167.451-.256a.443.443,0,0,1-.125-.258c-.088-.8-.631-1.7-1.55-1.278a.967.967,0,0,0-.279.191c-.075.1-.067.114-.054.139.205.431.917.384,1.21.768a.354.354,0,0,1-.126.486,1.684,1.684,0,0,1-1.955-.943,1.19,1.19,0,0,1,.635-1.375,1.971,1.971,0,0,1,1.81-.093,1.78,1.78,0,0,1,.858.914.441.441,0,0,1,.31-.042.473.473,0,0,1,.307-.309,4.135,4.135,0,0,0-2.578-1.264,3.688,3.688,0,0,0-2.7.231m7.153-2.7a.407.407,0,0,1-.216-.358,3.827,3.827,0,0,1-.328-.9,4.484,4.484,0,0,0-.986-.558,2.646,2.646,0,0,1,.1,2.743c.481-.133,1.289-.393,1.529-.854a.3.3,0,0,1-.1-.074m.086,1.128a5.479,5.479,0,0,1-1.478.573.389.389,0,0,1-.428-.556.4.4,0,0,1-.279-.563,1.989,1.989,0,0,0-1.215-2.837,2.953,2.953,0,0,0-1.641.314c-1.3.728-.735,2.21-1.014,3.362-.005.021-.023.03-.032.047a6.883,6.883,0,0,1,.982.026A6.378,6.378,0,0,1,39.721,30.8a1.761,1.761,0,0,1,.668,1.236,25.155,25.155,0,0,1,2.427,1.082,4.111,4.111,0,0,0,1.513-.044c2.359-.544.666-2.718-.372-3.093A1.766,1.766,0,0,0,41.6,31.429c-.13.53-.943.305-.817-.226a2.7,2.7,0,0,1,1.329-1.787c-.082.014-.165.037-.249.049a.433.433,0,0,1-.5-.326m.544-10.778a23.73,23.73,0,0,0-.356,5.068.368.368,0,0,1,.572.3c.005.389.012.779.018,1.168a10.629,10.629,0,0,0-.233-6.532m9.2.263c-4.132.621-6.622,4.447-7.984,8.24a18,18,0,0,1,4.637-4.016c.405-.247.756.37.367.63a19.413,19.413,0,0,0-4.7,4.556c4.147-1.687,7.315-4.607,7.683-9.41m2.55,5.221a9.51,9.51,0,0,1-3.111-.338,11.765,11.765,0,0,1-1.1,1.584c1.25-.019,2.546-.054,3.851-.068a.279.279,0,0,1,.538,0c.295,0,.586-.011.88-.009a4.882,4.882,0,0,1-1.05-.821.272.272,0,0,1-.007-.344m5.522-.216c-1.285.053-2.571.114-3.856.163-.4.016-.808.035-1.222.049.817.351,1.519.926,2.369,1.229.061,0,.125,0,.186.007a.229.229,0,0,1-.035-.026,4.355,4.355,0,0,1-1.245-.954.184.184,0,0,1,.158-.274,3.431,3.431,0,0,1,2.332,1.361c.33.037.661.075.989.126-.289-.219-.577-.438-.859-.673-.088-.074.025-.2.118-.153.6.31,1.166.645,1.726,1,.447.093.886.2,1.317.337.005-.112.005-.224.009-.337a.329.329,0,0,1-.258-.1q-.56-.558-1.119-1.112a5.134,5.134,0,0,1-.609-.64m.956-.037c.053.058.107.116.16.168l.889.9c.011-.367.025-.735.03-1.1-.36.009-.719.028-1.079.04M53.419,6.124a9.511,9.511,0,0,0,.347-2.264,1.108,1.108,0,0,0-.226-.117.356.356,0,0,1,.132.41,20.066,20.066,0,0,0-.533,2.741c.093-.256.2-.51.281-.77m-4.458,5.615a21.437,21.437,0,0,0,.684-2.166c.135-.665.216-1.338.291-2.011-.286,1.15-.512,2.317-.819,3.462-.061.231-.128.489-.21.752l.054-.037m-1.933.624c.133-.57.3-1.133.438-1.7.291-1.2.531-2.4.707-3.618.054-.379.715-.289.67.089-.119.95-.228,1.983-.391,3.011.284-1.031.5-2.085.791-3.116A.4.4,0,0,1,50,7.02c.033-.275.061-.554.1-.828.061-.428.808-.328.756.1-.1.8-.117,1.892-.233,2.974a8.139,8.139,0,0,0,.267-.819c.31-1.406.512-2.837.9-4.223a.378.378,0,0,1,.728.2c-.386,1.517-.547,3.079-.859,4.612-.047.226-.1.57-.193.917.16-.128.328-.251.481-.384a.251.251,0,0,1-.06-.11A7.19,7.19,0,0,1,52.2,7.147a22.425,22.425,0,0,1,.687-3.209.39.39,0,0,1,.34-.277,3.774,3.774,0,0,0-2.168.623,9.237,9.237,0,0,0-3.453,3.46.35.35,0,0,1,.112.335,33.44,33.44,0,0,1-.814,4.293c.04,0,.081,0,.119-.007m-2.3-4.858c.095-1.094.189-2.185.344-3.274.054-.386.733-.295.686.095-.132,1.057-.2,2.117-.263,3.179a8.767,8.767,0,0,1-.286,2.415c.075.21.153.431.235.661a10.962,10.962,0,0,1,.165-2.343,33.629,33.629,0,0,1,.547-3.455.361.361,0,0,1,.1-.175A6.839,6.839,0,0,0,44.8,1.586c-.072-.088-.139-.165-.2-.233a.353.353,0,0,1,.04.26,10.7,10.7,0,0,0-.231,1.75c.032-.179.053-.361.088-.538.093-.461.789-.265.7.193-.209,1.117-.31,2.241-.433,3.369A2.52,2.52,0,0,1,44.551,7.5c.04.175.077.354.117.528.021-.174.046-.351.061-.521M24.42,6.747a6.529,6.529,0,0,0,.314,3.681,5.115,5.115,0,0,0-.314-3.681m2.343.526a4.234,4.234,0,0,0,.8,2.592,4.427,4.427,0,0,0-.8-2.592m5.575-1.547a23.432,23.432,0,0,0-2.125,2.562A27.789,27.789,0,0,0,28.494,11.5c.049.044.1.086.144.132a.48.48,0,0,1,.093-.054c.046-.016.088-.025.133-.037C30.439,10.165,33.05,8,32.338,5.726M18.7,21.3a2.652,2.652,0,0,1,2.471-1.478,2.906,2.906,0,0,1-.03-2.659c1.342-2.888,6.3-1.9,5.866,1.4a.414.414,0,0,1,.238-.03,2.236,2.236,0,0,1,2.059,2.076A4.389,4.389,0,0,1,27.88,23.67a3.39,3.39,0,0,1-3,1.166,2.929,2.929,0,0,1-1.971-3.157.253.253,0,0,1,.3-.2,3.821,3.821,0,0,1-1.057-.554.312.312,0,0,1-.17.019c-.093-.019-.179-.023-.268-.035a4.535,4.535,0,0,1-2.483,1.1c-.053.074-.091.16-.139.238.289-.117.686.088.561.466a27.214,27.214,0,0,1-1.012,2.608,3.171,3.171,0,0,0,.837,1.548c1.845,1.812,5.231.459,6.478-1.366.274-.4.921-.035.658.386a5.69,5.69,0,0,1-.756.94c1.862-.186,3.958.74,4.754-1.7a3.328,3.328,0,0,0,.105-.493c-.1-.023-.191-.037-.293-.067-.256-.077-.307-.521,0-.568.13-.018.237-.056.359-.081a7.759,7.759,0,0,0-1.954-4.712c-.31-.363.2-.891.531-.531A8.371,8.371,0,0,1,31.688,23.7c2.376-.814,3.236-2.776,3.069-5.627a7.852,7.852,0,0,0-1.608-4.353.448.448,0,0,1-.224-.263,4.193,4.193,0,0,0-1.506-1.08c-.116-.005-.23,0-.345-.011a.452.452,0,0,1-.333-.188,3.691,3.691,0,0,0-1.231-.025l-.093.079a.439.439,0,0,1-.2.093A4.6,4.6,0,0,1,30.225,15.5a2.6,2.6,0,0,1-2.883,2.31.282.282,0,0,1-.065-.51c.852-.559,1.933-.723,2.052-1.943a3.906,3.906,0,0,0-.952-2.671c-.438-.552-1.231-1.322-2.013-1.18a1.469,1.469,0,0,0-1.026,1.057,6.933,6.933,0,0,1,.16,1.321.33.33,0,0,1-.5.27c-.011.105-.021.207-.028.295-.044.456-.751.472-.726,0,.007-.133.018-.275.028-.417-.009-.018-.028-.026-.033-.046a10.4,10.4,0,0,0-1.968-3.9c-1.214-1.422-4.512-2.169-4.651.477-.093,1.771,1.28,3.79,2.632,5.126a4.007,4.007,0,0,1,.7.633c.018.012.035.032.053.044l-.007.007c.025.03.058.058.079.089.349.454-.356.87-.735.565a9.156,9.156,0,0,1-.861-.8c-1.666-1.121-4.609-1.426-4.84,1.121-.13,1.412,1.291,2.892,2.369,3.53a3.155,3.155,0,0,0,1.7.431m3.814-3.437a.469.469,0,0,1,.638-.167,1.9,1.9,0,0,1,.866.844,6.742,6.742,0,0,1,.163,1.129.407.407,0,0,1-.114.4,1.527,1.527,0,0,0,.182.039,1.724,1.724,0,0,0,1.826-1.557,5.01,5.01,0,0,0-.163-.908.359.359,0,0,1,.033-.293c-.772-1.568-3.942-1.152-4.209.989a1.9,1.9,0,0,0,.761,1.715,2,2,0,0,1-.309-.957,2.691,2.691,0,0,1,.324-1.231m.821,3.646a.371.371,0,0,1,.119.095c.572.779.572,2.034,1.68,2.318a2.486,2.486,0,0,0,2.09-.91c1.142-1.11,1.917-3.246-.2-3.663-.018,0-.03-.014-.046-.019a2.413,2.413,0,0,1-.563,1.559,2.762,2.762,0,0,1-2.574.758,3.935,3.935,0,0,1-.5-.137m-4.656,13.9a6.933,6.933,0,0,0-.547-7.365,9.422,9.422,0,0,0,.547,7.365M17.639,24.522c-.158.274-.309.549-.479.815a5.882,5.882,0,0,1-1.673,2.034.319.319,0,0,1-.465-.358,8.347,8.347,0,0,1,1.377-2.12c.27-.382.524-.772.777-1.163-3.051,1.548-4.34,4.663-4.233,8.011a20.07,20.07,0,0,0,4.707-6.394,4.97,4.97,0,0,1-.011-.826m-5.35,31.226c.9-1.187,2.089-2.2,2.922-3.451a4.777,4.777,0,0,0-1.815,1.2c-.014.016-.025.033-.039.051-.072.307-.149.617-.249.912a.3.3,0,0,1-.475.161c-.047.086-.1.168-.144.254a2.111,2.111,0,0,1-.219.808c-.012.021-.033.025-.049.042.023.009.046.016.068.026M4.813,47.7c.2.368.444.728.594,1.008A27.8,27.8,0,0,0,7.177,51.53a12.394,12.394,0,0,0,3.57,3.432c-.277-.274-.531-.582-.78-.84-.554-.575-1.094-1.164-1.641-1.747a.36.36,0,0,1,.509-.509c.584.547,1.173,1.087,1.748,1.64.284.274.626.559.919.872-.587-2.923-4.084-5.138-6.688-6.674M18.779,78.315c-.384-.223-.838-.361-1.2-.621l-.749-.011a4.45,4.45,0,0,1,1.254.915.331.331,0,0,1,.06.089c.374-.016.745-.028,1.117-.049-.156-.116-.316-.223-.484-.324m2.487-.137a4.524,4.524,0,0,1-1.086-.456c-.279,0-.558-.005-.835-.009a7.1,7.1,0,0,1,1.043.833c.007.009.009.018.018.025.514-.032,1.028-.065,1.545-.1a7.445,7.445,0,0,0-.686-.291m4.775-.445c-.537.007-1.077,0-1.615.007a5.166,5.166,0,0,0,.851.417.4.4,0,0,1,.146.091c.451-.023.9-.047,1.352-.053a6.28,6.28,0,0,1-.733-.463m3.709,26.827c-2.694.4,3.6.412,4.135.4,2.815-.081,5.626-.505,8.433-.724.36-.026.726-.025,1.091-.035a64.516,64.516,0,0,0-13.659.363m49.5-26.952a.356.356,0,0,1,.265.279c.288,0,.575,0,.863,0,.04-.409.082-.814.13-1.221-1.1.018-2.2.049-3.3.084a11.18,11.18,0,0,0,2.043.858m-4.556-.6a5.614,5.614,0,0,0,1.636.256,2.793,2.793,0,0,1-.509-.475c-.5.018-1,.039-1.5.058a3.663,3.663,0,0,0,.375.161m-1.477.95a2.579,2.579,0,0,1-1.647-1l-1.883.081c.493.316.972.663,1.445,1,.7-.021,1.391-.06,2.085-.075m-6.564.258c1.091-.046,2.182-.1,3.274-.14a7.893,7.893,0,0,1-1.231-1q-1.67.074-3.342.14a8.09,8.09,0,0,1,1.3,1M62.761,78.2a.4.4,0,0,1,.139.189c.884-.044,1.768-.089,2.653-.128a11.919,11.919,0,0,0-1.58-.994c-.344.014-.687.021-1.029.033.214.119.43.24.635.379.368.253.039.84-.351.605a8.273,8.273,0,0,0-1.161-.57c.242.16.477.326.694.486m-2.478.319c.475-.025.949-.047,1.424-.07a10.6,10.6,0,0,0-.968-.561c-.391-.195-.8-.335-1.2-.493-.044,0-.086,0-.13,0,.27.182.542.363.812.544a.384.384,0,0,1,.065.579m-1.336.067.833-.042-1.387-.917c-.1-.068-.212-.137-.321-.205-.219,0-.437,0-.654.007a13.9,13.9,0,0,1,1.378.821.326.326,0,0,1,.151.337m-2.436.116c.521-.025,1.042-.044,1.563-.072-.347-.209-.7-.419-1.064-.594-.431-.205-.872-.354-1.277-.586-.279,0-.556,0-.833,0a12.076,12.076,0,0,1,1.612,1.25M31.668,73.852a3.559,3.559,0,0,0,2.355,1.026,4.54,4.54,0,0,0,2.773-.484c0-.3,0-.605.025-.907a.474.474,0,0,1,.091-.244,2.664,2.664,0,0,0-.224-.312c-.333-.4.21-.966.577-.577.025.026.039.051.063.075a.224.224,0,0,1,.133-.07c1.091-.179,2.061.4,3.092-.275a2.571,2.571,0,0,0,.943-2.2,2.768,2.768,0,0,0-.961-2.157,2.343,2.343,0,0,0-2.545.11c.023.033.053.061.075.1a1.849,1.849,0,0,1,.11,2.2,2.052,2.052,0,0,1-.828.582,1.993,1.993,0,0,1-1.57,1.759,3.955,3.955,0,0,1-3.839-.81,4.637,4.637,0,0,1-.433.617,1.532,1.532,0,0,0,.161,1.577m6.89.142a11.768,11.768,0,0,0,2.773,2.915,9.608,9.608,0,0,0-1.275-1.815,5.145,5.145,0,0,0-1.5-1.1m2.858-.924c2.36.035,5.207.125,7.022-1.333a7.911,7.911,0,0,0-7.022,1.333M21.89,68.414c1.182-.182,2.367-.34,3.558-.456a6.11,6.11,0,0,1,1.982-.07,2.222,2.222,0,0,1,1.119-.542c-2.338-.395-5.668-1.477-6.659,1.068m2.322-7.2a8.942,8.942,0,0,0,4.582,5.1c-.279-.333-.549-.675-.831-1.007a4.386,4.386,0,0,1-.952-1.3c-.14-.4.389-.628.656-.377l.007-.007A14.916,14.916,0,0,1,29.759,65.9a2.141,2.141,0,0,1,.158-.345c-.046-2.4-3.423-3.721-5.7-4.337m5.61,6.953c-.67.033-1.424-.044-1.84.542a2.3,2.3,0,0,0,.093,2.138,2.454,2.454,0,0,0,1.415,1.413,1.133,1.133,0,0,0,1.187-.463,5.958,5.958,0,0,1,.5-.91,7.162,7.162,0,0,1-1.359-2.72m3.912-6.359a3.436,3.436,0,0,0-2.625.054c-.994.561-.4,1.675-.535,2.529a3.008,3.008,0,0,1,.114.37,3,3,0,0,1,1.948-.27,7.971,7.971,0,0,1,2.6.947.329.329,0,0,1,.153-.428c2.162-1.292-.172-2.751-1.65-3.2m2.022,3.839a.369.369,0,0,1-.109.028,9.345,9.345,0,0,1,.8.552,8.8,8.8,0,0,1,.507-1.54,2.855,2.855,0,0,1-1.2.959m1.2,2.338c-.286.151-.77-.016-.731-.407.009-.088.021-.175.032-.263-1.231-1.079-3.178-2.2-4.773-1.919a.984.984,0,0,0-.71.472,3.849,3.849,0,0,1-.142.694.387.387,0,0,1-.058.11c0,.093,0,.186,0,.281.023.032.051.067.074.1a.377.377,0,0,1,0,.481A5.568,5.568,0,0,0,31.775,70.2c.3-.1.626.233.589.575a3.747,3.747,0,0,0,.943.579c.859.349,2.545.445,3-.381a11.305,11.305,0,0,1-1.3.06.354.354,0,0,1,0-.707,9.135,9.135,0,0,0,1.366-.161c-.011-.049-.016-.1-.032-.147a3.417,3.417,0,0,0-1.078-1.34c.061.125.117.244.165.349a.5.5,0,0,1-.291.717c-.9.317-2.8.756-3.036-.656a1.866,1.866,0,0,1,1.745-1.948,3.541,3.541,0,0,1,3.406,2.641.865.865,0,0,0,.307-.407c.146-.461-.238-.986-.605-1.38m.5-1.834a8.42,8.42,0,0,0,3.062-3.421c-1.776.223-2.623,1.759-3.062,3.421m6.566-7.527a.3.3,0,0,1-.365-.323,5.963,5.963,0,0,0-1.794-4.961c-.993,1.931.591,3.891,1.691,5.68a6.186,6.186,0,0,1,.635.668,3.765,3.765,0,0,1-.167-1.064m.175,2.7a5.6,5.6,0,0,0-.321-.512c-.007-.005-.018,0-.026-.005a4.7,4.7,0,0,1-1.568-1.7A11.463,11.463,0,0,0,35.5,57.328c1.426,2.183,4.009,2.876,6.443,3.688A8.536,8.536,0,0,0,41.2,60.4c-.679-.472-1.747-.708-2.227-1.385a.3.3,0,0,1,.177-.435c.914-.26,2.064.666,2.769,1.159a7.6,7.6,0,0,1,1.911,1.834c.139-.063.277-.126.423-.179a.364.364,0,0,1-.051-.063m.179,1.047a.421.421,0,0,1-.482.256l-.009,0a.246.246,0,0,1-.068.025,2.277,2.277,0,0,0-1.073,1.268c-.367,1.094.338,2.334,1,3.158a4.968,4.968,0,0,0,2.708,1.8c1.077.23,1.529-.612,1.719-1.517a4.1,4.1,0,0,1,.147-1.317.484.484,0,0,1,.947.128,7.929,7.929,0,0,1-.137,1.324,2.6,2.6,0,0,0,3.12,2.531c1.875-.261,3.23-3.455,2.429-4.944a4.2,4.2,0,0,1-1.461-.473,1.2,1.2,0,0,1-.184-.156.3.3,0,0,1-.081-.144,2.074,2.074,0,0,1-2.432,1.047,5.288,5.288,0,0,1-3.707-3.167,2.8,2.8,0,0,1-.852-.281,13.107,13.107,0,0,0-1.584.466m8.8,1.073c0,.04-.014.075-.019.112a.4.4,0,0,1,.128-.037,2.038,2.038,0,0,1,1.7.593c.281.042.559.079.844.093a4.422,4.422,0,0,0,1.824-.267,1.84,1.84,0,0,0,1.2-1.741,1.5,1.5,0,0,0-1.11-1.41c-1.136-.31-2.255.63-3.134,1.229a.34.34,0,0,1-.288.06v.009a1.646,1.646,0,0,1-1.147,1.359M45.11,57.794a2.047,2.047,0,0,0,.065,1.9,4.007,4.007,0,0,0,1.317,1.359.257.257,0,0,1,.037,0,3.422,3.422,0,0,1,.659-2.394,2.189,2.189,0,0,1,1.7-.919c-1.163-.849-2.9-1.466-3.776.051m4.809-2.218c-1.333-.117-.368,1.422.037,1.84a.422.422,0,0,1,.105.459,6.006,6.006,0,0,1,1,.368,3.633,3.633,0,0,1,.258-1.536,1.76,1.76,0,0,0-1.4-1.131m-2.274,4.3a3.266,3.266,0,0,0,1.2,3.576c.808.693,2.85,1.8,3.321.263-.2.03-.395.051-.575.065-.537.037-.519-.77,0-.826a6.432,6.432,0,0,0,.651-.1,1.607,1.607,0,0,0-1.619-1.529c.011.011.021.012.032.025.367.438.135,1.11-.007,1.585a.482.482,0,0,1-.463.351c-.824-.068-2.56-.475-1.9-1.7a2.9,2.9,0,0,1,2.739-1.222,2.4,2.4,0,0,1,2.078,2.124.778.778,0,0,0,.31-.661c-.033-.765-.859-1.478-1.394-1.922-1.156-.956-3.765-2.136-4.382-.023M57,54.532c-1.2-1.473-3.069-.267-3.923.842a4.925,4.925,0,0,0-.78,1.494,5.344,5.344,0,0,1,.275,1.04.48.48,0,0,1-.561.531c-.007.107-.025.21-.026.317a8.041,8.041,0,0,1,.9.675,5.872,5.872,0,0,1,.591.591.363.363,0,0,1,.144-.119c1.45-.621,4.831-3.579,3.376-5.371M57.8,57a5.949,5.949,0,0,1,1.319.032,5.907,5.907,0,0,1-.893-1.04A4.579,4.579,0,0,1,57.8,57m17.628-9.363a2.845,2.845,0,0,0-1.515-1.58,1.21,1.21,0,0,0-.561-.06,2.741,2.741,0,0,1-1.831,2.089,3.893,3.893,0,0,1,3.009,2.538,1.574,1.574,0,0,0,1.028-.791,2.666,2.666,0,0,0-.13-2.2m2.311-4.944A15.621,15.621,0,0,0,77.181,46c-.035.438-.028.9-.023,1.361a6.134,6.134,0,0,0,.58-4.668m1.541,17.6a8.764,8.764,0,0,0-.717-4.723,16.807,16.807,0,0,0,.717,4.723m6-4.851a9.078,9.078,0,0,0-5.2-3.879c.2.1.4.2.6.289a10.165,10.165,0,0,1,1.478.765c.433.286.04.977-.41.7a11.333,11.333,0,0,0-1.577-.742,2.628,2.628,0,0,1-1.3-.859.267.267,0,0,1,.114-.395,8.667,8.667,0,0,0-1.022-.105,12.26,12.26,0,0,0,7.313,4.226m-6.659-7.311c1.04-.8,2.1-1.564,3.065-2.46a.378.378,0,0,1,.533.535,27.184,27.184,0,0,1-2.762,2.413c-.361.282-.714.6-1.071.908,3.781-1.233,7.707-4.126,7.662-8.2a21.256,21.256,0,0,0-8.3,7.469c.293-.228.591-.447.872-.663m-7.644,9.736a3.691,3.691,0,0,0,2.26.921,4.158,4.158,0,0,0,3.116-1.641c1.645-1.889,1.671-4.8-.679-6.036a2.9,2.9,0,0,1-.982.526c.112,2.476-1.852,4.13-4.267,4.267a.384.384,0,0,1-.186-.033c-.014.3-.053.6-.089.9a.419.419,0,0,1,.372.193,5.726,5.726,0,0,1,.454.9m-.451,5.656a19.018,19.018,0,0,0-.407-4.973,3.4,3.4,0,0,1-.3-.254c-.028.077-.067.147-.1.223a10.824,10.824,0,0,0,.8,5m-9.187-6.555c-.26-1.145.2-2.25,1.934-2.766a.472.472,0,0,1,.575.575,4.654,4.654,0,0,1-1.37,2.62,5.675,5.675,0,0,0,1.947,1.889,3.628,3.628,0,0,0,3.129.4,2.653,2.653,0,0,0,1.312-1.38c.007-.282.012-.563.019-.844a.386.386,0,0,1,.163-.319c-.014-.025-.028-.047-.04-.072a.325.325,0,0,1,.363-.475c.047-.284.084-.563.112-.821a.408.408,0,0,1,.566-.333.417.417,0,0,1,.377-.354A3.4,3.4,0,0,0,73.8,51.7a1.646,1.646,0,0,1-.365-.1c-.235-.1-.379-.479-.081-.616a3.243,3.243,0,0,1,.319-.125,2.839,2.839,0,0,0-.986-1.361c-.879-.647-1.833-.347-2.818-.433a.324.324,0,0,1-.163-.6,2.694,2.694,0,0,1,.982-.365.405.405,0,0,1,.205-.565,4.323,4.323,0,0,0,.651-.323.452.452,0,0,1-.365-.659,3.535,3.535,0,0,1,1.271-1.212,4.432,4.432,0,0,0-2.289-2.217,4.564,4.564,0,0,0-2.986-.459c-1.468.345-1.484,2.076-1.35,3.265.058.519-.768.607-.894.121-.679-2.622-2.9.347-3.262,1.547a3.25,3.25,0,0,0,.817,2.778c.053.012.1.016.156.03a.311.311,0,0,1,.189.426c.4.493.821.968,1.173,1.4a3.129,3.129,0,0,1,.409-1,2.458,2.458,0,0,1-.822-1.533c-.17-1.345,1.089-2.522,2.066-3.22a5.365,5.365,0,0,1,3.653-1.177c1.466.223,1.075,1.876.617,2.8-.231.459-.873.056-.679-.4.281-.656.565-1.559-.4-1.552a5.241,5.241,0,0,0-2.813,1.184,3.092,3.092,0,0,0-1.513,2.289,1.242,1.242,0,0,0,.445.922c.039-.039.072-.082.112-.119a.407.407,0,0,1,.593.556c.272.125.559.235.833.347a2.838,2.838,0,0,1,.447-1.024,1.509,1.509,0,0,1,1.908-1.629,1.5,1.5,0,0,1,.847.81l.007,0c1.028.845,1.345,2.788.105,3.562a2.488,2.488,0,0,1-2.892-.358,1.677,1.677,0,0,1-.231-.281,4.371,4.371,0,0,1-1.6-.661,1.72,1.72,0,0,0,.461,2.234c1.015.91,2.259.677,3.472.542.431-.049.505.549.2.752-1.338.893-3.383.233-4.47-.758a2.365,2.365,0,0,1-.784-1.426,5.6,5.6,0,0,1-2.162-1.938c-1.142.153-2.366.221-3.1,1.222a2.724,2.724,0,0,0,.156,2.862,3.329,3.329,0,0,0,2.04,1.7,1.135,1.135,0,0,0,.431.018m6.9-5.022a2.827,2.827,0,0,1-.707-.538c-.033.147-.061.3-.088.445l.021.047a.426.426,0,0,1,.053.046.263.263,0,0,1,.063.132,1.628,1.628,0,0,0,1.52.323c.761-.207.7-.94.472-1.554l0,0a.35.35,0,0,1-.388-.295,2.725,2.725,0,0,0-.16-.491.619.619,0,0,0-.356-.1,15.183,15.183,0,0,1,.238,1.6.451.451,0,0,1-.668.384M60.1,66.417a4.435,4.435,0,0,0,2.013-3.067c.707-3.027-1.159-5.663-4.337-5.426a.376.376,0,0,1-.4-.238,9.433,9.433,0,0,1-3.416,3,2.969,2.969,0,0,1,.267.6,4.15,4.15,0,0,1,3.767-1.413A2.472,2.472,0,0,1,59.8,62.048a2.727,2.727,0,0,1-1.454,2.622,4.583,4.583,0,0,1-2.1.51c-.067,0-.142,0-.212,0A3.391,3.391,0,0,1,57.394,66.5a3.511,3.511,0,0,0,2.709-.079M81.06,71.769a.23.23,0,0,1-.163.261c-8.272,1.871-17.235,1.552-25.647.893a.269.269,0,0,1-.258-.249,3.579,3.579,0,0,1-3.2.272.314.314,0,0,1,.082-.614,5.355,5.355,0,0,0,4.431-2.274,3.068,3.068,0,0,0,.561-2.643,4,4,0,0,1-.97-.761.266.266,0,0,1,.193-.451,3.014,3.014,0,0,0-.314-.249c.005.037.012.072.016.11a4.642,4.642,0,0,1-2.287,4.551,3.417,3.417,0,0,1-4.945-1.664,2.089,2.089,0,0,1-1.464.893c-1.5.207-2.941-.884-3.888-1.922a4.778,4.778,0,0,1-1.385-4.251,2.791,2.791,0,0,1,.829-1.354c-.349-.091-.707-.195-1.066-.3a.42.42,0,0,1,.054.349,8.419,8.419,0,0,1-3.628,4.467,3.04,3.04,0,0,1,2.9.012,3.611,3.611,0,0,1,1.536,2.909,3.816,3.816,0,0,1-.182,1.4,10.747,10.747,0,0,1,7.2-.086.474.474,0,0,1,.207.78c-2.176,2.552-6.329,2.118-9.328,2.059a.379.379,0,0,1-.158-.035c.126.118.247.231.354.338a9,9,0,0,1,2.234,3.646c.1.321-.247.73-.589.591a9.2,9.2,0,0,1-3.728-3.1,11.423,11.423,0,0,1,.081,3.6c0,.025-.026.035-.033.058,1.65.128,3.3.212,4.954.186,3.416-.058,6.825-.2,10.234-.36.023-.012.032-.032.06-.037a1.033,1.033,0,0,1,.442.014c.361-.016.723-.03,1.082-.047-.473-.358-.956-.7-1.413-1.084a.3.3,0,0,1-.119-.223c-2.881-.005-5.756-.077-8.621-.286a.311.311,0,0,1,0-.621c11.792.058,23.65-1.18,35.424-.619a.391.391,0,0,0,.04.007c.163-1.391.338-2.783.468-4.17m-.093,14.089a1.992,1.992,0,0,0,2.967,1.926,2.36,2.36,0,0,0,1.31-1.4,1.84,1.84,0,0,0-.484-1.68,12.81,12.81,0,0,1-3.832.963.411.411,0,0,1,.039.195M79.35,85.83c-1.754.16-3.709.238-5.689.267.386,3.013,6.129,3.472,5.689-.267m-6.531.275c-1.647.011-3.283-.009-4.8-.046-.016.044-.018.079-.03.123,0,.019,0,.035-.007.056a.308.308,0,0,0-.016.035c-.908,3.323,4.521,3.546,4.852-.168M63.7,88.388a3.425,3.425,0,0,0,3.313-1.841,3.928,3.928,0,0,1,.107-.512c-2.071-.058-3.856-.139-5.037-.195A1.778,1.778,0,0,0,63.7,88.388m-8.412-1.012a1.808,1.808,0,0,0,1.475.91,3.711,3.711,0,0,0,3.7-2.513c-1.727-.03-3.455-.042-5.184-.049a2.9,2.9,0,0,0,.007,1.652m-5.414,1.4a3.656,3.656,0,0,0,3.621-3.016.277.277,0,0,1,.014-.032q-2.867,0-5.736.035a.271.271,0,0,1,.007.093c-.214,1.661.214,2.864,2.094,2.92M40.054,99.442c2.327-.133,4.654-.231,6.985-.184a.323.323,0,0,1-.046-.081A22.489,22.489,0,0,1,46.1,88.055a3.4,3.4,0,0,1-2.5.842,2.707,2.707,0,0,1-1.971-1.119,2.46,2.46,0,0,1-.4-1.038,4.312,4.312,0,0,1-.17.717c.531,3.77,1.075,8.633-1,11.985m6.41-13.658q-2.17.026-4.342.068A6.4,6.4,0,0,0,42.234,87a1.648,1.648,0,0,0,1.324.986c1.52.319,2.464-.965,2.906-2.2M36.4,87.81a1.587,1.587,0,0,0,1.161,1.145c1.4.424,2.231-.719,2.708-1.864,0-.037,0-.074,0-.107a.315.315,0,0,1,.149-.265c.049-.135.1-.27.133-.4a.386.386,0,0,1,.658-.121,1.574,1.574,0,0,1,.044-.333l-4.542.086c-.053.642-.451,1.173-.309,1.857m-6.038.349a2.034,2.034,0,0,0,1.727.509,4.648,4.648,0,0,0,3.435-2.436.324.324,0,0,1,.288-.184c.016-.025.023-.056.039-.079q-3.083.058-6.164.1c.242.721.137,1.47.675,2.087m-6.024-.217a1.881,1.881,0,0,0,1.385.973c1.585.2,2.253-1.566,2.436-2.823q-2.141.026-4.284.039a7.225,7.225,0,0,0,.463,1.812m-6.61-.312a1.868,1.868,0,0,0,1.3,1.015c1.694.516,2.848-.829,3.234-2.329a.372.372,0,0,1,.107-.182q-2.273.005-4.547-.011l.005.016c0,.519-.26.968-.1,1.491M12.6,87.3a1.736,1.736,0,0,0,1.028,1.17c1.506.738,2.559-.623,3.009-1.869a.413.413,0,0,1,.358-.26,1.171,1.171,0,0,1,.154-.223q-2.178-.018-4.36-.074A3.48,3.48,0,0,0,12.6,87.3m-.158-1.976a.252.252,0,0,1,.277.123q4.674.182,9.352.04c8.17-.235,16.337-.477,24.511-.568,8.046-.089,16.074.188,24.116.26,1.306.012,10.825-.077,13.5-1.082a.329.329,0,0,1-.035-.331c-13.547.033-27.092-.468-40.638-.7q-9.954-.174-19.908-.074c-7.311.082-14.953-.342-22.221.652a.42.42,0,0,1-.053.182c-.566,1.033,8.088,1.457,8.793,1.5s1.392.07,2.089.1a.739.739,0,0,1,.217-.1m-11.152.17c.168,1.035-.319,2.369,1.04,2.781,1.231.372,2-.97,2.2-1.959.088-.421.584-.344.733-.035a3.5,3.5,0,0,1,.163-.337.391.391,0,0,1,.71.3c-.123.652-.493,1.413-.153,2.057.274.519,1.152.405,1.608.323a6.2,6.2,0,0,0,3.737-2.4.4.4,0,0,1,.428-.161c.005-.016.007-.035.014-.051q-5.243-.145-10.487-.524l0,.005" transform="translate(-0.001 -0.001)" fill="#42110f" fill-rule="evenodd"/>
      <path id="Path_91" data-name="Path 91" d="M14.743,24.79a.161.161,0,0,1,.072-.265c.589-.193,1.236.228,1.715.537a6.533,6.533,0,0,1,1.664,1.722c.189.263-.24.593-.447.345a7.54,7.54,0,0,0-1.58-1.445,6.775,6.775,0,0,1-1.424-.894" transform="translate(42.925 18.446)" fill="#42110f" fill-rule="evenodd"/>
      <path id="Path_92" data-name="Path 92" d="M31.08,26.764a.272.272,0,0,1,.368-.37,6.822,6.822,0,0,1,1.036.758,4.79,4.79,0,0,0,1.161.579c.377.137.228.731-.168.609a3.832,3.832,0,0,1-2.4-1.575" transform="translate(-1.366 19.869)" fill="#42110f" fill-rule="evenodd"/>
      <path id="Path_93" data-name="Path 93" d="M33.368,27.9c-.361-.389-.726-.775-1.079-1.17a.045.045,0,0,1,.063-.063c.395.352.782.717,1.17,1.077.1.1-.058.26-.154.156" transform="translate(-3.218 20.085)" fill="#42110f" fill-rule="evenodd"/>
      <path id="Path_94" data-name="Path 94" d="M49.762,33.329A18.214,18.214,0,0,0,46.7,38.853a.183.183,0,0,1-.358-.049c-.093-2.29,1.743-4.161,3.129-5.77.177-.207.459.089.295.295" transform="translate(-44.126 24.843)" fill="#42110f" fill-rule="evenodd"/>
      <path id="Path_95" data-name="Path 95" d="M3.371,42.679c-.363-1.363-.491-2.769-.877-4.135s-.9-2.692-1.417-4.007c-.1-.256.324-.431.445-.186,1.2,2.445,2.808,5.528,2.229,8.328a.2.2,0,0,1-.381,0" transform="translate(81.208 25.799)" fill="#42110f" fill-rule="evenodd"/>
      <path id="Path_96" data-name="Path 96" d="M.836,41.5C.557,39.813.723,38.1.268,36.439a.211.211,0,0,1,.405-.114A10.5,10.5,0,0,1,1.23,41.5a.206.206,0,0,1-.395,0" transform="translate(85.143 27.266)" fill="#42110f" fill-rule="evenodd"/>
      <path id="Path_97" data-name="Path 97" d="M43.784,20.544a15.178,15.178,0,0,0-2.068,5.235.167.167,0,0,1-.321,0c-.417-2.041.649-4.072,1.915-5.6.219-.263.672.086.473.363" transform="translate(-29.321 15.139)" fill="#42110f" fill-rule="evenodd"/>
      <path id="Path_98" data-name="Path 98" d="M42.924,26.2c-.121.23-.412.091-.438-.119-.217-1.752.9-3.7,1.7-5.193.163-.3.586-.037.451.263a24.083,24.083,0,0,0-1.022,2.864,12.162,12.162,0,0,1-.686,2.185" transform="translate(-32.172 15.639)" fill="#42110f" fill-rule="evenodd"/>
      <path id="Path_99" data-name="Path 99" d="M40.7,5.606c-.295.565-.426,1.194-.747,1.745a.206.206,0,0,1-.381-.1A4.349,4.349,0,0,1,41.6,3.631c.258-.188.584.238.34.442A4.937,4.937,0,0,0,40.7,5.606" transform="translate(-24.444 2.701)" fill="#42110f" fill-rule="evenodd"/>
      <path id="Path_100" data-name="Path 100" d="M16.721,8.034a7.446,7.446,0,0,1,1.627,3.206.146.146,0,0,1-.242.142,9.385,9.385,0,0,1-1.573-2.3A4.045,4.045,0,0,0,13.9,7.1c-.37-.07-.288-.708.089-.659a4.009,4.009,0,0,1,2.729,1.589" transform="translate(44.631 4.855)" fill="#42110f" fill-rule="evenodd"/>
      <path id="Path_101" data-name="Path 101" d="M15.69,9.348A5.2,5.2,0,0,0,13.763,6.67c-.312-.179-.039-.633.279-.477a3.7,3.7,0,0,1,2.036,3.05.209.209,0,0,1-.388.105" transform="translate(46.97 4.643)" fill="#42110f" fill-rule="evenodd"/>
    </g>
  </g>
</svg>
