<svg xmlns="http://www.w3.org/2000/svg" xmlns:xlink="http://www.w3.org/1999/xlink" width="117.38" height="92.501" viewBox="0 0 117.38 92.501">
  <defs>
    <clipPath id="clip-path">
      <rect id="Rectangle_14" data-name="Rectangle 14" width="117.38" height="92.501" fill="none"/>
    </clipPath>
  </defs>
  <g id="Group_16" data-name="Group 16" transform="translate(0 0)">
    <g id="Group_15" data-name="Group 15" transform="translate(0 0)" clip-path="url(#clip-path)">
      <path id="Path_66" data-name="Path 66" d="M58.251,59.144A25.259,25.259,0,0,0,63.516,55.9c.3-.246-.081-.686-.4-.515-.063.033-.128.063-.193.1,9.887-9.8,11.885-27.343,1.458-37.491-10.077-9.8-28.373-12.009-39.1-2.8a.459.459,0,0,0-.261.035c-12.392,5.634-11.954,25.05-5.634,34.993,7.888,12.41,26.335,16.5,38.867,8.928m-37.017-39a.35.35,0,0,0,.56.1c11.4-12.724,29.049-12.43,41.822-1.48,11.162,9.566,7.247,28.257-2.588,37.1-.552.5-1.124.949-1.7,1.38-9.315,4.125-18.537,4.83-28.518.173C15.932,50.476,15.179,33.269,21.234,20.14m-.586-.026c-6.306,11.62-5.6,25.716,4.416,34.667a27.519,27.519,0,0,1-4.742-5.113c-5.622-7.916-5.952-21.662.326-29.554" transform="translate(15.589 9.675)" fill="#42110f" fill-rule="evenodd"/>
      <path id="Path_67" data-name="Path 67" d="M23.058,18.453a4.672,4.672,0,0,0-.975,2.973c-1.332,8.546,7.391,15.633,12.838,21.29.1.165.21.322.3.489l-.024.026c-.487.54.312,1.342.8.8.1-.114.214-.242.32-.36.02-.02.039-.043.057-.063C41.639,37.682,50.8,26.789,47.689,18.469c-2.012-5.394-10.075-.521-11.781,3.392-.031-.053-.069-.1-.1-.155.026-.071.049-.147.075-.218.1-.275-.206-.424-.417-.322-2.661-3.81-9.156-6.723-12.408-2.714M35.5,23.344a.4.4,0,0,0,.379.224,124.8,124.8,0,0,1-3.9,12.253c-.1.273.314.426.456.191a21.663,21.663,0,0,0,1.971-4.329c-.533,1.826-1.026,3.657-1.407,5.487-.051.252.32.444.438.183,2.254-4.944,3.288-10.423,5.247-15.495.2-.507-.613-.719-.806-.224-.969,2.47-1.906,5.017-2.739,7.595.527-2.012.931-4.064,1.364-6.07,0-.018-.008-.026-.006-.045A.394.394,0,0,0,36.7,22.7c.2-.271.5-.654.955-1.222.6-.751,1.262-1.456,1.922-2.158,1.606-1.7,5.7-4.225,7.432.415.751,2.008-.163,4.567-.816,6.481a34.678,34.678,0,0,1-2.871,6.165c.727-2.411,1.523-4.8,2.386-7.175.157-.432-.533-.617-.69-.189a66.035,66.035,0,0,0-2.946,9.411c-.55.847-1.126,1.682-1.721,2.5A79.6,79.6,0,0,0,44.07,24.885a.409.409,0,0,0-.788-.216c-1.293,4.8-3.075,9.435-4.408,14.206-.92,1.171-1.867,2.3-2.816,3.378-.1-.112-.2-.222-.3-.334A61.59,61.59,0,0,0,30.2,34.636a14.09,14.09,0,0,0,.9-1.755c-.181.639-.35,1.279-.5,1.92-.071.309.369.521.529.222,1.987-3.685,2.9-7.965,4.211-11.97.051.1.112.193.161.291M28.9,17.956a9.317,9.317,0,0,1,6.031,4.351c-.831,2.113-1.694,4.26-2.476,6.428.517-2.116.9-4.28,1.437-6.228a.325.325,0,0,0-.627-.173c-1.216,3.826-2.557,7.727-3.637,11.6-.275-.33-.554-.66-.823-.994,2.262-3.577,2.84-8.336,3.47-12.439.075-.493-.666-.715-.762-.212-.776,4.139-2.085,8.047-3.15,12.09-.267-.336-.531-.674-.786-1.014C29.4,27.894,29.8,23.5,30.942,19.835c.159-.507-.627-.719-.792-.218-1.157,3.522-2.276,7.122-3.329,10.7-.222-.322-.452-.635-.664-.963,1.606-2.948,2.162-6.662,3.058-9.865a.366.366,0,0,0-.7-.2c-.953,2.975-2.394,6.151-2.8,9.3-.21-.352-.432-.694-.623-1.055A9.8,9.8,0,0,0,26.552,24.2a58.235,58.235,0,0,0,1.205-5.756c.063-.312-.405-.448-.481-.13-.364,1.513-.794,3.007-1.222,4.5-.362,1.26-1.028,2.46-1.476,3.694-.114-.25-.234-.5-.338-.757a.22.22,0,0,0,.132-.079c1.478-1.912,1.843-4.864,2.156-7.194.063-.464-.637-.68-.721-.2a29.783,29.783,0,0,1-.845,3.512c-.314,1.042-.8,2.083-1.028,3.152-.1-.285-.2-.566-.289-.859A16.059,16.059,0,0,0,24.19,22.1c.309-1.1.678-2.187,1.016-3.28a.344.344,0,0,0-.136-.413,5.5,5.5,0,0,1,3.828-.452m-5.624,3.893c-.01.035-.022.071-.035.106A3.917,3.917,0,0,1,24.3,19c-.35.947-.711,1.887-1.022,2.849" transform="translate(22.739 16.658)" fill="#42110f" fill-rule="evenodd"/>
      <path id="Path_68" data-name="Path 68" d="M29.374,25.364c.279-.54.442-1.12.7-1.668.11-.23-.236-.436-.346-.2-.261.552-.405,1.138-.645,1.7-.083.2.189.367.291.171" transform="translate(30.117 24.237)" fill="#42110f" fill-rule="evenodd"/>
      <path id="Path_69" data-name="Path 69" d="M28.989,36.3c3.123-5.392,4.2-11.693,6.116-17.557.112-.342-.415-.478-.533-.149-2.089,5.819-3.808,11.742-6.029,17.517-.1.265.312.424.446.189" transform="translate(29.558 19.067)" fill="#42110f" fill-rule="evenodd"/>
      <path id="Path_70" data-name="Path 70" d="M34.316,20.754c-1.433,5.294-3.661,10.289-5.241,15.527a.161.161,0,0,0,.293.124,74.365,74.365,0,0,0,5.546-15.487.311.311,0,0,0-.6-.165" transform="translate(30.117 21.274)" fill="#42110f" fill-rule="evenodd"/>
      <path id="Path_71" data-name="Path 71" d="M34.8,39.578c5.058-2.618,10.94-6.746,11.864-12.84.041-.275-.364-.515-.5-.21a22.638,22.638,0,0,1-4.449,7.348,41.591,41.591,0,0,1-7.057,5.465.137.137,0,0,0,.138.236" transform="translate(35.842 27.339)" fill="#42110f" fill-rule="evenodd"/>
      <path id="Path_72" data-name="Path 72" d="M17.609,26.512c1.843-5.579,4.479-10.073,9.529-13.33.212-.138.077-.531-.181-.43-5.046,2.014-9.429,8.285-9.839,13.693-.022.3.407.322.491.067" transform="translate(17.736 13.195)" fill="#42110f" fill-rule="evenodd"/>
      <path id="Path_73" data-name="Path 73" d="M41.1,26.28a8.858,8.858,0,0,0,.827-2.7.328.328,0,0,0-.633-.173,8.9,8.9,0,0,0-.548,2.779.192.192,0,0,0,.354.1" transform="translate(42.203 24.006)" fill="#42110f" fill-rule="evenodd"/>
      <path id="Path_74" data-name="Path 74" d="M23.027,13.387a9.21,9.21,0,0,0,2.065-1.22.343.343,0,0,0-.24-.578c-.831-.09-1.6.666-2.217,1.124-.393.291-.049.935.393.674" transform="translate(23.273 12)" fill="#42110f" fill-rule="evenodd"/>
      <path id="Path_75" data-name="Path 75" d="M34.681,37.456c.707,1.537,1.181,3.372,2.195,4.742a.3.3,0,0,0,.542-.228,13.09,13.09,0,0,0-2.323-4.754.239.239,0,0,0-.413.24" transform="translate(35.906 38.44)" fill="#42110f" fill-rule="evenodd"/>
      <path id="Path_76" data-name="Path 76" d="M76.385,11.188c-8.006-6.5-18.313-9.517-28.52-9.37-13.705.2-23.411,7.617-32.368,17.2a.454.454,0,0,0-.043.595,40.89,40.89,0,0,0,9.2,56C42.93,89.454,70.4,86.107,84.522,68.211c13.846-17.543,8.464-43.551-8.136-57.024M10.146,35.9a39.493,39.493,0,0,0-.047,7.7c-.138.037-.279.069-.417.106a.323.323,0,0,0-.173.128,46.309,46.309,0,0,1,.637-7.931m7.747,32.148A37.867,37.867,0,0,1,9.5,44.236a.313.313,0,0,0,.273.165c.132,0,.263-.016.393-.029a43.436,43.436,0,0,0,.719,4.376,44.358,44.358,0,0,0,1.739,7.019c-.267-.511-.531-1.024-.8-1.545-.151-.3-.664-.088-.542.228.462,1.209.959,2.447,1.482,3.687-.293.212-.161.733.242.607l.01,0a37.835,37.835,0,0,0,5.19,8.955.43.43,0,0,0-.318.354m8.721,7.67a36.938,36.938,0,0,1-7.984-6.807c1.01.931,2.038,1.875,3.087,2.808a.455.455,0,0,0,.393.352A45.5,45.5,0,0,0,27.9,76.494c-.432-.255-.861-.507-1.285-.776m56.205-7.01c-12.549,15.867-35.341,17.849-52.487,9.12a.368.368,0,0,0,.287-.668c-.183-.136-.364-.271-.546-.409a38.614,38.614,0,0,0,4.282,2.13.342.342,0,0,0,.556.228c14.2,5.715,31.491,2.971,42.84-7.242a3.529,3.529,0,0,0,.851.525.3.3,0,0,0,.369-.369,3.658,3.658,0,0,0-.5-.833A35.442,35.442,0,0,0,83.907,64.7a26.069,26.069,0,0,0,2.321-4.579,2.935,2.935,0,0,0,.759.083.221.221,0,0,0,.155-.373,3.337,3.337,0,0,0-.6-.495c2.979-8.177,2.506-17.877,1.393-26.113C86.552,22.959,81.38,15.535,72.525,10.265a44.35,44.35,0,0,0-6.487-3.156.4.4,0,0,0-.552-.214C48.739.582,27.236,3.432,18.961,21.008a.282.282,0,0,0,.487.285,38.852,38.852,0,0,1,2.942-4.109c.458.385.918.77,1.36,1.171a9.512,9.512,0,0,0,1.8,1.5.32.32,0,0,0,.436-.434,7,7,0,0,0-1.549-1.757,12.034,12.034,0,0,0-1.482-1.148,32.832,32.832,0,0,1,11.278-8.58c.731,1.816,1.358,4.144,2.836,5.451a.128.128,0,0,0,.212-.126,24.707,24.707,0,0,0-2.291-5.65A35.592,35.592,0,0,1,48.884,4.849c-.086.914-.077,1.833-.081,2.753a10.656,10.656,0,0,0,.261,3.286.228.228,0,0,0,.436,0,9.115,9.115,0,0,0,.261-2.84c0-1.067.016-2.138-.086-3.2a47.259,47.259,0,0,1,15.2,2.885,20.711,20.711,0,0,0-2.36,5.274.247.247,0,0,0,.409.238c1.37-1.307,2.028-3.431,2.812-5.2,1.649.625,3.288,1.33,4.9,2.124a28.9,28.9,0,0,1,7.515,5.32,11.569,11.569,0,0,0-1.527,1.372,10.845,10.845,0,0,0-2.4,2.38c-.073.138.012.369.2.346.973-.108,1.887-1.106,2.568-1.733a10.275,10.275,0,0,0,1.739-1.78,31.531,31.531,0,0,1,6.332,9.812c-.212-.4-.432-.8-.666-1.2-.061-.108-.255-.037-.206.086a47.351,47.351,0,0,1,1.5,4.528,30.318,30.318,0,0,0-5.5,1.914.272.272,0,0,0,.145.523c1.808-.458,3.92-.788,5.524-1.83.377,1.37.727,2.749,1.079,4.115a.287.287,0,0,0,.531.041,48.585,48.585,0,0,1,.766,9.639,14.424,14.424,0,0,0-2.855.163,8.726,8.726,0,0,0-2.588.576.323.323,0,0,0,.163.6c.933-.106,1.859-.228,2.8-.305a11.493,11.493,0,0,0,2.476-.307,53.56,53.56,0,0,1-2.466,14.454c-.521-.248-1.073-.458-1.566-.694-1.177-.564-2.368-1.075-3.565-1.594-.328-.14-.613.3-.287.493,1.122.65,2.213,1.338,3.37,1.928.533.273,1.124.6,1.731.853A28.329,28.329,0,0,1,78.35,71.05a18.221,18.221,0,0,0-1.778-1.71,21.687,21.687,0,0,0-3.075-2.3c-.446-.283-.814.4-.405.692a34.511,34.511,0,0,1,3.028,2.582c.491.454.957.981,1.478,1.421-7.108,6.436-17.209,9.289-27.207,9.146a47.056,47.056,0,0,0-.108-5.414.331.331,0,0,0-.662,0c-.122,1.714-.509,3.744.147,5.406a49.2,49.2,0,0,1-14.416-2.529c.289-.554.584-1.106.835-1.682a4.353,4.353,0,0,0,.552-2.1.256.256,0,0,0-.434-.177,4.969,4.969,0,0,0-.853,1.641q-.421,1.026-.851,2.046c-.816-.293-1.621-.6-2.4-.937a30.392,30.392,0,0,1-8.92-6,15.515,15.515,0,0,0,3.162-3.6c.143-.261-.171-.65-.444-.442A26.882,26.882,0,0,0,22.612,70.5a40.79,40.79,0,0,1-8.2-12.145L14.4,58.33c.572-.163,1.144-.326,1.712-.5a6.368,6.368,0,0,0,2.36-1.04.243.243,0,0,0-.169-.413,8.085,8.085,0,0,0-2.429.584c-.57.181-1.12.4-1.674.613a76.009,76.009,0,0,1-2.386-13.479q.4-.1.806-.208a20.815,20.815,0,0,0,3.1-.776c.185-.083.1-.332-.053-.389a4.319,4.319,0,0,0-2.521.1c-.47.11-.937.236-1.4.358q-.107-1.716-.11-3.459c.825-3.624,1.594-7.124,2.616-10.6l.012,0a.272.272,0,0,0,.322.118c.426.153.853.3,1.275.458a8.525,8.525,0,0,0,2.673.759.326.326,0,0,0,.163-.6,23.019,23.019,0,0,0-2.6-1.024c-.342-.13-.7-.257-1.059-.36,1.507-3,2.8-6.153,4.561-9.01.136-.222-.193-.4-.34-.2a35.259,35.259,0,0,0-4.746,9,59.56,59.56,0,0,1,2.2-6.084.232.232,0,0,0-.4-.232,32.161,32.161,0,0,0-4.4,10.187.3.3,0,0,0-.4.175c-.3,1.124-.533,2.268-.717,3.423a30.5,30.5,0,0,1,6.186-15.442c.279-.35-.216-.849-.495-.495a28.856,28.856,0,0,0-2.779,4.28c.635-1.44,1.33-2.851,2.1-4.231a.433.433,0,0,0,.373-.134c9.008-8.886,17.028-15.544,30.08-16.774,10.032-.943,20.064,2.458,28.227,8.13,18.588,12.911,22.23,40.083,8.336,57.655" transform="translate(8.494 1.878)" fill="#42110f" fill-rule="evenodd"/>
      <path id="Path_77" data-name="Path 77" d="M10.915,15.823a76.47,76.47,0,0,1,8.313-9.6c.13-.136-.039-.369-.2-.265-3.639,2.311-6.2,6.078-8.332,9.733-.086.145.128.263.222.128" transform="translate(11.059 6.151)" fill="#42110f" fill-rule="evenodd"/>
      <path id="Path_78" data-name="Path 78" d="M51.456,34.129a35.884,35.884,0,0,1-9.525,10.488.24.24,0,0,0,.242.413c4.4-2.065,7.631-6.379,9.777-10.612a.287.287,0,0,0-.495-.289" transform="translate(43.329 35.218)" fill="#42110f" fill-rule="evenodd"/>
      <path id="Path_79" data-name="Path 79" d="M11.294,1.074a.367.367,0,0,0-.68-.081c-.008,0-.018,0-.026,0-1.6.3-1.3,4.931-1.362,5.958-.269,4.306-.466,8.389-2.012,12.335C6.491,13.3,6.878,7.147,5.813,1.324c-.057-.312-.456-.23-.552,0C4.547,3.039,4.728,15.9,3.622,18.033,3.191,14.355,4.062.579.375.73a.223.223,0,0,0,0,.446.6.6,0,0,1,.171.041C-.356,6.769.6,12.358.88,17.945c.257,5.1,3.573,8.69,3.944,13.862.216,3.032.285,6.1.273,9.179a2.944,2.944,0,0,1-.232-.654c-.136-.6-.99-.332-.9.246a2.661,2.661,0,0,0,1.118,1.894l.008,0c0,.362-.018.723-.026,1.085a2.768,2.768,0,0,1-.354-.259c-.405-.348-.975.2-.593.59a3.892,3.892,0,0,0,.922.7c-.13,5.379-.466,10.767-.788,16.051a155.553,155.553,0,0,0-.173,20.8c.193,2.645.263,7.963,3.366,9.018a.418.418,0,0,0,.515-.293c2.1-8.092,1.295-18.842.214-27.044A178.962,178.962,0,0,1,6.625,44.919a1.487,1.487,0,0,0,1.423-.8.277.277,0,0,0-.193-.34,3.781,3.781,0,0,0-1.262.14c-.006-.375-.031-.753-.035-1.128a.815.815,0,0,0,.6-.383.321.321,0,0,0-.051-.385.933.933,0,0,0-.56-.234A78.7,78.7,0,0,1,7.758,27.105a.452.452,0,0,0-.035-.265c2.523-8.739,5.748-16.246,3.571-25.767M7.912,70c.134,3.555-.193,7.108-.112,10.663.029,1.275.232,11.632-1.69,7.016C4.316,83.37,4.732,77.7,4.734,73.124c0-9.427.755-18.856.967-28.286.051.012.1.02.155.031.45,8.44,1.751,16.945,2.056,25.13m2.413-53.244c-.949,4.029-3.111,7.585-3.773,11.714-.008.047.018.077.024.116a55.927,55.927,0,0,0-.743,6.251,37.082,37.082,0,0,0-1.036-8.4c-.965-3.691-2.934-6.752-3.125-10.9-.214-4.659-.786-9.24-.588-13.9C2.928,4.181,1.841,16.766,2.922,18.9a.378.378,0,0,0,.615.09C5.556,18.44,5.259,8.09,5.308,6.93c.053-1.275.1-2.543.234-3.81.167,5.555-.59,11.651.941,17.022a.369.369,0,0,0,.246.265c-.055.114-.1.23-.151.342a.356.356,0,0,0,.485.483c2.508-1.3,2.555-6.167,2.808-8.57.224-2.144.316-4.306.446-6.457A14.607,14.607,0,0,1,10.71,2.32a39.288,39.288,0,0,1-.385,14.434" transform="translate(0.165 0.755)" fill="#42110f" fill-rule="evenodd"/>
      <path id="Path_80" data-name="Path 80" d="M61.519,51.133a1.741,1.741,0,0,0,.334-.393.4.4,0,0,0-.387-.59c-.008-.181-.018-.36-.029-.54.018-.047.059-.081.069-.134a.227.227,0,0,0-.083-.228c-.114-2.506-.2-5.019-.22-7.534-.061-7.179.334-14.442.637-21.617.275-6.526-.686-13.137.057-19.614.051-.442-.692-.538-.776-.106-.022.12-.035.24-.055.36a.493.493,0,0,0-.692-.426C58.045,1.4,57.443,3.867,56.82,6.2c-1.5,5.614-2.728,11.606-3.924,17.3-.5,2.368-.951,4.638-1.2,6.913a.4.4,0,0,0-.2.586c.045.063.083.128.128.191a25.6,25.6,0,0,0,.283,7.031c.786,4.221,4.756,6.56,6.788,10.16a.387.387,0,0,0-.261.466,2.323,2.323,0,0,0,.941,1.409c-.022.145-.051.291-.073.438a3.652,3.652,0,0,1-.593-.134c-.56-.179-.753.647-.238.857a3.621,3.621,0,0,0,.676.193c-1.955,11.431-6.507,23.45-3.846,34.95,1.385,5.978,6.357,3,6.792-1.615,1.073-11.315.006-22.542-.57-33.81M58.43,45.848c-1.063-1.262-2.181-2.456-3.311-3.661a11.112,11.112,0,0,1-2.787-7.212c.444.511.819,1.183,1.482,1.4a.219.219,0,0,0,.267-.267A4.631,4.631,0,0,0,52.8,34.325a.35.35,0,0,0-.487-.033c-.016-.674-.01-1.352.031-2.028.049.075.1.149.151.224A4.1,4.1,0,0,0,53.529,33.9a.235.235,0,0,0,.346-.138c.2-1-.735-2.091-1.421-2.9.1-1,.232-1.979.369-2.922.071-.5.171-.985.259-1.478a18.984,18.984,0,0,1,.47,2.977c.008.081.136.149.181.049a3.9,3.9,0,0,0-.513-3.828c.236-1.234.5-2.46.8-3.675a3.2,3.2,0,0,0,.562,1.354.265.265,0,0,0,.44-.116c.271-.935-.259-2.1-.546-3.005.22-.8.452-1.6.694-2.394a3.018,3.018,0,0,0,.6,1.861.176.176,0,0,0,.291-.077,6.175,6.175,0,0,0-.293-3.5c-.006-.022-.026-.031-.037-.051.116-.364.224-.731.346-1.1a14.5,14.5,0,0,0,.474-2.162c.053.173.092.352.149.525a6.657,6.657,0,0,0,.839,2.126c.108.136.307.039.354-.094.474-1.317-.562-3.052-1.1-4.343.106-.833.214-1.7.35-2.574a2.532,2.532,0,0,0,1.059,1.741.313.313,0,0,0,.454-.352,8.218,8.218,0,0,0-.552-1.419,17.045,17.045,0,0,1-.535-1.733c-.012-.047-.051-.067-.079-.1.54-2.464,1.45-4.64,3.343-5.471A.36.36,0,0,0,61.043.89a45.035,45.035,0,0,0-.11,10.317c.328,5.162-.216,10.4-.369,15.568-.224,7.578-.134,15.027.14,22.507-.138.045-.277.09-.421.122,0-.147.014-.293.014-.44a.316.316,0,0,0-.373-.34,6.95,6.95,0,0,0-1.495-2.777M61.486,76c0,2.439-.12,4.868-.275,7.3q.971,5.534-4.9,2.973a26.256,26.256,0,0,1-.733-6.076c-.47-9.763,3.828-18.944,4.589-28.534a2.711,2.711,0,0,0,.629-.122c.134,3.26.289,6.526.495,9.818.3,4.86.2,9.771.2,14.638" transform="translate(53.281 0.102)" fill="#42110f" fill-rule="evenodd"/>
      <path id="Path_81" data-name="Path 81" d="M58.917,39.034a42.985,42.985,0,0,1-3.146,13.21c-.053.126.153.206.216.092a24.883,24.883,0,0,0,3.6-13.3.334.334,0,0,0-.668,0" transform="translate(57.777 40.11)" fill="#42110f" fill-rule="evenodd"/>
      <path id="Path_82" data-name="Path 82" d="M.548,38.255C.725,40.522.79,42.8,1.773,44.9c.132.279.511.069.466-.2-.371-2.144-.78-4.282-1.045-6.442-.049-.4-.68-.421-.647,0" transform="translate(0.566 39.317)" fill="#42110f" fill-rule="evenodd"/>
      <path id="Path_83" data-name="Path 83" d="M0,40.235a6.284,6.284,0,0,0,1.49,4.431c.173.185.432-.014.393-.228-.267-1.458-1.13-2.7-1.262-4.2a.311.311,0,0,0-.621,0" transform="translate(0 41.377)" fill="#42110f" fill-rule="evenodd"/>
      <path id="Path_84" data-name="Path 84" d="M6.205.714A45.735,45.735,0,0,1,7.439,6.743c.026.149.283.155.3,0A13.719,13.719,0,0,0,6.733.57C6.621.238,6.1.376,6.205.714" transform="translate(6.415 0.394)" fill="#42110f" fill-rule="evenodd"/>
      <path id="Path_85" data-name="Path 85" d="M53.209,6.552a17.734,17.734,0,0,0,.926-2.706,9.853,9.853,0,0,1,1.8-3.233c.3-.342-.175-.833-.507-.5a9.221,9.221,0,0,0-2.7,6.314.262.262,0,0,0,.485.13" transform="translate(54.618 0)" fill="#42110f" fill-rule="evenodd"/>
    </g>
  </g>
</svg>
